STARTFONT 2.1
COMMENT
COMMENT Converted from OpenType font "Roboto-ThinItalic.ttf" by "otf2bdf 3.0".
COMMENT
FONT -FreeType-Roboto Thin-Medium-I-Normal--89-640-100-100-P-429-ISO10646-1
SIZE 64 100 100
FONTBOUNDINGBOX 165 115 -64 -24
STARTPROPERTIES 19
FOUNDRY "FreeType"
FAMILY_NAME "Roboto Thin"
WEIGHT_NAME "Medium"
SLANT "I"
SETWIDTH_NAME "Normal"
ADD_STYLE_NAME ""
PIXEL_SIZE 89
POINT_SIZE 640
RESOLUTION_X 100
RESOLUTION_Y 100
SPACING "P"
AVERAGE_WIDTH 429
CHARSET_REGISTRY "ISO10646"
CHARSET_ENCODING "1"
FONT_ASCENT 82
FONT_DESCENT 21
COPYRIGHT "Copyright 2011 The Roboto Project Authors (https://github.com/googlefonts/roboto-classic)"
_OTF_FONTFILE "Roboto-ThinItalic.ttf"
_OTF_PSNAME "Roboto-ThinItalic"
ENDPROPERTIES
CHARS 922
STARTCHAR 0000
ENCODING 0
SWIDTH 0 0
DWIDTH 0 0
BBX 0 0 0 0
BITMAP
ENDCHAR
STARTCHAR 0002
ENCODING 2
SWIDTH 0 0
DWIDTH 0 0
BBX 0 0 0 0
BITMAP
ENDCHAR
STARTCHAR 000D
ENCODING 13
SWIDTH 236 0
DWIDTH 21 0
BBX 0 0 0 0
BITMAP
ENDCHAR
STARTCHAR 0020
ENCODING 32
SWIDTH 236 0
DWIDTH 21 0
BBX 0 0 0 0
BITMAP
ENDCHAR
STARTCHAR 0021
ENCODING 33
SWIDTH 180 0
DWIDTH 16 0
BBX 14 63 2 0
BITMAP
001C
0018
0018
0018
0018
0038
0038
0030
0030
0030
0030
0070
0070
0060
0060
0060
0060
00E0
00E0
00C0
00C0
00C0
00C0
01C0
01C0
0180
0180
0180
0380
0380
0380
0300
0300
0300
0700
0700
0600
0600
0600
0600
0E00
0E00
0C00
0C00
0C00
0C00
0000
0000
0000
0000
0000
0000
0000
0000
0000
0000
0000
0000
2000
7000
F800
F800
F000
ENDCHAR
STARTCHAR 0022
ENCODING 34
SWIDTH 236 0
DWIDTH 21 0
BBX 14 18 10 49
BITMAP
181C
1818
3818
3818
3818
3038
3038
3038
3030
7030
7030
6070
6070
6060
E060
E060
C060
C0E0
ENDCHAR
STARTCHAR 0023
ENCODING 35
SWIDTH 528 0
DWIDTH 47 0
BBX 51 63 1 0
BITMAP
00000018000E00
00000038000E00
00000030000C00
00000030001C00
00000070001800
00000060001800
00000060003800
000000E0003000
000000C0003000
000000C0007000
000001C0006000
00000180006000
0000038000E000
0000038000C000
0000030000C000
0000070001C000
00000700018000
00000600038000
00FFFFFFFFFFE0
01FFFFFFFFFFE0
00000C00070000
00001C00070000
00001800060000
000018000E0000
000038000C0000
000030000C0000
000030001C0000
00007000180000
00006000180000
00006000380000
0000E000300000
0000C000300000
0000C000700000
0001C000600000
00018000600000
00038000E00000
00038000C00000
00030001C00000
00070001C00000
00070001800000
00060003800000
000E0003800000
000E0003000000
FFFFFFFFFFF000
FFFFFFFFFFF000
00180006000000
0018000E000000
0038000C000000
0030000C000000
0030001C000000
00700018000000
00600018000000
00600038000000
00E00030000000
00C00030000000
00C00070000000
01C00060000000
018000E0000000
038000E0000000
038000C0000000
030001C0000000
070001C0000000
07000180000000
ENDCHAR
STARTCHAR 0024
ENCODING 36
SWIDTH 528 0
DWIDTH 47 0
BBX 41 81 4 -9
BITMAP
000000380000
000000380000
000000300000
000000300000
000000300000
000000300000
000000700000
000000700000
000007FE0000
00003FFFC000
0000FE07E000
0003E000F800
000780003C00
000E00001C00
001C00000E00
003800000700
007000000700
006000000300
00E000000380
00C000000380
01C000000180
018000000180
018000000180
018000000180
038000000180
038000000180
038000000180
038000000000
038000000000
018000000000
018000000000
01C000000000
00E000000000
00E000000000
007800000000
003C00000000
001F00000000
0007C0000000
0001F0000000
0000FC000000
00001F800000
000007E00000
000001F80000
0000007C0000
0000001F0000
000000078000
00000003C000
00000001E000
00000000E000
000000007000
000000003000
000000003000
000000003800
000000003800
C00000003800
C00000003800
C00000003800
C00000003000
C00000003000
C00000007000
C00000007000
E00000006000
E0000000E000
60000001C000
70000001C000
380000038000
3800000F0000
1C00001E0000
0F00007C0000
07C001F00000
01FC3FE00000
007FFF000000
000FF8000000
0001C0000000
0001C0000000
0001C0000000
000180000000
000180000000
000180000000
000180000000
000380000000
ENDCHAR
STARTCHAR 0025
ENCODING 37
SWIDTH 720 0
DWIDTH 64 0
BBX 50 65 8 -1
BITMAP
001FC000000000
007FF000000000
01F8F800000000
03C01C00000000
07000E00000000
0E000600000000
0E000700000000
1C000700000000
38000300003000
38000300007000
30000300007000
7000030000E000
7000030001C000
60000300038000
60000700038000
60000700070000
600006000E0000
E00006001C0000
E0000E00380000
E0000E00380000
60000C00700000
60001C00E00000
60003801C00000
70007001800000
3800F003800000
3C01E007000000
1E07C00E000000
0FFF001C000000
03FC001C000000
00000038000000
00000070000000
000000E0000000
000000C0000000
000001C0000000
00000380000000
00000700000000
00000E001FF800
00000E003FFC00
00001C00F81E00
00003801E00700
00007003C00380
00006003800180
0000E007000180
0001C00E0001C0
0003800E0001C0
0007000C0000C0
0007001C0000C0
000E00180001C0
001C00180001C0
003800180001C0
00300038000180
00700038000180
00E00030000180
01C00030000380
03800030000300
03800030000700
07000038000700
06000038000E00
00000018000E00
0000001C001C00
0000000E003800
0000000F00F000
00000007EFE000
00000003FF8000
000000007E0000
ENDCHAR
STARTCHAR 0026
ENCODING 38
SWIDTH 585 0
DWIDTH 52 0
BBX 45 65 3 -1
BITMAP
000003FC0000
00000FFF0000
00003F07C000
00007801E000
0000E000E000
0001C0007000
000380003000
000300003000
000700003800
000600003800
000E00003800
000C00003000
000C00003000
000C00007000
001C00007000
001C0000E000
001C0000C000
000C0001C000
000C00038000
000C00070000
000C000E0000
000E003C0000
000600780000
000700E00000
000303C00000
000387800000
00018E000000
0001FC000000
0000F8000000
0001E0000000
0003F0000000
000738000000
000E38000000
003C1C000000
00780E000000
00E006000000
01C007000000
038003800018
070001800038
0E0001C00038
0C0000E00030
1C0000700070
380000700070
300000380060
7000001C00E0
6000000C00E0
6000000E01C0
E000000701C0
E00000030380
C00000038380
C0000001C700
C0000000EE00
C0000000FE00
C00000007C00
E00000003800
600000007800
70000000FC00
70000003CE00
380000078600
1C00001E0700
0F00007C0380
07C001F001C0
03FF7FC000C0
00FFFF0000E0
000FF0000000
ENDCHAR
STARTCHAR 0027
ENCODING 39
SWIDTH 157 0
DWIDTH 14 0
BBX 6 18 9 49
BITMAP
1C
1C
18
18
18
18
38
38
38
30
30
30
70
60
60
60
60
E0
ENDCHAR
STARTCHAR 0028
ENCODING 40
SWIDTH 281 0
DWIDTH 25 0
BBX 26 90 5 -20
BITMAP
000000C0
000001C0
00000780
00000E00
00001C00
00003800
00007000
0000E000
0001C000
00018000
00038000
00070000
00060000
000E0000
001C0000
00180000
00380000
00300000
00700000
00600000
00E00000
00C00000
01C00000
01800000
01800000
03800000
03000000
07000000
07000000
06000000
0E000000
0E000000
0C000000
0C000000
1C000000
18000000
18000000
38000000
38000000
30000000
30000000
30000000
70000000
70000000
60000000
60000000
60000000
60000000
60000000
E0000000
E0000000
E0000000
E0000000
E0000000
C0000000
C0000000
C0000000
C0000000
C0000000
C0000000
C0000000
C0000000
C0000000
C0000000
C0000000
E0000000
E0000000
E0000000
60000000
60000000
60000000
60000000
70000000
70000000
30000000
30000000
38000000
18000000
18000000
1C000000
0C000000
0E000000
06000000
07000000
03800000
01800000
01C00000
00E00000
00700000
00300000
ENDCHAR
STARTCHAR 0029
ENCODING 41
SWIDTH 292 0
DWIDTH 26 0
BBX 26 90 -6 -20
BITMAP
00030000
00038000
0001C000
0000E000
00007000
00003000
00001800
00001800
00000C00
00000C00
00000600
00000600
00000700
00000300
00000300
00000300
00000180
00000180
00000180
00000180
000001C0
000001C0
000000C0
000000C0
000000C0
000000C0
000000C0
000000C0
000000C0
000000C0
000000C0
000000C0
000000C0
000000C0
000000C0
000000C0
000000C0
000000C0
000000C0
000000C0
000001C0
000001C0
000001C0
000001C0
00000180
00000180
00000180
00000380
00000380
00000300
00000300
00000300
00000700
00000700
00000600
00000600
00000E00
00000E00
00000C00
00001C00
00001C00
00001800
00003800
00003800
00003000
00007000
00006000
0000E000
0000E000
0001C000
0001C000
00038000
00038000
00070000
00070000
000E0000
000C0000
001C0000
00380000
00700000
00700000
00E00000
01C00000
03800000
07000000
0E000000
1C000000
38000000
F0000000
40000000
ENDCHAR
STARTCHAR 002A
ENCODING 42
SWIDTH 405 0
DWIDTH 36 0
BBX 34 34 5 29
BITMAP
0000180000
0000380000
0000380000
0000300000
0000300000
0000300000
0000300000
0000700000
0000600000
0000600000
0000600000
40006000C0
7800E007C0
FE00E03F80
1FC0C0FC00
03F0C7F000
00FEDF8000
001FFC0000
0003F00000
0003C00000
0007E00000
000E600000
001C700000
0038380000
0038180000
00701C0000
00E00C0000
01C00E0000
0380070000
0700070000
0E00038000
1E00038000
1C0001C000
1800008000
ENDCHAR
STARTCHAR 002B
ENCODING 43
SWIDTH 540 0
DWIDTH 48 0
BBX 42 46 4 6
BITMAP
000001800000
000001800000
000001800000
000003800000
000003800000
000003000000
000003000000
000003000000
000003000000
000007000000
000007000000
000006000000
000006000000
000006000000
00000E000000
00000E000000
00000E000000
00000C000000
00000C000000
00000C000000
00001C000000
00001C000000
FFFFFFFFFFC0
FFFFFFFFFFC0
000018000000
000018000000
000038000000
000038000000
000030000000
000030000000
000030000000
000030000000
000070000000
000070000000
000060000000
000060000000
000060000000
000060000000
0000E0000000
0000E0000000
0000C0000000
0000C0000000
0000C0000000
0000C0000000
0001C0000000
0001C0000000
ENDCHAR
STARTCHAR 002C
ENCODING 44
SWIDTH 180 0
DWIDTH 16 0
BBX 9 18 -2 -11
BITMAP
0380
0300
0300
0300
0700
0700
0700
0600
0600
0E00
0C00
1C00
1800
3800
7000
6000
E000
4000
ENDCHAR
STARTCHAR 002D
ENCODING 45
SWIDTH 281 0
DWIDTH 25 0
BBX 20 2 3 28
BITMAP
FFFFF0
FFFFF0
ENDCHAR
STARTCHAR 002E
ENCODING 46
SWIDTH 202 0
DWIDTH 18 0
BBX 5 5 2 0
BITMAP
20
70
F8
F8
F0
ENDCHAR
STARTCHAR 002F
ENCODING 47
SWIDTH 360 0
DWIDTH 32 0
BBX 39 68 -3 -5
BITMAP
000000000E
000000000C
000000001C
0000000018
0000000038
0000000030
0000000070
0000000060
00000000E0
00000001C0
00000001C0
0000000380
0000000300
0000000700
0000000600
0000000E00
0000000C00
0000001C00
0000001800
0000003800
0000007000
0000007000
000000E000
000000C000
000001C000
0000018000
0000038000
0000030000
0000070000
0000060000
00000E0000
00001C0000
00001C0000
0000380000
0000300000
0000700000
0000600000
0000E00000
0000C00000
0001C00000
0001800000
0003800000
0007000000
0007000000
000E000000
000C000000
001C000000
0018000000
0038000000
0030000000
0070000000
0060000000
00E0000000
01C0000000
01C0000000
0380000000
0300000000
0700000000
0600000000
0E00000000
0C00000000
1C00000000
1800000000
3800000000
7000000000
7000000000
E000000000
C000000000
ENDCHAR
STARTCHAR 0030
ENCODING 48
SWIDTH 528 0
DWIDTH 47 0
BBX 40 65 5 -1
BITMAP
00000FFC00
00007FFF00
0001FC1FC0
0003E001E0
00078000F0
000E000070
001C000038
0038000018
007000001C
006000000C
00E000000E
01C000000E
0180000006
0380000006
0300000006
0700000006
0600000006
0600000007
0E00000007
0C00000007
0C00000007
1C00000006
1800000006
1800000006
1800000006
3800000006
3800000006
300000000E
300000000E
300000000C
300000000C
700000000C
700000000C
600000001C
600000001C
6000000018
E000000018
E000000018
C000000038
C000000038
C000000030
C000000030
C000000030
C000000070
C000000060
C000000060
C0000000E0
C0000000C0
C0000000C0
C0000001C0
C000000180
C000000380
E000000300
E000000700
6000000E00
6000000E00
7000001C00
3000003800
3800007000
1C0000E000
0E0003C000
07800F8000
03FDFE0000
00FFFC0000
001FC00000
ENDCHAR
STARTCHAR 0031
ENCODING 49
SWIDTH 528 0
DWIDTH 47 0
BBX 21 63 13 0
BITMAP
000038
0001F8
0007F8
003FB8
01FC30
0FE030
7F0030
F80030
E00070
000060
000060
000060
000060
000060
0000E0
0000C0
0000C0
0000C0
0000C0
0001C0
0001C0
000180
000180
000180
000180
000380
000380
000300
000300
000300
000300
000700
000700
000600
000600
000600
000600
000E00
000E00
000C00
000C00
000C00
000C00
001C00
001800
001800
001800
001800
003800
003800
003000
003000
003000
003000
007000
007000
006000
006000
006000
006000
00E000
00E000
00C000
ENDCHAR
STARTCHAR 0032
ENCODING 50
SWIDTH 528 0
DWIDTH 47 0
BBX 41 64 2 0
BITMAP
000003FE0000
00001FFFC000
00007F0FF000
0001F0007800
0003C0003C00
000700000E00
000E00000700
001C00000700
003800000300
003000000380
007000000180
00E000000180
00E000000180
01C000000180
01C000000180
018000000180
038000000180
038000000180
030000000380
000000000380
000000000300
000000000700
000000000700
000000000E00
000000000C00
000000001C00
000000003800
000000003800
000000007000
00000000E000
00000001C000
000000038000
000000038000
000000070000
0000000E0000
0000001C0000
000000380000
000000700000
000000E00000
000001C00000
000003800000
000007000000
00000E000000
00001C000000
000038000000
000070000000
0000E0000000
0001C0000000
000380000000
000700000000
000E00000000
001C00000000
003800000000
007000000000
00E000000000
01C000000000
038000000000
070000000000
0E0000000000
1C0000000000
380000000000
700000000000
7FFFFFFFF800
FFFFFFFFF800
ENDCHAR
STARTCHAR 0033
ENCODING 51
SWIDTH 528 0
DWIDTH 47 0
BBX 42 65 3 -1
BITMAP
000003FE0000
00003FFFC000
0000FF8FF000
0001F0007800
0007C0003C00
000F00000E00
001E00000700
003800000700
003800000380
007000000380
00E000000180
00C000000180
01C0000001C0
0180000001C0
0180000001C0
0380000001C0
030000000180
000000000180
000000000180
000000000380
000000000300
000000000700
000000000700
000000000E00
000000001C00
000000003800
000000007000
00000001E000
00000003C000
0000001F8000
000007FE0000
0000FFF00000
0001FFF80000
0000007F0000
000000078000
00000001C000
00000000E000
000000007000
000000003800
000000001800
000000001C00
000000001C00
000000000C00
000000000C00
000000000C00
000000000C00
C00000000C00
C00000000C00
C00000001C00
C00000001C00
C00000001800
C00000003800
E00000003800
E00000003000
600000007000
70000000E000
30000001C000
38000003C000
1C0000078000
0E00000F0000
0780003C0000
03E000F80000
00FFFFE00000
003FFF800000
0007F8000000
ENDCHAR
STARTCHAR 0034
ENCODING 52
SWIDTH 528 0
DWIDTH 47 0
BBX 43 63 2 0
BITMAP
000000000F00
000000000F00
000000001E00
000000003E00
000000007600
00000000E600
00000001CE00
00000001CE00
000000038C00
000000070C00
0000000E0C00
0000001C0C00
0000001C1C00
000000381C00
000000701800
000000E01800
000001C01800
000003803800
000003803800
000007003800
00000E003000
00001C003000
000038003000
000070007000
000070007000
0000E0006000
0001C0006000
000380006000
000700006000
000F0000E000
000E0000E000
001C0000C000
00380000C000
00700000C000
00E00000C000
00E00001C000
01C00001C000
038000018000
070000018000
0E0000018000
1C0000018000
1C0000038000
380000038000
7FFFFFFFFFE0
FFFFFFFFFFE0
FFFFFFFFFFE0
000000070000
000000070000
000000070000
000000060000
000000060000
000000060000
0000000E0000
0000000E0000
0000000E0000
0000000C0000
0000000C0000
0000000C0000
0000001C0000
0000001C0000
000000180000
000000180000
000000180000
ENDCHAR
STARTCHAR 0035
ENCODING 53
SWIDTH 528 0
DWIDTH 47 0
BBX 42 64 6 -1
BITMAP
000FFFFFFFC0
000FFFFFFFC0
000C00000000
001C00000000
001C00000000
001800000000
001800000000
003800000000
003800000000
003000000000
003000000000
007000000000
006000000000
006000000000
006000000000
00E000000000
00C000000000
00C000000000
00C000000000
01C000000000
018000000000
018000000000
018000000000
03803E000000
0307FFF00000
031FFFFC0000
037C003E0000
07F0000F0000
07C000038000
07000001C000
02000001C000
00000000E000
000000006000
000000007000
000000007000
000000003000
000000003000
000000003000
000000003000
000000003000
000000003000
000000003000
000000003000
000000003000
000000003000
000000007000
E00000007000
C00000006000
C0000000E000
E0000000E000
E0000000C000
E0000001C000
600000018000
600000038000
700000070000
300000070000
3800000E0000
1C00001C0000
0E0000380000
0F0000F00000
07C003E00000
01FFFF800000
007FFE000000
000FF0000000
ENDCHAR
STARTCHAR 0036
ENCODING 54
SWIDTH 528 0
DWIDTH 47 0
BBX 38 65 4 -1
BITMAP
00000003F8
0000003FF8
000000FF80
000003F000
00000F8000
00003E0000
0000780000
0000E00000
0001C00000
0003800000
0007000000
000E000000
001C000000
0038000000
0030000000
0070000000
00E0000000
00C0000000
01C0000000
0180000000
0380000000
0300000000
0700020000
06007FF800
0603FFFE00
0E0FC01F00
0C3E0003C0
0C780001C0
1CE00000E0
19C0000070
1B80000030
3F00000038
3E00000018
3C00000018
380000001C
380000000C
300000000C
700000000C
700000000C
600000000C
600000000C
600000000C
600000000C
600000001C
E00000001C
E000000018
E000000018
E000000038
E000000038
6000000030
6000000070
6000000060
70000000E0
70000000C0
30000001C0
3800000380
1800000700
1C00000700
0E00001E00
0700003C00
0380007800
01E001E000
00FFBFC000
003FFF0000
0003F80000
ENDCHAR
STARTCHAR 0037
ENCODING 55
SWIDTH 528 0
DWIDTH 47 0
BBX 39 63 9 0
BITMAP
FFFFFFFFFE
FFFFFFFFFE
000000000C
000000001C
0000000018
0000000038
0000000030
0000000060
00000000E0
00000000C0
00000001C0
0000000180
0000000300
0000000700
0000000600
0000000E00
0000000C00
0000001800
0000003800
0000003000
0000007000
0000006000
000000C000
000001C000
0000018000
0000038000
0000030000
0000060000
00000E0000
00000C0000
00001C0000
0000180000
0000380000
0000300000
0000600000
0000E00000
0000C00000
0001C00000
0001800000
0003000000
0007000000
0006000000
000E000000
000C000000
0018000000
0038000000
0030000000
0070000000
0060000000
00C0000000
01C0000000
0180000000
0380000000
0300000000
0700000000
0E00000000
0C00000000
1C00000000
1800000000
3800000000
7000000000
6000000000
E000000000
ENDCHAR
STARTCHAR 0038
ENCODING 56
SWIDTH 528 0
DWIDTH 47 0
BBX 43 65 2 -1
BITMAP
000001FF8000
00000FFFF000
00003FC3F800
0000F8003E00
0001E0000F00
000780000780
000F00000380
000E000001C0
001C000000C0
0038000000E0
003000000060
007000000060
006000000060
00E000000060
00C000000060
00C000000060
00C000000060
01C000000060
01C0000000E0
01C0000000E0
01C0000000C0
01C0000001C0
00C000000180
00C000000380
00E000000700
007000000E00
003000001C00
003C00007800
001E0001F000
00078007C000
0003FFFF0000
0000FFFC0000
0003FFFE0000
001F800F8000
003C0003C000
00F00000F000
01C000007800
038000001800
070000001C00
0E0000000E00
1C0000000600
180000000600
380000000700
300000000700
700000000700
600000000700
600000000700
600000000700
E00000000600
E00000000600
E00000000E00
E00000000E00
E00000000C00
E00000001C00
600000003800
700000003800
700000007000
38000000E000
1C000003C000
1E0000078000
0F80001F0000
03E000FC0000
01FFBFF00000
007FFFC00000
0007FC000000
ENDCHAR
STARTCHAR 0039
ENCODING 57
SWIDTH 528 0
DWIDTH 47 0
BBX 38 65 6 -1
BITMAP
00003FE000
0001FFFC00
0007F87F00
001F000780
003C0003C0
00780001E0
00F00000E0
01E0000070
01C0000030
0380000038
0700000018
0600000018
0E0000001C
1C0000001C
1C0000000C
180000000C
380000000C
300000000C
300000000C
700000000C
600000000C
600000000C
600000000C
600000000C
E00000000C
E00000001C
E00000001C
E000000018
6000000018
6000000038
6000000038
6000000078
70000000F8
30000001F8
38000003B0
3800000730
1C00000E30
0E00001C70
0F00007860
078000F060
03E007E0E0
00FFFF80C0
007FFC00C0
00038001C0
0000000180
0000000380
0000000300
0000000700
0000000600
0000000E00
0000001C00
0000001C00
0000003800
0000007000
000000E000
000001C000
0000038000
0000070000
00001E0000
00007C0000
0001F00000
000FC00000
07FF000000
1FFC000000
3F80000000
ENDCHAR
STARTCHAR 003A
ENCODING 58
SWIDTH 168 0
DWIDTH 15 0
BBX 12 46 1 0
BITMAP
00F0
01F0
01F0
00E0
0040
0000
0000
0000
0000
0000
0000
0000
0000
0000
0000
0000
0000
0000
0000
0000
0000
0000
0000
0000
0000
0000
0000
0000
0000
0000
0000
0000
0000
0000
0000
0000
0000
0000
0000
0000
0000
2000
F000
F800
F000
F000
ENDCHAR
STARTCHAR 003B
ENCODING 59
SWIDTH 168 0
DWIDTH 15 0
BBX 16 57 -3 -11
BITMAP
000F
001F
001F
000E
0004
0000
0000
0000
0000
0000
0000
0000
0000
0000
0000
0000
0000
0000
0000
0000
0000
0000
0000
0000
0000
0000
0000
0000
0000
0000
0000
0000
0000
0000
0000
0000
0000
0000
0000
0180
0380
0380
0380
0300
0300
0300
0700
0600
0600
0E00
0C00
1C00
1800
3800
7000
E000
4000
ENDCHAR
STARTCHAR 003C
ENCODING 60
SWIDTH 495 0
DWIDTH 44 0
BBX 38 34 4 11
BITMAP
000000000C
000000003C
00000000F8
00000007E0
0000001F00
0000007C00
000003F000
00000F8000
00003E0000
0001F80000
0007C00000
001F000000
00FC000000
03E0000000
0F80000000
7E00000000
F000000000
F000000000
FC00000000
3F00000000
0FC0000000
03F0000000
00FC000000
003F000000
000FC00000
0003F00000
0000FC0000
00003F0000
00000FC000
000003F000
000000FC00
0000003F00
0000000F80
0000000300
ENDCHAR
STARTCHAR 003D
ENCODING 61
SWIDTH 540 0
DWIDTH 48 0
BBX 38 20 5 19
BITMAP
1FFFFFFFFC
1FFFFFFFFC
0000000000
0000000000
0000000000
0000000000
0000000000
0000000000
0000000000
0000000000
0000000000
0000000000
0000000000
0000000000
0000000000
0000000000
0000000000
0000000000
FFFFFFFFE0
FFFFFFFFE0
ENDCHAR
STARTCHAR 003E
ENCODING 62
SWIDTH 495 0
DWIDTH 44 0
BBX 39 34 2 13
BITMAP
0300000000
03C0000000
01F0000000
007C000000
001F000000
0007C00000
0001F00000
00007C0000
00001F0000
000007C000
000001F000
0000007C00
0000003F00
00000007C0
00000003F0
00000000FC
000000003E
000000003E
00000000F8
00000007E0
0000001F80
0000007C00
000001F000
00000FC000
00003E0000
0000F80000
0007E00000
001F000000
007C000000
03F0000000
0FC0000000
3E00000000
7800000000
E000000000
ENDCHAR
STARTCHAR 003F
ENCODING 63
SWIDTH 416 0
DWIDTH 37 0
BBX 30 64 8 0
BITMAP
0007FC00
003FFF00
007E0FC0
01F001E0
03C000E0
07000070
0E000038
1C000018
18000018
3800001C
7000001C
7000000C
6000000C
E000000C
C000001C
C000001C
0000001C
00000018
00000018
00000038
00000030
00000070
00000060
000000E0
000001C0
000001C0
00000380
00000700
00000E00
00001C00
00003800
00007000
0001E000
0003C000
00070000
000E0000
000C0000
001C0000
00380000
00300000
00700000
00600000
00E00000
00C00000
00C00000
01C00000
01C00000
00000000
00000000
00000000
00000000
00000000
00000000
00000000
00000000
00000000
00000000
00000000
00000000
00000000
0F000000
0F000000
1F000000
0E000000
ENDCHAR
STARTCHAR 0040
ENCODING 64
SWIDTH 900 0
DWIDTH 80 0
BBX 72 81 3 -20
BITMAP
0000000007FFF80000
000000007FFFFF0000
00000003FF80FFE000
0000000FE00003F800
0000003F0000007C00
000000FC0000001E00
000001F00000000780
000007C00000000380
00000F8000000001C0
00001E0000000000E0
00003C000000000070
000078000000000030
0000F0000000000038
0001C0000000000018
0003C000000000001C
00078000000000000C
000F0000000000000E
000E0000000000000E
001C000001FC000006
003800000FFF000006
007800003FFFC00006
00700000F801E00007
00E00001E000F00007
00E00003C000700003
01C000070000300003
01C0000E0000700003
0380001C0000600003
030000180000600003
070000380000600003
070000700000E00003
0E0000600000C00003
0E0000E00000C00007
0C0000C00000C00007
1C0001C00001C00007
1C0001800001800007
180003800001800006
380003000001800006
380007000003800006
30000700000300000E
30000600000300000E
70000E00000700000C
70000E00000700000C
60000C00000600001C
60000C000006000018
60000C00000E000018
60001C00000E000038
E0001800000C000030
E0001800001C000070
E0001800001C000070
E0001800003C0000E0
E0001800007C0000E0
E000180000780001C0
E000180000F80001C0
E000180001D8000380
E0001800039C000700
60001C00071C000E00
60000C000E0C001E00
60000E001C0E003C00
70000700780700F800
700007E7F007FFE000
700001FFC003FFC000
3000007E00007E0000
380000000000000000
380000000000000000
180000000000000000
1C0000000000000000
1C0000000000000000
0E0000000000000000
0F0000000000000000
070000000000000000
038000000000000000
03C000000000000000
01E000000000000000
00F000000000000000
007C00000000000000
003E00000060000000
000F800003E0000000
0007F8001FC0000000
0000FFFFFF00000000
00003FFFF800000000
000000FC0000000000
ENDCHAR
STARTCHAR 0041
ENCODING 65
SWIDTH 573 0
DWIDTH 51 0
BBX 49 63 -3 0
BITMAP
00000000780000
00000000780000
00000000F80000
00000000D80000
00000001D80000
000000019C0000
000000039C0000
000000030C0000
000000070C0000
000000060C0000
0000000E0E0000
0000001C0E0000
00000018060000
00000038060000
00000030060000
00000070070000
00000060070000
000000E0070000
000000C0030000
000001C0030000
00000180030000
00000380038000
00000300038000
00000700018000
00000E00018000
00000E00018000
00001C0001C000
0000180001C000
0000380000C000
0000300000C000
0000700000C000
0000600000E000
0000E00000E000
0000C000006000
0001C000006000
00018000006000
00038000007000
00030000007000
00070000007000
000E0000003000
000E0000003000
001C0000003800
001FFFFFFFF800
003FFFFFFFF800
00300000001800
00700000001800
00600000001800
00E00000001C00
00C00000001C00
01C00000000C00
01800000000C00
03800000000C00
07000000000E00
07000000000E00
0E000000000600
0E000000000600
1C000000000600
18000000000700
38000000000700
30000000000700
70000000000300
60000000000300
E0000000000380
ENDCHAR
STARTCHAR 0042
ENCODING 66
SWIDTH 585 0
DWIDTH 52 0
BBX 45 63 4 0
BITMAP
001FFFFF8000
001FFFFFF000
00380001FC00
003800001F00
003000000780
0030000001C0
0030000000E0
003000000060
007000000070
007000000030
006000000030
006000000030
006000000038
00E000000038
00E000000030
00C000000030
00C000000030
00C000000030
00C000000070
01C000000060
01C0000000E0
0180000000E0
0180000001C0
018000000380
018000000780
038000000F00
038000001C00
030000007800
03000003E000
03FFFFFF8000
03FFFFFF0000
07FFFFFFE000
07000001F000
060000007C00
060000001E00
060000000F00
0E0000000700
0E0000000380
0E0000000180
0C00000001C0
0C00000000C0
0C00000000C0
1C00000000C0
1C00000000C0
1800000000C0
1800000000C0
1800000001C0
1800000001C0
380000000180
380000000380
300000000380
300000000700
300000000700
300000000E00
700000001C00
700000003800
600000007800
60000000F000
60000003C000
6000001F8000
E00003FE0000
FFFFFFF80000
FFFFFF800000
ENDCHAR
STARTCHAR 0043
ENCODING 67
SWIDTH 618 0
DWIDTH 55 0
BBX 47 65 6 -1
BITMAP
000001FFC000
00000FFFF800
00003FC0FE00
0000FC000F80
0001E00003C0
0003C00001E0
000F00000070
001E00000070
001C00000038
003800000018
00700000001C
00E00000000C
00C00000000E
01C00000000E
038000000006
038000000006
070000000006
060000000006
0E0000000006
0E0000000006
0C0000000000
1C0000000000
1C0000000000
180000000000
380000000000
380000000000
300000000000
300000000000
300000000000
700000000000
700000000000
700000000000
600000000000
600000000000
600000000000
E00000000000
E00000000000
C00000000000
C00000000000
C00000000000
C00000000000
C00000000000
C00000000000
C00000000000
C00000000000
C000000000E0
C000000000C0
C000000000C0
C000000001C0
E00000000180
E00000000380
600000000300
700000000700
700000000E00
300000001C00
380000001C00
1C0000003800
1C0000007000
0E000001E000
07000003C000
03C0000F0000
01F0007E0000
00FFBFF80000
003FFFE00000
0003FC000000
ENDCHAR
STARTCHAR 0044
ENCODING 68
SWIDTH 630 0
DWIDTH 56 0
BBX 49 63 4 0
BITMAP
001FFFFF800000
003FFFFFF00000
00380001FC0000
003800001F0000
00300000078000
0030000001C000
0030000000E000
00700000007000
00700000003800
00600000001800
00600000001C00
00600000000C00
00600000000E00
00E00000000600
00E00000000700
00C00000000700
00C00000000300
00C00000000300
00C00000000300
01C00000000380
01C00000000380
01800000000380
01800000000380
01800000000380
01800000000380
03800000000380
03800000000380
03000000000300
03000000000300
03000000000300
07000000000700
07000000000700
07000000000700
06000000000600
06000000000600
06000000000600
0E000000000E00
0E000000000E00
0C000000000C00
0C000000000C00
0C000000001C00
0C000000001800
1C000000003800
1C000000003800
18000000007000
18000000007000
1800000000E000
1800000000E000
3800000001C000
38000000038000
30000000038000
30000000070000
300000000E0000
300000001C0000
70000000380000
70000000F00000
60000001E00000
60000007C00000
6000001F000000
6000007C000000
E0001FF8000000
FFFFFFC0000000
FFFFFC00000000
ENDCHAR
STARTCHAR 0045
ENCODING 69
SWIDTH 551 0
DWIDTH 49 0
BBX 48 63 4 0
BITMAP
001FFFFFFFFF
003FFFFFFFFF
003800000000
003800000000
003000000000
003000000000
003000000000
007000000000
007000000000
006000000000
006000000000
006000000000
006000000000
00E000000000
00E000000000
00C000000000
00C000000000
00C000000000
00C000000000
01C000000000
01C000000000
018000000000
018000000000
018000000000
018000000000
038000000000
038000000000
030000000000
030000000000
03FFFFFFFE00
07FFFFFFFE00
07FFFFFFFC00
070000000000
060000000000
060000000000
060000000000
0E0000000000
0E0000000000
0C0000000000
0C0000000000
0C0000000000
0C0000000000
1C0000000000
1C0000000000
180000000000
180000000000
180000000000
180000000000
380000000000
380000000000
300000000000
300000000000
300000000000
300000000000
700000000000
700000000000
600000000000
600000000000
600000000000
600000000000
E00000000000
FFFFFFFFFC00
FFFFFFFFF800
ENDCHAR
STARTCHAR 0046
ENCODING 70
SWIDTH 551 0
DWIDTH 49 0
BBX 49 63 4 0
BITMAP
001FFFFFFFFF80
003FFFFFFFFF80
00380000000000
00380000000000
00300000000000
00300000000000
00300000000000
00700000000000
00700000000000
00600000000000
00600000000000
00600000000000
00600000000000
00E00000000000
00E00000000000
00C00000000000
00C00000000000
00C00000000000
00C00000000000
01C00000000000
01C00000000000
01800000000000
01800000000000
01800000000000
01800000000000
03800000000000
03800000000000
03000000000000
03000000000000
03FFFFFFFE0000
07FFFFFFFE0000
07FFFFFFFE0000
07000000000000
06000000000000
06000000000000
06000000000000
0E000000000000
0E000000000000
0C000000000000
0C000000000000
0C000000000000
0C000000000000
1C000000000000
1C000000000000
18000000000000
18000000000000
18000000000000
18000000000000
38000000000000
38000000000000
30000000000000
30000000000000
30000000000000
30000000000000
70000000000000
70000000000000
60000000000000
60000000000000
60000000000000
60000000000000
E0000000000000
E0000000000000
C0000000000000
ENDCHAR
STARTCHAR 0047
ENCODING 71
SWIDTH 663 0
DWIDTH 59 0
BBX 48 65 7 -1
BITMAP
000000FFE000
000007FFFC00
00003FC0FF00
00007C0007C0
0001F00001E0
0003C00000F0
000700000078
000E00000038
001C0000001C
00380000000C
00700000000E
00E000000006
00C000000007
01C000000007
038000000007
030000000003
070000000003
060000000003
0E0000000000
0C0000000000
0C0000000000
1C0000000000
180000000000
180000000000
380000000000
380000000000
300000000000
300000000000
300000000000
300000000000
700000000000
700000000000
600000000000
600000000000
600000000000
E00000FFFFF8
E00000FFFFF8
C00000FFFFF8
C00000000038
C00000000030
C00000000030
C00000000030
C00000000070
C00000000070
C00000000070
C00000000060
C00000000060
C00000000060
E000000000E0
E000000000E0
6000000000E0
7000000000C0
7000000000C0
3000000000C0
3800000001C0
1800000001C0
1C00000001C0
0E0000000780
070000000F00
038000003E00
01E00000FC00
00F8000FF000
007FEFFFC000
001FFFFC0000
0001FF800000
ENDCHAR
STARTCHAR 0048
ENCODING 72
SWIDTH 675 0
DWIDTH 60 0
BBX 54 63 4 0
BITMAP
0018000000000C
0038000000000C
0038000000000C
0038000000000C
0030000000001C
0030000000001C
00300000000018
00700000000018
00700000000018
00600000000018
00600000000038
00600000000038
00600000000030
00E00000000030
00E00000000030
00C00000000030
00C00000000070
00C00000000070
00C00000000060
01C00000000060
01C00000000060
01800000000060
018000000000E0
018000000000C0
018000000000C0
038000000000C0
038000000000C0
030000000001C0
030000000001C0
03FFFFFFFFFF80
07FFFFFFFFFF80
07FFFFFFFFFF80
07000000000180
06000000000380
06000000000380
06000000000300
0E000000000300
0E000000000300
0C000000000300
0C000000000700
0C000000000700
0C000000000600
1C000000000600
1C000000000600
18000000000600
18000000000E00
18000000000E00
18000000000C00
38000000000C00
38000000000C00
30000000000C00
30000000001C00
30000000001C00
30000000001800
70000000001800
70000000001800
60000000003800
60000000003800
60000000003000
60000000003000
E0000000003000
E0000000003000
C0000000007000
ENDCHAR
STARTCHAR 0049
ENCODING 73
SWIDTH 247 0
DWIDTH 22 0
BBX 13 63 6 0
BITMAP
0038
0038
0030
0030
0030
0030
0070
0070
0060
0060
0060
00E0
00E0
00C0
00C0
00C0
00C0
01C0
01C0
0180
0180
0180
0180
0380
0380
0300
0300
0300
0300
0700
0700
0600
0600
0600
0600
0E00
0E00
0C00
0C00
0C00
1C00
1C00
1800
1800
1800
1800
3800
3800
3000
3000
3000
3000
7000
7000
6000
6000
6000
6000
E000
E000
C000
C000
C000
ENDCHAR
STARTCHAR 004A
ENCODING 74
SWIDTH 528 0
DWIDTH 47 0
BBX 44 64 2 -1
BITMAP
000000000070
000000000060
000000000060
000000000060
0000000000E0
0000000000E0
0000000000C0
0000000000C0
0000000000C0
0000000000C0
0000000001C0
0000000001C0
000000000180
000000000180
000000000180
000000000180
000000000380
000000000380
000000000300
000000000300
000000000300
000000000700
000000000700
000000000700
000000000600
000000000600
000000000600
000000000E00
000000000E00
000000000E00
000000000C00
000000000C00
000000000C00
000000001C00
000000001C00
000000001800
000000001800
000000001800
000000001800
000000003800
000000003800
000000003000
000000003000
000000003000
000000007000
000000007000
C00000006000
C00000006000
C0000000E000
C0000000C000
C0000001C000
C0000001C000
E00000038000
E00000030000
600000070000
7000000E0000
7000001C0000
380000380000
1C0000700000
1E0001E00000
0F8007C00000
03FDFF000000
00FFFC000000
001FE0000000
ENDCHAR
STARTCHAR 004B
ENCODING 75
SWIDTH 607 0
DWIDTH 54 0
BBX 52 63 4 0
BITMAP
001800000000F0
003800000001C0
00380000000780
00380000000F00
00300000001E00
00300000003C00
00300000007800
0070000000E000
0070000001C000
00600000078000
006000000F0000
006000001E0000
006000003C0000
00E00000780000
00E00000E00000
00C00001C00000
00C00007800000
00C0000F000000
00C0001E000000
01C0003C000000
01C00078000000
018000E0000000
018001C0000000
01800380000000
01800F00000000
03801E00000000
03803C00000000
03007800000000
0300F000000000
0301F800000000
0707B800000000
070F1C00000000
071E0E00000000
06380E00000000
06700700000000
06E00380000000
0FC00380000000
0F0001C0000000
0E0000E0000000
0C0000E0000000
0C000070000000
0C000038000000
1C000038000000
1C00001C000000
1800000E000000
1800000E000000
18000007000000
18000003800000
38000003800000
38000001C00000
30000000E00000
30000000600000
30000000700000
30000000380000
70000000180000
700000001C0000
600000000E0000
60000000060000
60000000070000
60000000038000
E000000001C000
E000000001C000
C000000000E000
ENDCHAR
STARTCHAR 004C
ENCODING 76
SWIDTH 495 0
DWIDTH 44 0
BBX 34 63 4 0
BITMAP
0018000000
0038000000
0038000000
0038000000
0030000000
0030000000
0030000000
0070000000
0070000000
0070000000
0060000000
0060000000
0060000000
00E0000000
00E0000000
00C0000000
00C0000000
00C0000000
00C0000000
01C0000000
01C0000000
0180000000
0180000000
0180000000
0180000000
0380000000
0380000000
0300000000
0300000000
0300000000
0700000000
0700000000
0700000000
0600000000
0600000000
0600000000
0E00000000
0E00000000
0E00000000
0C00000000
0C00000000
0C00000000
1C00000000
1C00000000
1800000000
1800000000
1800000000
1800000000
3800000000
3800000000
3000000000
3000000000
3000000000
3000000000
7000000000
7000000000
6000000000
6000000000
6000000000
6000000000
E000000000
FFFFFFFFC0
FFFFFFFFC0
ENDCHAR
STARTCHAR 004D
ENCODING 77
SWIDTH 821 0
DWIDTH 73 0
BBX 68 63 4 0
BITMAP
001C000000000000F0
003C000000000000F0
003E000000000001F0
003E000000000003E0
003600000000000360
003600000000000760
0037000000000006E0
007700000000000EE0
007300000000001CC0
0063000000000018C0
0063800000000038C0
0063800000000030C0
0061800000000071C0
00E18000000000E1C0
00E1C000000000C180
00C0C000000001C180
00C0C0000000018180
00C0C0000000038180
00C0E0000000070380
01C060000000060380
01C0600000000E0300
0180600000000C0300
0180700000001C0300
018030000000380300
018030000000300700
038030000000700700
038038000000600600
030018000000E00600
030018000001C00600
030018000001800E00
07001C000003800E00
07000C000003000E00
07000C000007000C00
06000C00000E000C00
06000E00000C000C00
06000600001C001C00
0E0006000018001C00
0E0006000038001800
0C0007000070001800
0C0003000060001800
0C00030000E0001800
0C00030000C0003800
1C00038001C0003800
1C0001800380003000
180001800380003000
180001800700003000
180001C00600003000
180000C00E00007000
380000C01C00007000
380000C01C00006000
300000E03800006000
300000603000006000
300000607000006000
30000060E00000E000
70000070E00000E000
70000031C00000C000
60000031800000C000
60000033800000C000
6000003F000001C000
6000001F000001C000
E000001E000001C000
E000001C0000018000
C000001C0000018000
ENDCHAR
STARTCHAR 004E
ENCODING 78
SWIDTH 686 0
DWIDTH 61 0
BBX 55 63 4 0
BITMAP
00180000000006
003C000000000E
003C000000000E
003E000000000C
0036000000000C
0037000000000C
0033000000000C
0073800000001C
0071800000001C
0071C000000018
0060C000000018
0060E000000018
00606000000038
00E07000000038
00E03000000038
00E03800000030
00C01800000030
00C01C00000030
00C00C00000070
01C00E00000070
01C00600000060
01C00700000060
01800300000060
01800380000060
038001800000E0
038001C00000E0
038000C00000C0
030000E00000C0
030000600000C0
030000700000C0
070000300001C0
070000380001C0
07000018000180
0600001C000180
0600000C000180
0600000E000380
0E000006000380
0E000007000380
0E000003000300
0C000003800300
0C000001800300
0C000001C00700
1C000000C00700
1C000000E00700
1C000000600600
18000000700600
18000000300600
18000000380E00
38000000180E00
380000001C0E00
300000000C0C00
300000000E0C00
30000000060C00
30000000071C00
70000000031C00
70000000039800
60000000019800
6000000001D800
6000000000D800
E000000000F800
E0000000007800
E0000000007000
C0000000003000
ENDCHAR
STARTCHAR 004F
ENCODING 79
SWIDTH 641 0
DWIDTH 57 0
BBX 49 65 5 -1
BITMAP
0000007FE00000
000007FFFC0000
00001FE07F0000
00007E0007C000
0000F00001E000
0003C00000F000
00078000007800
000F0000003800
001E0000001C00
003C0000000C00
00380000000E00
00700000000600
00E00000000700
00C00000000300
01C00000000300
03800000000300
03800000000380
03000000000180
07000000000180
06000000000180
0E000000000180
0C000000000180
0C000000000180
1C000000000180
18000000000180
18000000000180
18000000000380
38000000000380
38000000000380
30000000000300
30000000000300
30000000000300
30000000000700
70000000000700
70000000000700
60000000000600
60000000000600
60000000000600
60000000000E00
E0000000000E00
E0000000000C00
E0000000000C00
E0000000001C00
E0000000001800
E0000000001800
E0000000003800
E0000000003000
60000000007000
60000000006000
6000000000E000
7000000000C000
7000000001C000
30000000038000
38000000070000
18000000070000
1C0000000E0000
0C0000001C0000
0E000000780000
07000000F00000
03800001E00000
01E00007800000
00F8003F000000
003FEFFC000000
000FFFF0000000
0001FF00000000
ENDCHAR
STARTCHAR 0050
ENCODING 80
SWIDTH 573 0
DWIDTH 51 0
BBX 47 63 4 0
BITMAP
001FFFFFE000
001FFFFFFC00
003800007F00
0038000007C0
0030000001E0
0030000000F0
003000000078
003000000038
00700000001C
00700000000C
00600000000C
00600000000E
00600000000E
00E000000006
00E000000006
00C000000006
00C000000006
00C00000000E
00C00000000E
01C00000000C
01C00000000C
01800000001C
01800000001C
018000000018
018000000038
038000000070
038000000070
0300000000E0
0300000001C0
030000000380
030000000F00
070000003E00
07000000FC00
0600000FF000
07FFFFFFC000
07FFFFFC0000
0E0000000000
0E0000000000
0E0000000000
0C0000000000
0C0000000000
0C0000000000
1C0000000000
1C0000000000
180000000000
180000000000
180000000000
180000000000
380000000000
380000000000
300000000000
300000000000
300000000000
300000000000
700000000000
700000000000
600000000000
600000000000
600000000000
600000000000
E00000000000
E00000000000
C00000000000
ENDCHAR
STARTCHAR 0051
ENCODING 81
SWIDTH 641 0
DWIDTH 57 0
BBX 49 75 5 -11
BITMAP
0000007FE00000
000007FFFC0000
00001FE07F0000
00007E0007C000
0000F00001E000
0003C00000F000
00078000007800
000F0000003800
001E0000001C00
003C0000000C00
00380000000E00
00700000000600
00E00000000700
00C00000000300
01C00000000300
03800000000300
03800000000380
03000000000180
07000000000180
06000000000180
0E000000000180
0C000000000180
0C000000000180
1C000000000180
18000000000180
18000000000180
18000000000380
38000000000380
38000000000380
30000000000300
30000000000300
30000000000300
30000000000700
70000000000700
70000000000700
60000000000600
60000000000600
60000000000600
60000000000E00
E0000000000E00
E0000000000C00
E0000000000C00
E0000000001C00
E0000000001800
E0000000001800
E0000000003800
E0000000003000
60000000007000
60000000006000
6000000000E000
7000000000C000
7000000001C000
30000000038000
38000000070000
18000000070000
1C0000000E0000
0C0000001C0000
0E000000780000
07000000F00000
03800001E00000
01E00007800000
00F8003F000000
003FEFFC000000
000FFFFC000000
0001FF0E000000
00000007000000
00000003800000
00000003C00000
00000001C00000
00000000E00000
00000000700000
00000000380000
000000001C0000
000000000E0000
000000000C0000
ENDCHAR
STARTCHAR 0052
ENCODING 82
SWIDTH 630 0
DWIDTH 56 0
BBX 47 63 4 0
BITMAP
003FFFFFF000
003FFFFFFC00
003800007F80
0030000007C0
0030000001E0
003000000070
007000000038
00700000001C
00600000001C
00600000000E
00600000000E
006000000006
00E000000006
00E000000006
00C000000006
00C000000006
00C000000006
00C000000006
01C000000006
01C000000006
01800000000E
01800000000C
01800000001C
01800000001C
038000000038
038000000030
030000000070
0300000000E0
0300000001C0
070000000380
070000000F00
070000001E00
06000000F800
0600000FE000
07FFFFFF8000
0FFFFFFC0000
0E00000E0000
0C0000060000
0C0000070000
0C0000070000
0C0000038000
1C0000038000
1C0000018000
18000001C000
18000000C000
18000000E000
18000000E000
380000007000
380000007000
300000003000
300000003800
300000001800
300000001C00
700000000C00
700000000E00
600000000E00
600000000700
600000000700
600000000300
E00000000380
C00000000180
C000000001C0
C000000001C0
ENDCHAR
STARTCHAR 0053
ENCODING 83
SWIDTH 573 0
DWIDTH 51 0
BBX 48 65 2 -1
BITMAP
0000007FF000
000007FFFE00
00001FF03F80
00007E0003C0
0001F00000F0
0003C0000078
000700000038
000E0000001C
001C0000000E
003800000006
007000000007
007000000007
006000000003
00E000000003
00C000000003
00C000000003
00C000000003
00C000000003
00C000000003
00C000000000
00C000000000
00E000000000
006000000000
007000000000
003800000000
001C00000000
000F00000000
0007C0000000
0001F0000000
0000FE000000
00001FC00000
000007F80000
000000FF0000
0000001FC000
00000003F000
000000007C00
000000001E00
000000000F00
000000000380
0000000001C0
0000000000C0
0000000000E0
000000000060
000000000070
000000000070
000000000070
E00000000070
E00000000070
E00000000070
E00000000060
E00000000060
6000000000E0
6000000000E0
6000000001C0
7000000001C0
300000000380
380000000700
1C0000000E00
0E0000003C00
070000007800
03C00001F000
01F8000FC000
007FF7FF0000
001FFFF80000
0001FF800000
ENDCHAR
STARTCHAR 0054
ENCODING 84
SWIDTH 573 0
DWIDTH 51 0
BBX 48 63 8 0
BITMAP
7FFFFFFFFFFF
FFFFFFFFFFFE
000001800000
000003800000
000003800000
000003000000
000003000000
000003000000
000003000000
000007000000
000007000000
000006000000
000006000000
000006000000
00000E000000
00000E000000
00000C000000
00000C000000
00000C000000
00000C000000
00001C000000
00001C000000
000018000000
000018000000
000018000000
000018000000
000038000000
000038000000
000030000000
000030000000
000030000000
000030000000
000070000000
000070000000
000060000000
000060000000
000060000000
000060000000
0000E0000000
0000E0000000
0000C0000000
0000C0000000
0000C0000000
0001C0000000
0001C0000000
000180000000
000180000000
000180000000
000180000000
000380000000
000380000000
000300000000
000300000000
000300000000
000300000000
000700000000
000700000000
000600000000
000600000000
000600000000
000600000000
000E00000000
000E00000000
ENDCHAR
STARTCHAR 0055
ENCODING 85
SWIDTH 641 0
DWIDTH 57 0
BBX 50 64 6 -1
BITMAP
00C000000000C0
00C000000001C0
00C000000001C0
00C00000000180
01C00000000180
01C00000000180
01800000000180
01800000000380
01800000000380
03800000000300
03800000000300
03000000000300
03000000000300
03000000000700
03000000000700
07000000000600
07000000000600
06000000000600
06000000000600
06000000000E00
06000000000E00
0E000000000C00
0E000000000C00
0C000000000C00
0C000000000C00
0C000000001C00
0C000000001C00
1C000000001800
1C000000001800
18000000001800
18000000003800
18000000003800
18000000003800
38000000003000
38000000003000
30000000003000
30000000007000
30000000007000
70000000006000
70000000006000
60000000006000
60000000006000
6000000000E000
6000000000E000
6000000000C000
E000000000C000
E000000001C000
E0000000018000
60000000018000
60000000038000
60000000070000
70000000070000
700000000E0000
300000001C0000
380000001C0000
18000000380000
1C000000F00000
0E000001E00000
07000003C00000
03C0000F800000
01F0007E000000
00FFDFF8000000
003FFFE0000000
0003FE00000000
ENDCHAR
STARTCHAR 0056
ENCODING 86
SWIDTH 573 0
DWIDTH 51 0
BBX 49 63 7 0
BITMAP
E0000000000380
60000000000700
60000000000700
60000000000E00
70000000000E00
70000000001C00
30000000001800
30000000003800
38000000003000
38000000007000
38000000006000
1800000000E000
1800000000C000
1C00000001C000
1C000000018000
0C000000038000
0C000000030000
0C000000070000
0E000000060000
0E0000000E0000
060000000C0000
060000001C0000
06000000180000
07000000380000
07000000300000
03000000700000
03000000E00000
03000000E00000
03800001C00000
03800001C00000
01800003800000
01800003800000
01800007000000
01C00006000000
01C0000E000000
00C0000C000000
00C0001C000000
00C00018000000
00E00038000000
00E00030000000
00600070000000
00600060000000
007000E0000000
007000C0000000
003001C0000000
00300180000000
00300380000000
00380300000000
00380700000000
00180600000000
00180E00000000
00180C00000000
001C1C00000000
001C1800000000
000C3800000000
000C3000000000
000C7000000000
000E6000000000
000EE000000000
0006C000000000
00078000000000
00078000000000
00070000000000
ENDCHAR
STARTCHAR 0057
ENCODING 87
SWIDTH 877 0
DWIDTH 78 0
BBX 73 63 8 0
BITMAP
E00000001C0000000380
600000001C0000000380
600000003E0000000300
600000003E0000000700
600000007E0000000600
60000000760000000E00
70000000660000000E00
70000000E60000000C00
70000000C60000001C00
70000001C60000001800
70000001870000003800
30000003830000003000
30000003030000007000
30000007030000007000
30000006030000006000
3800000E03000000E000
3800000E03000000C000
3800000C03800001C000
3800001C03800001C000
38000018018000018000
18000038018000038000
18000030018000030000
18000070018000070000
18000060018000060000
180000E001C0000E0000
1C0000C001C0000E0000
1C0001C000C0000C0000
1C0001C000C0001C0000
1C00018000C000180000
0C00038000C000380000
0C00030000C000380000
0C00070000E000300000
0C00060000E000700000
0C000E0000E000600000
0E000C00006000E00000
0E001C00006000C00000
0E001C00006000C00000
0E003800006001C00000
0E003800007001800000
06003000007003800000
06007000007003000000
06006000003007000000
0600E000003007000000
0600C000003006000000
0701C00000300E000000
0701C00000300C000000
0703800000381C000000
07038000003818000000
03030000003818000000
03070000001838000000
03060000001830000000
030E0000001870000000
030C0000001860000000
039C00000018E0000000
039C0000001CE0000000
03980000001CC0000000
03B80000000DC0000000
01B00000000D80000000
01F00000000F80000000
01E00000000F00000000
01E00000000F00000000
01C00000000F00000000
01C00000000E00000000
ENDCHAR
STARTCHAR 0058
ENCODING 88
SWIDTH 573 0
DWIDTH 51 0
BBX 55 63 -1 0
BITMAP
0038000000000E
001C000000001C
001C0000000038
000E0000000070
000E00000000E0
000700000001C0
000700000001C0
00038000000380
00038000000700
0001C000000E00
0000C000001C00
0000E000003800
00006000003800
00007000007000
0000300000E000
0000380001C000
00001800038000
00001C00070000
00000C00070000
00000E000E0000
000006001C0000
00000700380000
00000380700000
00000380E00000
000001C0E00000
000000C1C00000
000000E3800000
00000067000000
0000007E000000
0000003C000000
00000038000000
00000078000000
0000007C000000
000000EE000000
000001CE000000
00000387000000
00000703000000
00000E03800000
00000E01800000
00001C01C00000
00003800C00000
00007000E00000
0000E000600000
0001C000700000
0001C000300000
00038000380000
00070000180000
000E00001C0000
001C00000C0000
003800000E0000
00380000070000
00700000070000
00E00000038000
01C00000038000
0380000001C000
0700000001C000
0700000000E000
0E000000006000
1C000000007000
38000000003000
70000000003800
E0000000001800
E0000000001C00
ENDCHAR
STARTCHAR 0059
ENCODING 89
SWIDTH 573 0
DWIDTH 51 0
BBX 48 63 8 0
BITMAP
E00000000007
E0000000000E
70000000001C
70000000001C
380000000038
380000000070
1800000000E0
1C00000000E0
1C00000001C0
0E0000000380
0E0000000700
060000000700
070000000E00
030000001C00
038000003800
038000003000
018000007000
01C00000E000
00C00001C000
00E000018000
00E000038000
006000070000
0070000E0000
0030000C0000
0038001C0000
001800380000
001800700000
001C00600000
000C00E00000
000E01C00000
000603800000
000603000000
000307000000
00030E000000
00039C000000
000198000000
0001B0000000
0000F0000000
0000E0000000
0000C0000000
0000C0000000
0000C0000000
0000C0000000
0001C0000000
0001C0000000
000180000000
000180000000
000180000000
000380000000
000380000000
000380000000
000300000000
000300000000
000300000000
000700000000
000700000000
000600000000
000600000000
000600000000
000600000000
000E00000000
000E00000000
000C00000000
ENDCHAR
STARTCHAR 005A
ENCODING 90
SWIDTH 573 0
DWIDTH 51 0
BBX 53 63 0 0
BITMAP
000FFFFFFFFFF8
000FFFFFFFFFF0
00000000000070
000000000000E0
000000000001C0
00000000000380
00000000000700
00000000000600
00000000000E00
00000000001C00
00000000003800
00000000007000
0000000000E000
0000000000C000
0000000001C000
00000000038000
00000000070000
000000000E0000
000000001C0000
00000000380000
00000000380000
00000000700000
00000000E00000
00000001C00000
00000003800000
00000007000000
00000007000000
0000000E000000
0000001C000000
00000038000000
00000070000000
000000E0000000
000000E0000000
000001C0000000
00000380000000
00000700000000
00000E00000000
00001C00000000
00001C00000000
00003800000000
00007000000000
0000E000000000
0001C000000000
00038000000000
00038000000000
00070000000000
000E0000000000
001C0000000000
00380000000000
00700000000000
00700000000000
00E00000000000
01C00000000000
03800000000000
07000000000000
0E000000000000
0E000000000000
1C000000000000
38000000000000
70000000000000
E0000000000000
FFFFFFFFFFE000
FFFFFFFFFFE000
ENDCHAR
STARTCHAR 005B
ENCODING 91
SWIDTH 202 0
DWIDTH 18 0
BBX 26 86 1 -14
BITMAP
0003FFC0
0003FFC0
00070000
00070000
00060000
00060000
00060000
00060000
000E0000
000E0000
000C0000
000C0000
000C0000
000C0000
001C0000
001C0000
001C0000
00180000
00180000
00180000
00180000
00380000
00380000
00300000
00300000
00300000
00300000
00700000
00700000
00700000
00600000
00600000
00600000
00600000
00E00000
00E00000
00C00000
00C00000
00C00000
00C00000
01C00000
01C00000
01800000
01800000
01800000
01800000
03800000
03800000
03800000
03000000
03000000
03000000
03000000
07000000
07000000
06000000
06000000
06000000
06000000
0E000000
0E000000
0E000000
0C000000
0C000000
0C000000
0C000000
1C000000
1C000000
18000000
18000000
18000000
18000000
38000000
38000000
30000000
30000000
30000000
30000000
70000000
70000000
70000000
60000000
60000000
7FF80000
7FF80000
FFF00000
ENDCHAR
STARTCHAR 005C
ENCODING 92
SWIDTH 360 0
DWIDTH 32 0
BBX 16 68 9 -5
BITMAP
C000
E000
E000
6000
6000
6000
7000
7000
3000
3000
3000
3800
3800
1800
1800
1800
1C00
1C00
0C00
0C00
0C00
0E00
0E00
0600
0600
0600
0700
0700
0300
0300
0300
0380
0380
0180
0180
0180
01C0
01C0
00C0
00C0
00C0
00E0
00E0
0060
0060
0060
0070
0070
0030
0030
0030
0038
0038
0018
0018
0018
001C
001C
000C
000C
000C
000E
000E
0006
0006
0006
0007
0007
ENDCHAR
STARTCHAR 005D
ENCODING 93
SWIDTH 202 0
DWIDTH 18 0
BBX 26 86 -7 -14
BITMAP
0003FFC0
0003FFC0
00000180
00000180
00000180
00000180
00000380
00000380
00000300
00000300
00000300
00000300
00000700
00000700
00000700
00000600
00000600
00000600
00000E00
00000E00
00000E00
00000C00
00000C00
00000C00
00000C00
00001C00
00001C00
00001C00
00001800
00001800
00001800
00003800
00003800
00003800
00003000
00003000
00003000
00003000
00007000
00007000
00006000
00006000
00006000
00006000
0000E000
0000E000
0000E000
0000C000
0000C000
0000C000
0000C000
0001C000
0001C000
00018000
00018000
00018000
00018000
00038000
00038000
00038000
00030000
00030000
00030000
00070000
00070000
00070000
00060000
00060000
00060000
00060000
000E0000
000E0000
000C0000
000C0000
000C0000
000C0000
001C0000
001C0000
001C0000
00180000
00180000
00180000
00180000
7FF80000
7FF80000
FFF00000
ENDCHAR
STARTCHAR 005E
ENCODING 94
SWIDTH 393 0
DWIDTH 35 0
BBX 27 31 5 32
BITMAP
00007000
00007000
0000F800
0000F800
0001D800
00019800
00031C00
00071C00
00060C00
000E0C00
000C0C00
001C0E00
00180E00
00380600
00700600
00600700
00E00700
00C00300
01C00300
01800380
03800380
07000380
06000180
0E000180
0C0001C0
1C0001C0
180000C0
380000C0
700000E0
600000E0
E00000E0
ENDCHAR
STARTCHAR 005F
ENCODING 95
SWIDTH 393 0
DWIDTH 35 0
BBX 36 2 -5 -2
BITMAP
FFFFFFFFF0
FFFFFFFFF0
ENDCHAR
STARTCHAR 0060
ENCODING 96
SWIDTH 247 0
DWIDTH 22 0
BBX 8 12 13 55
BITMAP
C0
E0
60
70
38
18
1C
0C
0E
06
07
03
ENDCHAR
STARTCHAR 0061
ENCODING 97
SWIDTH 506 0
DWIDTH 45 0
BBX 39 49 1 -1
BITMAP
000007F000
00007FFF00
0001FFFF80
0007C003E0
001F0000F0
003C000078
0078000038
00F000001C
00E000000C
01C000000C
018000000C
038000000E
030000000E
030000000C
000000000C
000000000C
000000000C
000000000C
000000001C
000000001C
0000000018
0000000018
00007FFFF8
0007FFFFF8
003FF00038
00FE000038
01F0000030
07C0000030
0F00000030
1E00000030
1C00000070
3800000070
7000000060
7000000060
6000000060
E0000000E0
E0000000E0
E0000001C0
E0000003C0
E0000007C0
E000000EC0
6000001DC0
70000079C0
380000F1C0
3C0003E1C0
1F000F81C0
0FF3FE01C0
03FFF801C0
007F800000
ENDCHAR
STARTCHAR 0062
ENCODING 98
SWIDTH 528 0
DWIDTH 47 0
BBX 39 68 3 -1
BITMAP
0018000000
0018000000
0018000000
0018000000
0038000000
0038000000
0030000000
0030000000
0030000000
0030000000
0070000000
0070000000
0060000000
0060000000
0060000000
0060000000
00E0000000
00E0000000
00C0000000
00C003F800
00C01FFF00
01C0FFFF80
01C1F001E0
01C78000E0
018F000070
019C000038
01B8000018
03F000001C
03E000000C
03C000000C
038000000E
038000000E
0300000006
0700000006
0700000006
0600000006
0600000006
0600000006
0600000006
0E00000006
0E00000006
0C00000006
0C0000000E
0C0000000E
0C0000000C
1C0000000C
1C0000000C
180000001C
180000001C
1800000018
3800000038
3800000038
3000000030
3000000070
3000000060
30000000E0
70000000C0
70000001C0
7800000380
7800000380
6C00000700
6E00000E00
E700001C00
E3C0007800
C1F001F000
C07FBFC000
C01FFF8000
0003F80000
ENDCHAR
STARTCHAR 0063
ENCODING 99
SWIDTH 483 0
DWIDTH 43 0
BBX 38 49 3 -1
BITMAP
00001FC000
0000FFFC00
0003FFFE00
000F800F80
001E0003C0
00380001E0
00700000E0
00E0000070
01C0000030
0380000038
0300000018
0700000018
0E00000018
0E00000018
1C0000001C
1C0000001C
180000001C
3800000000
3000000000
3000000000
7000000000
7000000000
6000000000
6000000000
6000000000
E000000000
E000000000
E000000000
E000000000
E000000000
C000000000
C000000000
E000000000
E000000000
E0000000E0
60000000C0
60000001C0
60000001C0
7000000380
3000000300
3800000700
1800000E00
1C00001C00
0E00003800
070000F000
03C003E000
01FEFF8000
007FFE0000
000FE00000
ENDCHAR
STARTCHAR 0064
ENCODING 100
SWIDTH 528 0
DWIDTH 47 0
BBX 43 68 4 -1
BITMAP
000000000060
000000000060
0000000000E0
0000000000E0
0000000000C0
0000000000C0
0000000000C0
0000000001C0
0000000001C0
0000000001C0
000000000180
000000000180
000000000180
000000000380
000000000380
000000000300
000000000300
000000000300
000000000300
00003F800700
0001FFF00700
0007FFFC0600
000F001E0600
003C00078600
00780001C600
00F00000CE00
00E000006E00
01C000007C00
038000003C00
070000003C00
070000001C00
0E0000001C00
0E0000001C00
1C0000001800
1C0000001800
180000001800
380000003800
380000003800
300000003800
700000003000
700000003000
700000003000
600000007000
600000007000
E00000006000
E00000006000
E00000006000
E00000006000
E0000000E000
E0000000E000
C0000000C000
C0000000C000
E0000000C000
E0000000C000
E0000001C000
60000001C000
600000018000
600000038000
700000078000
3000000F8000
3800001F8000
1800003B8000
1C0000F30000
0E0001E30000
07800F830000
03FBFF070000
01FFF8070000
003FC0000000
ENDCHAR
STARTCHAR 0065
ENCODING 101
SWIDTH 483 0
DWIDTH 43 0
BBX 38 49 3 -1
BITMAP
00001FC000
0000FFF800
0003FFFE00
000F800F00
001E000380
00380001C0
00700000E0
00E0000060
01C0000070
0380000030
0300000038
0700000018
0E00000018
0C00000018
1C0000001C
180000001C
380000001C
300000001C
300000001C
7000000018
6000000018
7FFFFFFFF8
7FFFFFFFF8
E000000000
E000000000
C000000000
C000000000
C000000000
C000000000
C000000000
C000000000
C000000000
C000000000
E000000000
E000000000
6000000000
6000000000
7000000000
3000000000
3800000000
1800000100
1C00000380
0E00000F00
0700001E00
0780007800
01E001F000
00FF3FC000
003FFF0000
0007F80000
ENDCHAR
STARTCHAR 0066
ENCODING 102
SWIDTH 303 0
DWIDTH 27 0
BBX 29 68 6 0
BITMAP
00000180
00003FF8
0000FFF8
0001F000
0003C000
00070000
000F0000
000E0000
001C0000
00180000
00380000
00380000
00300000
00300000
00700000
00700000
00600000
00600000
00600000
00600000
00E00000
FFFFFE00
FFFFFC00
00C00000
00C00000
01C00000
01C00000
01C00000
01800000
01800000
01800000
03800000
03800000
03800000
03000000
03000000
03000000
07000000
07000000
06000000
06000000
06000000
06000000
0E000000
0E000000
0C000000
0C000000
0C000000
0C000000
1C000000
1C000000
18000000
18000000
18000000
38000000
38000000
38000000
30000000
30000000
30000000
70000000
70000000
70000000
60000000
60000000
60000000
E0000000
E0000000
ENDCHAR
STARTCHAR 0067
ENCODING 103
SWIDTH 528 0
DWIDTH 47 0
BBX 42 67 2 -19
BITMAP
00000FE00000
00007FFC01C0
0001FFFF0180
0003C0078180
000F0001E180
001E0000F380
003C00007380
007800003B80
007000001B00
00E000000F00
01C000000F00
01C000000F00
038000000700
038000000700
070000000600
070000000600
060000000600
0E0000000E00
0E0000000E00
0C0000000C00
1C0000000C00
1C0000000C00
180000000C00
180000001C00
180000001C00
380000001800
380000001800
380000001800
380000001800
300000003800
300000003800
300000003000
300000003000
300000003000
300000007000
380000007000
380000007000
18000000E000
18000000E000
1C000001E000
0C000003E000
0C000007E000
0E00000EE000
0700003CC000
038000F8C000
01E003E0C000
00FEFFC1C000
007FFE01C000
000FF0018000
000000018000
000000038000
000000038000
000000030000
000000070000
000000060000
0000000E0000
0000000C0000
0000001C0000
C00000380000
E00000700000
F00000F00000
780001E00000
3C0003C00000
1F001F000000
07F1FE000000
01FFF8000000
007F80000000
ENDCHAR
STARTCHAR 0068
ENCODING 104
SWIDTH 528 0
DWIDTH 47 0
BBX 38 67 3 0
BITMAP
001C000000
0018000000
0018000000
0018000000
0018000000
0038000000
0038000000
0030000000
0030000000
0030000000
0070000000
0070000000
0060000000
0060000000
0060000000
0060000000
00E0000000
00E0000000
00C0000000
00C001FC00
00C00FFF80
00C03FDFC0
01C0F801E0
01C1E00070
0187800038
018F000018
019C00001C
019800001C
03B000000C
03F000000C
03E000000C
03C000000C
038000000C
038000000C
070000000C
070000000C
060000000C
060000001C
060000001C
0E00000018
0E00000018
0C00000018
0C00000018
0C00000038
0C00000038
1C00000030
1C00000030
1800000030
1800000030
1800000070
1800000070
3800000060
3800000060
3000000060
3000000060
30000000E0
30000000E0
70000000C0
70000000C0
60000000C0
60000001C0
60000001C0
60000001C0
E000000180
E000000180
C000000180
C000000380
ENDCHAR
STARTCHAR 0069
ENCODING 105
SWIDTH 191 0
DWIDTH 17 0
BBX 14 64 3 0
BITMAP
001C
003C
003C
003C
0018
0000
0000
0000
0000
0000
0000
0000
0000
0000
0000
0000
0000
00E0
00C0
00C0
00C0
00C0
01C0
01C0
0180
0180
0180
0180
0380
0380
0300
0300
0300
0300
0700
0700
0600
0600
0600
0600
0E00
0E00
0C00
0C00
0C00
1C00
1C00
1800
1800
1800
1800
3800
3800
3000
3000
3000
3000
7000
7000
6000
6000
6000
6000
E000
ENDCHAR
STARTCHAR 006A
ENCODING 106
SWIDTH 202 0
DWIDTH 18 0
BBX 32 83 -14 -19
BITMAP
0000000E
0000001F
0000001F
0000001E
0000000C
00000000
00000000
00000000
00000000
00000000
00000000
00000000
00000000
00000000
00000000
00000000
00000000
00000070
00000070
00000060
00000060
00000060
000000E0
000000E0
000000C0
000000C0
000000C0
000000C0
000001C0
000001C0
00000180
00000180
00000180
00000180
00000380
00000380
00000300
00000300
00000300
00000300
00000700
00000700
00000600
00000600
00000600
00000E00
00000E00
00000E00
00000C00
00000C00
00000C00
00001C00
00001C00
00001800
00001800
00001800
00001800
00003800
00003800
00003000
00003000
00003000
00003000
00007000
00007000
00006000
00006000
00006000
0000E000
0000E000
0000E000
0000C000
0001C000
0001C000
00018000
00038000
00070000
000E0000
001E0000
003C0000
63F80000
FFE00000
3F000000
ENDCHAR
STARTCHAR 006B
ENCODING 107
SWIDTH 450 0
DWIDTH 40 0
BBX 39 67 3 0
BITMAP
001C000000
0018000000
0018000000
0018000000
0018000000
0038000000
0038000000
0030000000
0030000000
0030000000
0070000000
0070000000
0060000000
0060000000
0060000000
0060000000
00E0000000
00E0000000
00C0000000
00C0000000
00C000000E
00C000003C
01C0000078
01C00000E0
01800001C0
0180000780
0180000F00
0180001E00
0380003800
0380007000
030001E000
030003C000
0300070000
03000E0000
07003C0000
0700780000
0600F00000
0601C00000
0607800000
0E0F000000
0E1E000000
0C3F000000
0C73800000
0DE3800000
0F81C00000
1F00E00000
1E00E00000
1C00700000
1800380000
1800380000
18001C0000
38000E0000
38000E0000
3000070000
3000030000
3000038000
300001C000
700000C000
700000E000
6000007000
6000003000
6000003800
6000001C00
E000000C00
E000000E00
C000000700
C000000700
ENDCHAR
STARTCHAR 006C
ENCODING 108
SWIDTH 191 0
DWIDTH 17 0
BBX 14 67 3 0
BITMAP
000C
000C
001C
001C
0018
0018
0018
0038
0038
0038
0030
0030
0030
0070
0070
0070
0060
0060
0060
00E0
00E0
00C0
00C0
00C0
00C0
01C0
01C0
0180
0180
0180
0180
0380
0380
0300
0300
0300
0300
0700
0700
0600
0600
0600
0E00
0E00
0E00
0C00
0C00
0C00
1C00
1C00
1800
1800
1800
1800
3800
3800
3000
3000
3000
3000
7000
7000
6000
6000
6000
6000
E000
ENDCHAR
STARTCHAR 006D
ENCODING 109
SWIDTH 866 0
DWIDTH 77 0
BBX 70 48 2 0
BITMAP
000000FC000003F800
00E00FFF80001FFF00
00C03FDFE000FF9FC0
00C0F800F001F001E0
00C1E0003807800070
00C38000180F000070
01C700001C1C000038
01CE00000C38000018
019C00000E70000018
01B800000EE000001C
01B0000006C000001C
01E00000078000001C
03E00000078000000C
03C00000070000000C
03C00000070000001C
03800000060000001C
038000000E0000001C
070000000E0000001C
070000000C00000018
070000000C00000018
060000000C00000018
060000000C00000018
060000001C00000038
0E0000001C00000038
0E0000001800000030
0E0000001800000030
0C0000001800000030
0C0000001800000070
0C0000003800000070
1C0000003800000060
1C0000003000000060
1C0000003000000060
180000003000000060
1800000030000000E0
1800000070000000E0
3800000070000000C0
3800000060000000C0
3000000060000000C0
3000000060000000C0
3000000060000001C0
30000000E0000001C0
70000000E000000180
70000000C000000180
60000000C000000180
60000000C000000180
60000000C000000380
60000001C000000380
E00000018000000300
ENDCHAR
STARTCHAR 006E
ENCODING 110
SWIDTH 528 0
DWIDTH 47 0
BBX 38 48 3 0
BITMAP
000001FC00
00C00FFF80
00C03FDFC0
01C0F801E0
01C1E00070
0187800038
018F000018
019C00001C
019800001C
03B000000C
03F000000C
03E000000C
03C000000C
038000000C
078000000C
070000000C
070000000C
060000000C
060000001C
060000001C
0E00000018
0E00000018
0C00000018
0C00000018
0C00000038
0C00000038
1C00000030
1C00000030
1800000030
1800000030
1800000070
1800000070
3800000060
3800000060
3000000060
3000000060
30000000E0
30000000E0
70000000C0
70000000C0
60000000C0
60000001C0
60000001C0
60000001C0
E000000180
E000000180
C000000180
C000000380
ENDCHAR
STARTCHAR 006F
ENCODING 111
SWIDTH 528 0
DWIDTH 47 0
BBX 41 49 3 -1
BITMAP
00000FF00000
0000FFFE0000
0003FFFF8000
0007C007C000
001F0001E000
003C00007000
007800003800
00E000001C00
01C000001C00
038000000E00
038000000E00
070000000600
0E0000000700
0E0000000300
1C0000000300
1C0000000300
380000000380
380000000380
300000000380
700000000380
700000000380
600000000380
600000000380
E00000000300
E00000000300
E00000000300
C00000000300
C00000000700
C00000000700
C00000000600
C00000000E00
C00000000E00
C00000000C00
E00000001C00
E00000001800
600000003800
600000007000
700000007000
30000000E000
38000001C000
38000003C000
1C0000078000
0E00000F0000
0F00001E0000
0780007C0000
03E001F00000
00FF7FC00000
003FFF000000
0007F8000000
ENDCHAR
STARTCHAR 0070
ENCODING 112
SWIDTH 528 0
DWIDTH 47 0
BBX 42 66 0 -18
BITMAP
0000007F0000
001807FFE000
00381FFFF000
00387E003C00
0030F0001C00
0031C0000E00
003380000700
003700000300
007E00000380
007C00000180
007800000180
0070000001C0
0070000001C0
0060000000C0
00E0000000C0
00E0000000C0
00C0000000C0
00C0000000C0
00C0000000C0
00C0000000C0
01C0000000C0
01C0000000C0
0180000000C0
0180000001C0
0180000001C0
038000000180
038000000180
038000000180
030000000380
030000000380
030000000300
070000000700
070000000700
070000000600
060000000E00
060000000C00
060000001C00
0E0000001800
0E0000003800
0F0000007000
0F0000007000
0F800000E000
0DC00001C000
1CE000038000
1C78000F0000
183E003E0000
180FF7F80000
1803FFF00000
18007F000000
380000000000
380000000000
300000000000
300000000000
300000000000
700000000000
700000000000
700000000000
600000000000
600000000000
600000000000
E00000000000
E00000000000
C00000000000
C00000000000
C00000000000
C00000000000
ENDCHAR
STARTCHAR 0071
ENCODING 113
SWIDTH 528 0
DWIDTH 47 0
BBX 40 66 4 -18
BITMAP
00001F8000
0001FFF007
0007FFFC06
000F001F06
003C000786
00780003C6
00F00000CE
00E00000EE
01C000007C
038000003C
030000003C
070000001C
0E0000001C
0E0000001C
1C00000018
1C00000018
1800000018
3800000038
3800000038
3000000038
7000000030
7000000030
7000000030
6000000070
6000000070
E000000060
E000000060
E000000060
E000000060
E0000000E0
E0000000E0
C0000000C0
C0000000C0
E0000000C0
E0000000C0
E0000001C0
60000001C0
6000000180
6000000380
7000000780
3000000F80
3800001F80
1800003B80
1C0000F300
0E0001E300
07800F8300
03FBFF0700
01FFF80700
003FC00700
0000000600
0000000600
0000000600
0000000E00
0000000E00
0000000C00
0000000C00
0000000C00
0000000C00
0000001C00
0000001C00
0000001800
0000001800
0000001800
0000001800
0000003800
0000003800
ENDCHAR
STARTCHAR 0072
ENCODING 114
SWIDTH 315 0
DWIDTH 28 0
BBX 28 48 3 0
BITMAP
000007F0
00C03FF0
00C0FFB0
01C1E000
01C78000
018F0000
019C0000
01980000
01B00000
03F00000
03E00000
03C00000
03C00000
03800000
07800000
07000000
07000000
06000000
06000000
06000000
0E000000
0E000000
0C000000
0C000000
0C000000
0C000000
1C000000
1C000000
18000000
18000000
18000000
18000000
38000000
38000000
30000000
30000000
30000000
30000000
70000000
70000000
60000000
60000000
60000000
60000000
E0000000
E0000000
C0000000
C0000000
ENDCHAR
STARTCHAR 0073
ENCODING 115
SWIDTH 472 0
DWIDTH 42 0
BBX 37 49 2 -1
BITMAP
00001FC000
0001FFFC00
0007FFFF00
001F000F80
003C0003C0
00700000E0
00E0000070
01C0000070
0180000038
0380000038
0300000018
0300000018
0700000018
0700000018
0700000000
0300000000
0300000000
0380000000
01C0000000
01E0000000
0078000000
003E000000
000FC00000
0003FC0000
00007F8000
000007E000
000000F800
0000003C00
0000000E00
0000000700
0000000380
0000000380
0000000180
0000000180
00000001C0
0000000180
E000000180
E000000180
E000000380
E000000380
6000000700
7000000700
7800001E00
3C00003C00
1E0000F800
0F8003F000
03FEFFC000
00FFFF0000
000FF00000
ENDCHAR
STARTCHAR 0074
ENCODING 116
SWIDTH 303 0
DWIDTH 27 0
BBX 21 61 5 -1
BITMAP
001800
001800
003800
003800
003000
003000
003000
003000
007000
007000
006000
006000
006000
FFFFF8
FFFFF8
00E000
00C000
00C000
00C000
01C000
01C000
01C000
018000
018000
018000
038000
038000
038000
030000
030000
030000
070000
070000
060000
060000
060000
060000
0E0000
0E0000
0C0000
0C0000
0C0000
0C0000
1C0000
1C0000
180000
180000
180000
180000
380000
380000
380000
300000
380000
380000
380000
180000
1C0000
0FFE00
07FE00
01FC00
ENDCHAR
STARTCHAR 0075
ENCODING 117
SWIDTH 528 0
DWIDTH 47 0
BBX 39 48 5 -1
BITMAP
030000000E
070000000C
070000000C
060000000C
060000000C
060000001C
060000001C
0E00000018
0E00000018
0C00000018
0C00000038
0C00000038
1C00000038
1C00000030
1C00000030
1800000030
1800000070
1800000070
3800000070
3800000060
3000000060
3000000060
30000000E0
30000000E0
70000000E0
70000000C0
60000000C0
60000000C0
60000001C0
60000001C0
E000000180
E000000180
E000000180
C000000380
C000000380
C000000780
E000000700
E000000F00
6000001F00
6000001B00
7000003F00
700000F700
380001E600
1C0007C600
1E001F0600
07F7FE0E00
03FFF00E00
007F800000
ENDCHAR
STARTCHAR 0076
ENCODING 118
SWIDTH 461 0
DWIDTH 41 0
BBX 38 47 5 0
BITMAP
E00000001C
E000000038
6000000030
6000000070
6000000060
70000000E0
70000000C0
30000001C0
3000000180
3800000380
3800000300
1800000700
1800000600
1C00000E00
1C00001C00
1C00001C00
0C00003800
0C00003000
0E00007000
0E00006000
060000E000
060000C000
070001C000
0700018000
0700038000
0300030000
0300070000
0380060000
03800E0000
01801C0000
01801C0000
01C0380000
01C0300000
01C0700000
00C0600000
00C0E00000
00E0C00000
00E1C00000
0061800000
0063800000
0073000000
0077000000
007E000000
003E000000
003C000000
003C000000
0038000000
ENDCHAR
STARTCHAR 0077
ENCODING 119
SWIDTH 731 0
DWIDTH 65 0
BBX 58 47 7 0
BITMAP
E000000C000001C0
E000001C00000180
E000001C00000380
E000003E00000300
6000003600000700
6000007600000700
6000006600000E00
600000E600000E00
700000C600001C00
700001C600001C00
7000018700003800
7000038700003800
7000030700003000
3000070700007000
3000060300006000
30000E030000E000
30000C030000E000
38001C030001C000
380018038001C000
3800380380038000
3800380380038000
3800700180030000
1800700180070000
1800600180060000
1800E001800E0000
1800C001C00C0000
1C01C001C01C0000
1C018001C01C0000
1C038000C0380000
1C030000C0380000
1C070000C0700000
0C060000C0700000
0C0E0000C0600000
0C0C0000E0E00000
0C1C0000E0C00000
0C18000061C00000
0E38000061800000
0E30000063800000
0E70000063800000
0E60000063000000
06E0000077000000
06C0000036000000
07C000003E000000
078000003C000000
078000003C000000
0700000038000000
0700000038000000
ENDCHAR
STARTCHAR 0078
ENCODING 120
SWIDTH 461 0
DWIDTH 41 0
BBX 42 47 -1 0
BITMAP
00C0000001C0
00E000000380
007000000700
007000000E00
003800001E00
003800001C00
001C00003800
001C00007000
000E0000E000
00060001C000
000700038000
000300078000
000380070000
0001C00E0000
0001C01C0000
0000E0380000
0000E0700000
000070E00000
000031E00000
000039C00000
00001B800000
00001F000000
00000E000000
00001E000000
00003E000000
00003F000000
000073800000
0000E3800000
0001C1C00000
000380C00000
000700E00000
000F00600000
000E00700000
001C00300000
003800380000
007000180000
00E0001C0000
01C0000E0000
03C0000E0000
038000070000
070000070000
0E0000038000
1C0000018000
38000001C000
70000000C000
F0000000E000
E00000007000
ENDCHAR
STARTCHAR 0079
ENCODING 121
SWIDTH 461 0
DWIDTH 41 0
BBX 47 66 -4 -19
BITMAP
00700000000E
00300000000E
00300000001C
00380000001C
003800000038
001800000030
001800000070
001800000060
001C000000E0
001C000000C0
000C000001C0
000C00000180
000E00000380
000E00000700
000600000700
000600000E00
000600000E00
000700001C00
000700001800
000300003800
000300003000
000380007000
000380006000
00018000E000
00018001C000
00018001C000
0001C0038000
0001C0038000
0000C0070000
0000C0060000
0000E00E0000
0000E00C0000
0000E01C0000
000060180000
000060380000
000070700000
000070700000
000030E00000
000030E00000
000031C00000
000039C00000
00003B800000
00001B000000
00001F000000
00001E000000
00001E000000
00001C000000
00001C000000
000038000000
000038000000
000070000000
000070000000
0000E0000000
0000C0000000
0001C0000000
000180000000
000380000000
000700000000
000700000000
000E00000000
001C00000000
003800000000
00F000000000
43E000000000
7FC000000000
FE0000000000
ENDCHAR
STARTCHAR 007A
ENCODING 122
SWIDTH 461 0
DWIDTH 41 0
BBX 41 47 -1 0
BITMAP
007FFFFFFF80
007FFFFFFF80
000000000380
000000000700
000000000E00
000000001C00
000000003800
000000007000
00000000E000
00000000E000
00000001C000
000000038000
000000070000
0000000E0000
0000001C0000
000000380000
000000700000
000000700000
000000E00000
000001C00000
000003800000
000007000000
00000E000000
00001C000000
000038000000
000038000000
000070000000
0000E0000000
0001C0000000
000380000000
000700000000
000E00000000
001C00000000
001C00000000
003800000000
007000000000
00E000000000
01C000000000
038000000000
070000000000
0E0000000000
0E0000000000
1C0000000000
380000000000
700000000000
FFFFFFFFF000
FFFFFFFFF000
ENDCHAR
STARTCHAR 007B
ENCODING 123
SWIDTH 303 0
DWIDTH 27 0
BBX 31 88 3 -19
BITMAP
00000006
0000003E
00000078
000001E0
000003C0
00000700
00000E00
00001C00
00003800
00003800
00007000
00006000
0000E000
0000C000
0001C000
0001C000
00018000
00018000
00038000
00038000
00030000
00030000
00030000
00030000
00070000
00070000
00070000
00060000
00060000
00060000
00060000
000E0000
000C0000
000C0000
001C0000
00180000
00380000
00300000
00700000
00E00000
01C00000
07800000
7E000000
F8000000
F8000000
FE000000
0F000000
03800000
01800000
01C00000
00C00000
00C00000
00E00000
00E00000
00600000
00E00000
00E00000
00E00000
00C00000
00C00000
00C00000
00C00000
00C00000
01C00000
01C00000
01800000
01800000
01800000
01800000
03800000
03800000
03800000
03800000
03800000
03800000
01800000
01800000
01C00000
01C00000
00C00000
00E00000
00700000
00700000
003C0000
001E0000
000F8000
0003C000
00008000
ENDCHAR
STARTCHAR 007C
ENCODING 124
SWIDTH 191 0
DWIDTH 17 0
BBX 14 75 2 -12
BITMAP
001C
0018
0018
0018
0018
0038
0038
0038
0030
0030
0030
0030
0070
0070
0060
0060
0060
0060
00E0
00E0
00E0
00C0
00C0
00C0
00C0
01C0
01C0
0180
0180
0180
0180
0380
0380
0300
0300
0300
0300
0700
0700
0700
0600
0600
0600
0600
0E00
0E00
0C00
0C00
0C00
0C00
1C00
1C00
1C00
1800
1800
1800
1800
3800
3800
3000
3000
3000
3000
7000
7000
7000
6000
6000
6000
6000
E000
E000
C000
C000
C000
ENDCHAR
STARTCHAR 007D
ENCODING 125
SWIDTH 303 0
DWIDTH 27 0
BBX 32 88 -7 -19
BITMAP
00030000
0003C000
0000F000
00007800
00003C00
00001C00
00000E00
00000700
00000700
00000300
00000380
00000380
00000180
00000180
00000180
00000180
00000180
00000180
00000180
00000180
00000380
00000380
00000300
00000300
00000300
00000300
00000300
00000700
00000700
00000600
00000600
00000600
00000600
00000600
00000600
00000600
00000600
00000700
00000300
00000380
000001C0
000000E0
0000007E
0000001F
0000001F
000000FE
000001E0
00000380
00000600
00000E00
00001C00
00001800
00003800
00003000
00007000
00006000
00006000
00006000
0000E000
0000E000
0000E000
0000C000
0000C000
0000C000
0000C000
0001C000
0001C000
00018000
00018000
00018000
00038000
00038000
00030000
00070000
00070000
00060000
000E0000
001C0000
001C0000
00380000
00700000
00E00000
01C00000
07800000
0F000000
3E000000
F8000000
60000000
ENDCHAR
STARTCHAR 007E
ENCODING 126
SWIDTH 663 0
DWIDTH 59 0
BBX 48 15 6 19
BITMAP
000E00000000
00FFC0000007
03FFF0000006
078078000006
0E003C00000E
1C000E00000C
38000700001C
380003800018
700001C00038
700000E00070
6000007800E0
E000003C01C0
E000001FFF80
C0000007FF00
00000000F800
ENDCHAR
STARTCHAR 00A0
ENCODING 160
SWIDTH 236 0
DWIDTH 21 0
BBX 0 0 0 0
BITMAP
ENDCHAR
STARTCHAR 00A1
ENCODING 161
SWIDTH 191 0
DWIDTH 17 0
BBX 14 64 0 -16
BITMAP
0018
003C
007C
007C
0038
0000
0000
0000
0000
0000
0000
0000
0000
0000
0000
0000
0000
0000
00C0
00C0
00C0
00C0
01C0
01C0
0180
0180
0180
0180
0380
0380
0300
0300
0300
0700
0700
0700
0600
0600
0600
0E00
0E00
0C00
0C00
0C00
0C00
1C00
1C00
1800
1800
1800
1800
3800
3800
3000
3000
3000
3000
7000
7000
6000
6000
6000
6000
E000
ENDCHAR
STARTCHAR 00A2
ENCODING 162
SWIDTH 517 0
DWIDTH 46 0
BBX 37 68 5 -11
BITMAP
000001C000
000001C000
0000018000
0000018000
0000018000
0000038000
0000038000
0000038000
0000030000
00001FC000
0000FFF800
0007FFFE00
000F800F80
003E0003C0
00780001C0
00F00000E0
01E0000070
01C0000070
0380000030
0700000038
0600000018
0E00000018
0C00000018
1C00000018
1800000018
3800000018
3000000000
3000000000
7000000000
6000000000
6000000000
6000000000
E000000000
E000000000
C000000000
C000000000
C000000000
C000000000
C000000000
C000000000
C000000000
C000000000
C000000000
C0000000C0
C0000001C0
C000000180
E000000380
6000000300
6000000700
7000000E00
3800001C00
3800003C00
1C00007800
0E0001E000
078007C000
03FDFF0000
00FFFC0000
001FC00000
0007000000
0007000000
0006000000
0006000000
0006000000
000E000000
000E000000
000E000000
000C000000
000C000000
ENDCHAR
STARTCHAR 00A3
ENCODING 163
SWIDTH 540 0
DWIDTH 48 0
BBX 48 64 0 0
BITMAP
00000003FE00
0000001FFF80
0000007F07E0
000000F000F0
000001E00078
000003800018
00000700001C
00000E00000C
00000C00000E
00001C000006
000038000006
000038000006
000070000006
000070000007
000060000007
0000E0000006
0000E0000006
0000C0000000
0000C0000000
0000C0000000
0001C0000000
0001C0000000
0001C0000000
000180000000
000180000000
000180000000
000180000000
000380000000
000380000000
000380000000
000300000000
000300000000
000300000000
07FFFFFE0000
07FFFFFE0000
000700000000
000700000000
000600000000
000600000000
000600000000
000600000000
000E00000000
000E00000000
000E00000000
000C00000000
000C00000000
000C00000000
000C00000000
001C00000000
001C00000000
001800000000
001800000000
001800000000
003800000000
003800000000
003000000000
007000000000
007000000000
00E000000000
00E000000000
01C000000000
078000000000
FFFFFFFFFF00
FFFFFFFFFF00
ENDCHAR
STARTCHAR 00A4
ENCODING 164
SWIDTH 708 0
DWIDTH 63 0
BBX 62 56 0 -1
BITMAP
0010000000000004
003000003C00000C
00380007FFE0001C
001C003FFFF80078
000E00FC007E00F0
000F03E0000F01E0
00070F800003C3C0
00039E000001E780
0001FC000000EE00
0000F00000007C00
0000E00000003800
0001C00000001C00
0003800000001C00
0007000000000E00
000E000000000E00
000C000000000600
001C000000000700
0038000000000300
0030000000000300
0070000000000300
0060000000000380
00E0000000000380
00C0000000000380
00C0000000000380
01C0000000000380
0180000000000380
0180000000000380
0380000000000380
0380000000000300
0380000000000300
0300000000000300
0300000000000700
0300000000000700
0300000000000600
0300000000000E00
0300000000000E00
0380000000001C00
0380000000001C00
0380000000003800
0180000000003800
0180000000007000
01C000000000E000
00C000000000E000
00E000000001C000
0060000000038000
0070000000070000
00780000000E0000
00F80000001F0000
01FC0000003B8000
038E000000F1C000
0707800003E1E000
0E03C0000F80E000
3C01F8003F007000
78007FCFFC003800
F0001FFFE0001C00
600001FF00001800
ENDCHAR
STARTCHAR 00A5
ENCODING 165
SWIDTH 483 0
DWIDTH 43 0
BBX 46 63 2 0
BITMAP
03800000001C
038000000018
018000000038
01C000000070
01C000000060
00C0000000E0
00E0000001C0
006000000380
007000000300
007000000700
003000000E00
003800000C00
003800001C00
001800003800
001C00003000
000C00006000
000C0000E000
000E0001C000
000600018000
000600038000
000700070000
000300060000
0003800E0000
0003801C0000
000180380000
0001C0300000
0000C0700000
0000C0E00000
0000E0C00000
000061C00000
000063800000
000073000000
000036000000
00003E000000
1FFFFFFFFC00
3FFFFFFFFC00
000018000000
000038000000
000038000000
000030000000
000030000000
000030000000
000030000000
000070000000
000070000000
000060000000
FFFFFFFFF000
FFFFFFFFF000
FFFFFFFFE000
0000E0000000
0000E0000000
0000C0000000
0000C0000000
0000C0000000
0000C0000000
0001C0000000
0001C0000000
000180000000
000180000000
000180000000
000180000000
000380000000
000380000000
ENDCHAR
STARTCHAR 00A6
ENCODING 166
SWIDTH 180 0
DWIDTH 16 0
BBX 15 75 1 -12
BITMAP
000E
000E
000E
000C
000C
000C
001C
001C
0018
0018
0018
0018
0038
0038
0030
0030
0030
0030
0070
0070
0060
0060
0060
0060
00E0
00E0
00C0
00C0
00C0
00C0
01C0
01C0
0180
0000
0000
0000
0000
0000
0000
0000
0000
0000
0700
0600
0600
0600
0600
0E00
0E00
0C00
0C00
0C00
1C00
1C00
1C00
1800
1800
1800
3800
3800
3000
3000
3000
3000
7000
7000
6000
6000
6000
6000
E000
E000
C000
C000
C000
ENDCHAR
STARTCHAR 00A7
ENCODING 167
SWIDTH 573 0
DWIDTH 51 0
BBX 49 85 0 -21
BITMAP
0000001FFC0000
000001FFFF8000
000007FC1FC000
00001F0001F000
00007C00007800
0000F000003C00
0001E000001C00
00038000000E00
00070000000700
00060000000700
000E0000000300
000C0000000300
001C0000000380
001C0000000380
00180000000380
00180000000380
00180000000380
00180000000380
00180000000380
00180000000000
001C0000000000
000C0000000000
000E0000000000
00070000000000
00038000000000
0001C000000000
0000F000000000
00003E00000000
00003F80000000
0003FFF8000000
000F807F000000
003C0007E00000
00700000F80000
00E000003E0000
01C000000F8000
0380000003C000
0300000001E000
0700000000E000
06000000007000
06000000003800
06000000003800
0E000000001800
0E000000001800
06000000001800
06000000001800
06000000003800
07000000003800
03800000003000
03800000007000
01E00000006000
00F0000000E000
003C000001C000
001F0000078000
0007E0001E0000
0001FE00FC0000
00003FFFE00000
000007FF000000
0000007E000000
0000000F800000
00000003C00000
00000000F00000
00000000700000
00000000380000
000000001C0000
000000000C0000
000000000E0000
000000000E0000
C00000000E0000
C00000000E0000
C00000000E0000
C00000000E0000
C00000000C0000
C00000000C0000
C00000001C0000
E0000000180000
E0000000380000
70000000300000
70000000700000
38000001E00000
1C000003C00000
1E00000F800000
0780003E000000
03F001FC000000
00FFFFF0000000
003FFF80000000
ENDCHAR
STARTCHAR 00A8
ENCODING 168
SWIDTH 427 0
DWIDTH 38 0
BBX 23 5 13 59
BITMAP
70000E
F8001E
F8001E
F0001E
60000C
ENDCHAR
STARTCHAR 00A9
ENCODING 169
SWIDTH 787 0
DWIDTH 70 0
BBX 60 65 6 -1
BITMAP
00000007FF000000
0000007FFFF00000
000003FF03FC0000
00000FE0003F0000
00001F0000078000
00007C000003E000
0000F0000000F000
0003C00000007800
0007800000003C00
000F000000001C00
001E000000000E00
0038000000000700
0070000000000300
00F0000000000380
00E0000FF8000180
01C0003FFE0001C0
038000FC1F0000C0
030001E0038000E0
070003C001C000E0
0E00070000C00060
0E000E0000C00060
1C000E0000E00070
1C001C0000600070
3800180000600030
3800380000600030
3000300000600030
7000700000600030
7000700000000030
6000600000000030
6000600000000030
E000E00000000030
E000E00000000030
C000E00000000070
C000C00000000070
C000C00000000060
C000C00000000060
C000C000000000E0
C000C000018000E0
C000C000018000C0
C000C000018001C0
C000C000038001C0
C000E00003000180
E000E00007000380
E000600006000300
E00070000E000700
600030001C000E00
7000380038000E00
70001E00F0001C00
30000FEFE0003C00
380007FFC0003800
180000FE00007000
1C0000000000E000
0C0000000001C000
0E0000000003C000
0700000000078000
03800000000F0000
03C00000001E0000
01E0000000780000
00F0000000F00000
007C000003E00000
001F00000F800000
000FC0007E000000
0003FF3FF8000000
0000FFFFC0000000
00000FFC00000000
ENDCHAR
STARTCHAR 00AA
ENCODING 170
SWIDTH 416 0
DWIDTH 37 0
BBX 26 34 9 30
BITMAP
000FF000
003FFC00
00FC3E00
01E00700
03800380
07000180
0E000180
0C0001C0
1C0001C0
180001C0
000001C0
000001C0
00000180
00000180
00000180
003FFF80
01FFFF80
07F00380
0F000300
1C000300
38000300
70000700
60000700
60000700
E0000600
E0000E00
C0000E00
E0001E00
E0003E00
7000EE00
7803CE00
3F9F8E00
0FFE0E00
03F80000
ENDCHAR
STARTCHAR 00AB
ENCODING 171
SWIDTH 427 0
DWIDTH 38 0
BBX 30 33 5 6
BITMAP
0001C01C
00038038
00070070
000E00F0
001E01E0
003C03C0
00780780
00F00F00
01E00E00
01C01C00
03803800
07007000
0E00E000
1C01C000
38038000
70070000
F0070000
70070000
38038000
3803C000
1C01C000
1E01E000
0E00E000
07007000
07007000
03803800
03C03C00
01C01C00
00E00E00
00E00E00
00700700
00700380
00380380
ENDCHAR
STARTCHAR 00AC
ENCODING 172
SWIDTH 517 0
DWIDTH 46 0
BBX 34 16 6 17
BITMAP
FFFFFFFFC0
FFFFFFFFC0
FFFFFFFF80
0000000180
0000000180
0000000380
0000000380
0000000300
0000000300
0000000300
0000000300
0000000700
0000000700
0000000600
0000000600
0000000600
ENDCHAR
STARTCHAR 00AD
ENCODING 173
SWIDTH 281 0
DWIDTH 25 0
BBX 20 2 3 28
BITMAP
FFFFF0
FFFFF0
ENDCHAR
STARTCHAR 00AE
ENCODING 174
SWIDTH 787 0
DWIDTH 70 0
BBX 61 65 5 -1
BITMAP
00000003FF800000
0000003FFFF80000
000001FF03FE0000
000007E0001F8000
00001F800007C000
00003C000001E000
0000F80000007000
0001E00000003800
0003C00000001C00
0007000000000E00
000E000000000700
001C000000000300
0038000000000380
00700000000001C0
00E000FFFC0001C0
00E001FFFF8000E0
01C001C00FC000E0
038001C000E00060
0300018000700070
0700018000300070
0E00018000300030
0E00038000380030
0C00038000380038
1C00038000300038
1800030000300038
3800030000300038
3800030000700038
3000030000600038
7000070000E00038
7000070001C00038
6000070003800038
600006001F000038
600007FFFC000038
600007FFF8000030
E0000FFFFC000030
E0000E000E000070
E0000E0007000070
E0000C0003000060
E0000C00038000E0
E0000C00038000E0
E0000C00038000C0
60001C00038001C0
60001C00038001C0
6000180003000380
7000180003000380
7000180003000700
3000180003000600
3800380003000E00
3800380003001C00
1800380003003800
1C00000000003800
0C00000000007000
0E0000000000E000
070000000001C000
0380000000038000
0380000000070000
01C00000001E0000
00E00000003C0000
0078000000F80000
003C000003E00000
001F00000FC00000
0007E0007F000000
0001FFBFFC000000
00007FFFE0000000
000007FE00000000
ENDCHAR
STARTCHAR 00AF
ENCODING 175
SWIDTH 382 0
DWIDTH 34 0
BBX 24 2 11 60
BITMAP
FFFFFF
FFFFFF
ENDCHAR
STARTCHAR 00B0
ENCODING 176
SWIDTH 360 0
DWIDTH 32 0
BBX 20 21 11 43
BITMAP
007E00
03FF80
07C7C0
0F00E0
1C00E0
380070
300070
700030
600030
E00030
E00030
E00070
E00070
E000E0
6000E0
7001C0
700380
3C0F00
1FFE00
0FF800
00C000
ENDCHAR
STARTCHAR 00B1
ENCODING 177
SWIDTH 506 0
DWIDTH 45 0
BBX 42 55 1 0
BITMAP
000000600000
000000600000
000000600000
000000600000
000000E00000
000000E00000
000000C00000
000000C00000
000000C00000
000000C00000
000000C00000
000001C00000
000001C00000
000001800000
000001800000
000001800000
000001800000
000003800000
000003800000
000003000000
1FFFFFFFFFC0
1FFFFFFFFFC0
000003000000
000007000000
000007000000
000007000000
000006000000
000006000000
000006000000
000006000000
00000E000000
00000E000000
00000C000000
00000C000000
00000C000000
00000C000000
00001C000000
00001C000000
00001C000000
000018000000
000018000000
000018000000
000000000000
000000000000
000000000000
000000000000
000000000000
000000000000
000000000000
000000000000
000000000000
000000000000
000000000000
FFFFFFFFE000
FFFFFFFFE000
ENDCHAR
STARTCHAR 00B2
ENCODING 178
SWIDTH 348 0
DWIDTH 31 0
BBX 26 35 5 29
BITMAP
00018000
001FF800
007FFE00
00F00F00
01C00380
03800180
07000180
0E000180
0C0001C0
0C000180
1C000180
00000180
00000380
00000300
00000600
00000E00
00001C00
00003800
00007000
0000E000
0001C000
00078000
000F0000
001C0000
00380000
00700000
00E00000
01C00000
03800000
07000000
1C000000
38000000
70000000
FFFFFE00
FFFFFE00
ENDCHAR
STARTCHAR 00B3
ENCODING 179
SWIDTH 348 0
DWIDTH 31 0
BBX 26 36 5 28
BITMAP
0000C000
001FFC00
007FFE00
00F00700
01C00380
038001C0
070000C0
060000C0
0E0000C0
0C0000C0
000001C0
000001C0
00000380
00000300
00000F00
00001C00
0001F800
003FC000
003FF000
00007800
00000E00
00000600
00000700
00000300
00000300
00000300
E0000700
E0000700
E0000600
60000E00
70001C00
38003800
1C00F000
0FCFE000
07FF8000
00780000
ENDCHAR
STARTCHAR 00B4
ENCODING 180
SWIDTH 236 0
DWIDTH 21 0
BBX 12 12 10 55
BITMAP
0070
0070
00E0
01C0
0380
0700
0E00
1C00
1800
3800
7000
E000
ENDCHAR
STARTCHAR 00B5
ENCODING 181
SWIDTH 528 0
DWIDTH 47 0
BBX 44 65 0 -18
BITMAP
001800000070
003800000070
003800000060
003000000060
003000000060
0030000000E0
0030000000E0
0070000000C0
0070000000C0
0060000000C0
0060000000C0
0060000001C0
0060000001C0
00E000000180
00E000000180
00C000000180
00C000000180
00C000000380
00C000000380
01C000000300
01C000000300
018000000300
018000000300
018000000700
018000000700
038000000600
030000000600
030000000600
030000000E00
030000000E00
070000000E00
070000000C00
070000001C00
070000001C00
070000003C00
070000003C00
0F0000007800
0F0000007800
0F000000F800
0F800001D800
0D800003B800
0DC000073800
1CC0000E3000
1CE0003C3000
187800F83000
183FFFF03000
180FFFC03000
1801FC000000
380000000000
380000000000
300000000000
300000000000
300000000000
300000000000
700000000000
600000000000
600000000000
600000000000
600000000000
600000000000
E00000000000
C00000000000
C00000000000
C00000000000
C00000000000
ENDCHAR
STARTCHAR 00B6
ENCODING 182
SWIDTH 438 0
DWIDTH 39 0
BBX 32 63 7 0
BITMAP
00003FFF
0001FFFF
0007FFFE
001FFFFE
007FFFFE
00FFFFFE
01FFFFFE
03FFFFFE
07FFFFFC
0FFFFFFC
0FFFFFFC
1FFFFFFC
1FFFFFFC
3FFFFFFC
3FFFFFF8
7FFFFFF8
7FFFFFF8
7FFFFFF8
FFFFFFF8
FFFFFFF8
FFFFFFF0
FFFFFFF0
FFFFFFF0
FFFFFFF0
FFFFFFF0
FFFFFFF0
FFFFFFE0
FFFFFFE0
FFFFFFE0
7FFFFFE0
7FFFFFE0
7FFFFFC0
3FFFFFC0
1FFFFFC0
1FFFFFC0
0FFFFFC0
07FFFFC0
01FFFF80
007FFF80
001FFF80
00000380
00000380
00000380
00000300
00000300
00000300
00000700
00000700
00000700
00000600
00000600
00000600
00000E00
00000E00
00000C00
00000C00
00000C00
00000C00
00001C00
00001C00
00001800
00001800
00001800
ENDCHAR
STARTCHAR 00B7
ENCODING 183
SWIDTH 213 0
DWIDTH 19 0
BBX 5 5 8 28
BITMAP
70
78
F8
F8
60
ENDCHAR
STARTCHAR 00B8
ENCODING 184
SWIDTH 225 0
DWIDTH 20 0
BBX 14 19 -4 -19
BITMAP
0300
0700
0600
0700
0FE0
03F0
0078
0018
0018
001C
0018
0018
0038
0030
00F0
03E0
3F80
FE00
E000
ENDCHAR
STARTCHAR 00B9
ENCODING 185
SWIDTH 348 0
DWIDTH 31 0
BBX 14 34 11 29
BITMAP
001C
00F8
07F8
3F98
FC18
C038
0038
0030
0030
0030
0030
0070
0060
0060
0060
0060
00E0
00E0
00C0
00C0
00C0
00C0
01C0
01C0
0180
0180
0180
0180
0380
0380
0300
0300
0300
0300
ENDCHAR
STARTCHAR 00BA
ENCODING 186
SWIDTH 427 0
DWIDTH 38 0
BBX 27 34 9 30
BITMAP
000FF000
003FFC00
00FE3F00
01E00780
03C00380
070001C0
0E0000C0
0E0000E0
1C000060
18000060
38000060
38000060
30000060
70000060
70000060
600000E0
600000E0
600000C0
600000C0
E00000C0
E00000C0
C00001C0
C0000180
E0000180
E0000380
60000700
60000700
60000E00
30001C00
38003800
1C00F000
0FC7E000
07FFC000
01FE0000
ENDCHAR
STARTCHAR 00BB
ENCODING 187
SWIDTH 427 0
DWIDTH 38 0
BBX 31 34 2 7
BITMAP
03803800
01C01C00
01C01C00
00E00E00
00E00700
00700700
00700380
00380380
001C01C0
001C01C0
000E00E0
000E0070
00070070
00078038
00038038
0001C01C
0001C01E
0001C01E
0003803C
00070078
000F00F0
001E01E0
003C01C0
00780380
00F00700
01E00E00
01C01C00
03803800
07007000
0E00E000
1C01C000
38038000
70070000
E00F0000
ENDCHAR
STARTCHAR 00BC
ENCODING 188
SWIDTH 697 0
DWIDTH 62 0
BBX 44 63 11 0
BITMAP
000C00000000
007C00000000
03FC00000000
3FDC00000000
7C1800000000
601800000000
001800000200
001800000300
003800000700
003800000E00
003000001C00
003000003800
003000003800
003000007000
00700000E000
00700001C000
006000038000
006000038000
006000070000
0060000E0000
00E0001C0000
00E0001C0000
00C000380000
00C000700000
00C000E00000
00C001C00000
01C001C00000
01C003800000
018007000000
01800E0001C0
01800E0003C0
03801C0007C0
038038000F80
030070001D80
0000E0003980
0000E0007180
0001C000E380
00038000C380
000700018300
000700038300
000E00070300
001C000E0300
0038001C0700
007000380700
007000700600
00E000E00600
01C001C00600
038001800600
038003000E00
070006000E00
0E000C000C00
1C001C000C00
38003FFFFFF0
38003FFFFFF0
700000001C00
E00000001800
400000001800
000000001800
000000001800
000000003800
000000003800
000000003000
000000003000
ENDCHAR
STARTCHAR 00BD
ENCODING 189
SWIDTH 708 0
DWIDTH 63 0
BBX 48 63 9 0
BITMAP
000600000000
003E00000000
01FE00000000
1FEE00000000
3E0C00000000
300C00000000
000C00000200
000C00000300
001C00000700
001C00000E00
001800001C00
001800001C00
001800003800
001800007000
00380000E000
00380001C000
00300001C000
003000038000
003000070000
0030000E0000
0070000E0000
0070001C0000
006000380000
006000700000
006000E00000
006000E00000
00E001C00000
00E003800000
00C007000780
00C007007FF0
00C00E01F8F8
01C01C03C01C
01C03807000E
0180700E0006
0000701C0007
0000E0180007
0001C0380007
000380300007
000380300006
000700000006
000E0000000E
001C0000000C
00380000001C
003800000038
007000000070
00E0000000E0
01C0000001C0
018000000380
038000000700
070000001E00
0E0000003C00
1C0000007000
1C000000E000
38000001C000
700000038000
E00000070000
0000000E0000
0000001C0000
000000700000
000000E00000
000001C00000
000003FFFFF8
000003FFFFF8
ENDCHAR
STARTCHAR 00BE
ENCODING 190
SWIDTH 753 0
DWIDTH 67 0
BBX 54 64 7 0
BITMAP
00008000000000
001FF800000000
007FFE00000000
00F00F00000000
01C00380000000
03800180000000
070001C0000000
060000C0000040
0E0000C00000E0
0C0001C00000E0
000001C00001C0
00000180000380
00000380000700
00000700000E00
00000F00000E00
00003C00001C00
0001F800003800
003FC000007000
003FF000006000
0000780000E000
00001C0001C000
00000E00038000
00000700070000
00000700070000
000003000E0000
000007001C0000
E0000700380000
E0000600300000
E0000600700000
60000E00E00000
70001C01C00070
380038038000F0
3C00F0038001E0
0FDFE0070003E0
07FF800E000760
00F8001C000E60
00000038001CE0
000000380038E0
000000700070C0
000000E000E0C0
000001C000C0C0
000001C00180C0
000003800381C0
000007000701C0
00000E000E0180
00001C001C0180
00001C00380180
00003800700180
00007000E00380
0000E001C00380
0000E001800300
0001C003000300
00038006000300
0007000FFFFFFC
000E000FFFFFFC
000E0000000700
001C0000000600
00080000000600
00000000000600
00000000000E00
00000000000E00
00000000000C00
00000000000C00
00000000000C00
ENDCHAR
STARTCHAR 00BF
ENCODING 191
SWIDTH 427 0
DWIDTH 38 0
BBX 30 65 0 -17
BITMAP
00000180
000003C0
000007C0
000007C0
00000380
00000000
00000000
00000000
00000000
00000000
00000000
00000000
00000000
00000000
00000000
00000000
00000000
00000000
00000C00
00000C00
00001C00
00001800
00001800
00003800
00003000
00007000
0000E000
0001C000
00038000
00070000
000E0000
003C0000
00780000
00F00000
01E00000
03C00000
03800000
07000000
0E000000
1C000000
18000000
38000000
30000000
70000000
60000000
60000000
E0000000
C0000000
C0000000
C000001C
C0000018
C0000018
C0000038
C0000030
C0000070
C0000060
E00000E0
600001C0
70000380
38000700
1C001E00
0F007C00
07FFF800
01FFC000
00080000
ENDCHAR
STARTCHAR 00C0
ENCODING 192
SWIDTH 573 0
DWIDTH 51 0
BBX 49 81 -3 0
BITMAP
00000007000000
00000003000000
00000003800000
00000001800000
00000001C00000
00000000E00000
00000000E00000
00000000700000
00000000300000
00000000380000
00000000180000
000000001C0000
00000000000000
00000000000000
00000000000000
00000000000000
00000000000000
00000000000000
00000000780000
00000000780000
00000000F80000
00000000D80000
00000001D80000
000000019C0000
000000039C0000
000000030C0000
000000070C0000
000000060C0000
0000000E0E0000
0000001C0E0000
00000018060000
00000038060000
00000030060000
00000070070000
00000060070000
000000E0070000
000000C0030000
000001C0030000
00000180030000
00000380038000
00000300038000
00000700018000
00000E00018000
00000E00018000
00001C0001C000
0000180001C000
0000380000C000
0000300000C000
0000700000C000
0000600000E000
0000E00000E000
0000C000006000
0001C000006000
00018000006000
00038000007000
00030000007000
00070000007000
000E0000003000
000E0000003000
001C0000003800
001FFFFFFFF800
003FFFFFFFF800
00300000001800
00700000001800
00600000001800
00E00000001C00
00C00000001C00
01C00000000C00
01800000000C00
03800000000C00
07000000000E00
07000000000E00
0E000000000600
0E000000000600
1C000000000600
18000000000700
38000000000700
30000000000700
70000000000300
60000000000300
E0000000000380
ENDCHAR
STARTCHAR 00C1
ENCODING 193
SWIDTH 573 0
DWIDTH 51 0
BBX 49 80 -3 0
BITMAP
00000000001E00
00000000001800
00000000003800
00000000007000
0000000000E000
0000000001C000
00000000038000
00000000070000
00000000060000
000000000E0000
000000001C0000
00000000000000
00000000000000
00000000000000
00000000000000
00000000000000
00000000000000
00000000780000
00000000780000
00000000F80000
00000000D80000
00000001D80000
000000019C0000
000000039C0000
000000030C0000
000000070C0000
000000060C0000
0000000E0E0000
0000001C0E0000
00000018060000
00000038060000
00000030060000
00000070070000
00000060070000
000000E0070000
000000C0030000
000001C0030000
00000180030000
00000380038000
00000300038000
00000700018000
00000E00018000
00000E00018000
00001C0001C000
0000180001C000
0000380000C000
0000300000C000
0000700000C000
0000600000E000
0000E00000E000
0000C000006000
0001C000006000
00018000006000
00038000007000
00030000007000
00070000007000
000E0000003000
000E0000003000
001C0000003800
001FFFFFFFF800
003FFFFFFFF800
00300000001800
00700000001800
00600000001800
00E00000001C00
00C00000001C00
01C00000000C00
01800000000C00
03800000000C00
07000000000E00
07000000000E00
0E000000000600
0E000000000600
1C000000000600
18000000000700
38000000000700
30000000000700
70000000000300
60000000000300
E0000000000380
ENDCHAR
STARTCHAR 00C2
ENCODING 194
SWIDTH 573 0
DWIDTH 51 0
BBX 49 80 -3 0
BITMAP
00000000060000
000000000F0000
000000001F0000
000000003B8000
00000000F1C000
00000001E0E000
00000003C0F000
00000007807000
0000000F003800
0000001C001C00
00000038001E00
00000000000000
00000000000000
00000000000000
00000000000000
00000000000000
00000000000000
00000000780000
00000000780000
00000000F80000
00000000D80000
00000001D80000
000000019C0000
000000039C0000
000000030C0000
000000070C0000
000000060C0000
0000000E0E0000
0000001C0E0000
00000018060000
00000038060000
00000030060000
00000070070000
00000060070000
000000E0070000
000000C0030000
000001C0030000
00000180030000
00000380038000
00000300038000
00000700018000
00000E00018000
00000E00018000
00001C0001C000
0000180001C000
0000380000C000
0000300000C000
0000700000C000
0000600000E000
0000E00000E000
0000C000006000
0001C000006000
00018000006000
00038000007000
00030000007000
00070000007000
000E0000003000
000E0000003000
001C0000003800
001FFFFFFFF800
003FFFFFFFF800
00300000001800
00700000001800
00600000001800
00E00000001C00
00C00000001C00
01C00000000C00
01800000000C00
03800000000C00
07000000000E00
07000000000E00
0E000000000600
0E000000000600
1C000000000600
18000000000700
38000000000700
30000000000700
70000000000300
60000000000300
E0000000000380
ENDCHAR
STARTCHAR 00C3
ENCODING 195
SWIDTH 573 0
DWIDTH 51 0
BBX 51 78 -3 0
BITMAP
00000007C00060
0000001FF000E0
0000003E7800E0
000000701E01C0
000000E0070380
000000E003FF00
000000C001FE00
000001C0007000
00000000000000
00000000000000
00000000000000
00000000000000
00000000000000
00000000000000
00000000000000
00000000780000
00000000780000
00000000F80000
00000000D80000
00000001D80000
000000019C0000
000000039C0000
000000030C0000
000000070C0000
000000060C0000
0000000E0E0000
0000001C0E0000
00000018060000
00000038060000
00000030060000
00000070070000
00000060070000
000000E0070000
000000C0030000
000001C0030000
00000180030000
00000380038000
00000300038000
00000700018000
00000E00018000
00000E00018000
00001C0001C000
0000180001C000
0000380000C000
0000300000C000
0000700000C000
0000600000E000
0000E00000E000
0000C000006000
0001C000006000
00018000006000
00038000007000
00030000007000
00070000007000
000E0000003000
000E0000003000
001C0000003800
001FFFFFFFF800
003FFFFFFFF800
00300000001800
00700000001800
00600000001800
00E00000001C00
00C00000001C00
01C00000000C00
01800000000C00
03800000000C00
07000000000E00
07000000000E00
0E000000000600
0E000000000600
1C000000000600
18000000000700
38000000000700
30000000000700
70000000000300
60000000000300
E0000000000380
ENDCHAR
STARTCHAR 00C4
ENCODING 196
SWIDTH 573 0
DWIDTH 51 0
BBX 49 78 -3 0
BITMAP
00000018000300
0000003C000780
0000003C000F80
0000003C000F80
00000038000700
00000000000000
00000000000000
00000000000000
00000000000000
00000000000000
00000000000000
00000000000000
00000000000000
00000000000000
00000000000000
00000000780000
00000000780000
00000000F80000
00000000D80000
00000001D80000
000000019C0000
000000039C0000
000000030C0000
000000070C0000
000000060C0000
0000000E0E0000
0000001C0E0000
00000018060000
00000038060000
00000030060000
00000070070000
00000060070000
000000E0070000
000000C0030000
000001C0030000
00000180030000
00000380038000
00000300038000
00000700018000
00000E00018000
00000E00018000
00001C0001C000
0000180001C000
0000380000C000
0000300000C000
0000700000C000
0000600000E000
0000E00000E000
0000C000006000
0001C000006000
00018000006000
00038000007000
00030000007000
00070000007000
000E0000003000
000E0000003000
001C0000003800
001FFFFFFFF800
003FFFFFFFF800
00300000001800
00700000001800
00600000001800
00E00000001C00
00C00000001C00
01C00000000C00
01800000000C00
03800000000C00
07000000000E00
07000000000E00
0E000000000600
0E000000000600
1C000000000600
18000000000700
38000000000700
30000000000700
70000000000300
60000000000300
E0000000000380
ENDCHAR
STARTCHAR 00C5
ENCODING 197
SWIDTH 573 0
DWIDTH 51 0
BBX 49 81 -3 0
BITMAP
000000001FC000
000000007FE000
00000000F0E000
00000001C07000
00000001803000
00000003803000
00000003003000
00000003003000
00000003003000
00000003007000
0000000380E000
00000001C1C000
00000001FF8000
00000000FF0000
00000000100000
00000000000000
00000000000000
00000000000000
00000000780000
00000000780000
00000000F80000
00000000D80000
00000001D80000
000000019C0000
000000039C0000
000000030C0000
000000070C0000
000000060C0000
0000000E0E0000
0000001C0E0000
00000018060000
00000038060000
00000030060000
00000070070000
00000060070000
000000E0070000
000000C0030000
000001C0030000
00000180030000
00000380038000
00000300038000
00000700018000
00000E00018000
00000E00018000
00001C0001C000
0000180001C000
0000380000C000
0000300000C000
0000700000C000
0000600000E000
0000E00000E000
0000C000006000
0001C000006000
00018000006000
00038000007000
00030000007000
00070000007000
000E0000003000
000E0000003000
001C0000003800
001FFFFFFFF800
003FFFFFFFF800
00300000001800
00700000001800
00600000001800
00E00000001C00
00C00000001C00
01C00000000C00
01800000000C00
03800000000C00
07000000000E00
07000000000E00
0E000000000600
0E000000000600
1C000000000600
18000000000700
38000000000700
30000000000700
70000000000300
60000000000300
E0000000000380
ENDCHAR
STARTCHAR 00C6
ENCODING 198
SWIDTH 855 0
DWIDTH 76 0
BBX 80 63 -2 0
BITMAP
000000000001FFFFFFFF
000000000003FFFFFFFF
000000000007E0000000
000000000007C0000000
00000000000EC0000000
00000000001CC0000000
000000000038C0000000
000000000038C0000000
000000000071C0000000
0000000000E1C0000000
0000000001C1C0000000
00000000018180000000
00000000038180000000
00000000070180000000
000000000E0180000000
000000000C0180000000
000000001C0380000000
00000000380380000000
00000000700300000000
00000000600300000000
00000000E00300000000
00000001C00300000000
00000003800300000000
00000003000700000000
00000007000700000000
0000000E000700000000
0000001C000600000000
00000018000600000000
00000038000600000000
000000700007FFFFFF00
000000E00007FFFFFF00
000001C0000E00000000
000001C0000E00000000
00000380000E00000000
00000700000C00000000
00000E00000C00000000
00000E00000C00000000
00001C00000C00000000
00003800001C00000000
00007000001C00000000
00007000001C00000000
0000E000001800000000
0001FFFFFFF800000000
0003FFFFFFF800000000
0003FFFFFFF800000000
00070000001800000000
000E0000003800000000
001C0000003800000000
00180000003800000000
00380000003000000000
00700000003000000000
00E00000003000000000
00C00000003000000000
01C00000003000000000
03800000007000000000
07000000007000000000
0E000000006000000000
0E000000006000000000
1C000000006000000000
38000000006000000000
70000000006000000000
7000000000FFFFFFFF00
E000000000FFFFFFFF00
ENDCHAR
STARTCHAR 00C7
ENCODING 199
SWIDTH 618 0
DWIDTH 55 0
BBX 47 83 6 -19
BITMAP
000001FFC000
00000FFFF800
00003FC0FE00
0000FC000F80
0001E00003C0
0003C00001E0
000F00000070
001E00000070
001C00000038
003800000018
00700000001C
00E00000000C
00C00000000E
01C00000000E
038000000006
038000000006
070000000006
060000000006
0E0000000006
0E0000000006
0C0000000000
1C0000000000
1C0000000000
180000000000
380000000000
380000000000
300000000000
300000000000
300000000000
700000000000
700000000000
700000000000
600000000000
600000000000
600000000000
E00000000000
E00000000000
C00000000000
C00000000000
C00000000000
C00000000000
C00000000000
C00000000000
C00000000000
C00000000000
C000000000E0
C000000000C0
C000000000C0
C000000001C0
E00000000180
E00000000380
600000000300
700000000700
700000000E00
300000001C00
380000001C00
1C0000003800
1C0000007000
0E000001E000
07000003C000
03C0000F0000
01F0007E0000
00FFBFF80000
003FFFE00000
0003FC000000
0000E0000000
0000C0000000
0000C0000000
0001F8000000
0001FC000000
00001E000000
000007000000
000003000000
000003000000
000003000000
000003000000
000007000000
000007000000
00000E000000
00003C000000
0000F8000000
001FE0000000
001F80000000
ENDCHAR
STARTCHAR 00C8
ENCODING 200
SWIDTH 551 0
DWIDTH 49 0
BBX 48 81 4 0
BITMAP
000003800000
000001C00000
000001C00000
000000E00000
000000600000
000000700000
000000300000
000000380000
000000180000
0000001C0000
0000000E0000
000000060000
000000000000
000000000000
000000000000
000000000000
000000000000
000000000000
001FFFFFFFFF
003FFFFFFFFF
003800000000
003800000000
003000000000
003000000000
003000000000
007000000000
007000000000
006000000000
006000000000
006000000000
006000000000
00E000000000
00E000000000
00C000000000
00C000000000
00C000000000
00C000000000
01C000000000
01C000000000
018000000000
018000000000
018000000000
018000000000
038000000000
038000000000
030000000000
030000000000
03FFFFFFFE00
07FFFFFFFE00
07FFFFFFFC00
070000000000
060000000000
060000000000
060000000000
0E0000000000
0E0000000000
0C0000000000
0C0000000000
0C0000000000
0C0000000000
1C0000000000
1C0000000000
180000000000
180000000000
180000000000
180000000000
380000000000
380000000000
300000000000
300000000000
300000000000
300000000000
700000000000
700000000000
600000000000
600000000000
600000000000
600000000000
E00000000000
FFFFFFFFFC00
FFFFFFFFF800
ENDCHAR
STARTCHAR 00C9
ENCODING 201
SWIDTH 551 0
DWIDTH 49 0
BBX 48 80 4 0
BITMAP
000000000700
000000000E00
000000001C00
000000003800
000000007000
00000000E000
00000000C000
00000001C000
000000038000
000000070000
0000000E0000
000000000000
000000000000
000000000000
000000000000
000000000000
000000000000
001FFFFFFFFF
003FFFFFFFFF
003800000000
003800000000
003000000000
003000000000
003000000000
007000000000
007000000000
006000000000
006000000000
006000000000
006000000000
00E000000000
00E000000000
00C000000000
00C000000000
00C000000000
00C000000000
01C000000000
01C000000000
018000000000
018000000000
018000000000
018000000000
038000000000
038000000000
030000000000
030000000000
03FFFFFFFE00
07FFFFFFFE00
07FFFFFFFC00
070000000000
060000000000
060000000000
060000000000
0E0000000000
0E0000000000
0C0000000000
0C0000000000
0C0000000000
0C0000000000
1C0000000000
1C0000000000
180000000000
180000000000
180000000000
180000000000
380000000000
380000000000
300000000000
300000000000
300000000000
300000000000
700000000000
700000000000
600000000000
600000000000
600000000000
600000000000
E00000000000
FFFFFFFFFC00
FFFFFFFFF800
ENDCHAR
STARTCHAR 00CA
ENCODING 202
SWIDTH 551 0
DWIDTH 49 0
BBX 48 80 4 0
BITMAP
000000030000
000000078000
0000000FC000
0000001CE000
00000038E000
000000707000
000000E03800
000003C01C00
000007801C00
00000F000E00
00001E000700
000000000000
000000000000
000000000000
000000000000
000000000000
000000000000
001FFFFFFFFF
003FFFFFFFFF
003800000000
003800000000
003000000000
003000000000
003000000000
007000000000
007000000000
006000000000
006000000000
006000000000
006000000000
00E000000000
00E000000000
00C000000000
00C000000000
00C000000000
00C000000000
01C000000000
01C000000000
018000000000
018000000000
018000000000
018000000000
038000000000
038000000000
030000000000
030000000000
03FFFFFFFE00
07FFFFFFFE00
07FFFFFFFC00
070000000000
060000000000
060000000000
060000000000
0E0000000000
0E0000000000
0C0000000000
0C0000000000
0C0000000000
0C0000000000
1C0000000000
1C0000000000
180000000000
180000000000
180000000000
180000000000
380000000000
380000000000
300000000000
300000000000
300000000000
300000000000
700000000000
700000000000
600000000000
600000000000
600000000000
600000000000
E00000000000
FFFFFFFFFC00
FFFFFFFFF800
ENDCHAR
STARTCHAR 00CB
ENCODING 203
SWIDTH 551 0
DWIDTH 49 0
BBX 48 78 4 0
BITMAP
00000E0001C0
00001F0003C0
00001F0003C0
00001E0003C0
00000C000180
000000000000
000000000000
000000000000
000000000000
000000000000
000000000000
000000000000
000000000000
000000000000
000000000000
001FFFFFFFFF
003FFFFFFFFF
003800000000
003800000000
003000000000
003000000000
003000000000
007000000000
007000000000
006000000000
006000000000
006000000000
006000000000
00E000000000
00E000000000
00C000000000
00C000000000
00C000000000
00C000000000
01C000000000
01C000000000
018000000000
018000000000
018000000000
018000000000
038000000000
038000000000
030000000000
030000000000
03FFFFFFFE00
07FFFFFFFE00
07FFFFFFFC00
070000000000
060000000000
060000000000
060000000000
0E0000000000
0E0000000000
0C0000000000
0C0000000000
0C0000000000
0C0000000000
1C0000000000
1C0000000000
180000000000
180000000000
180000000000
180000000000
380000000000
380000000000
300000000000
300000000000
300000000000
300000000000
700000000000
700000000000
600000000000
600000000000
600000000000
600000000000
E00000000000
FFFFFFFFFC00
FFFFFFFFF800
ENDCHAR
STARTCHAR 00CC
ENCODING 204
SWIDTH 247 0
DWIDTH 22 0
BBX 14 81 6 0
BITMAP
0300
0380
0180
01C0
00E0
00E0
0070
0030
0038
0018
001C
000C
0000
0000
0000
0000
0000
0000
0038
0038
0030
0030
0030
0030
0070
0070
0060
0060
0060
00E0
00E0
00C0
00C0
00C0
00C0
01C0
01C0
0180
0180
0180
0180
0380
0380
0300
0300
0300
0300
0700
0700
0600
0600
0600
0600
0E00
0E00
0C00
0C00
0C00
1C00
1C00
1800
1800
1800
1800
3800
3800
3000
3000
3000
3000
7000
7000
6000
6000
6000
6000
E000
E000
C000
C000
C000
ENDCHAR
STARTCHAR 00CD
ENCODING 205
SWIDTH 247 0
DWIDTH 22 0
BBX 23 80 6 0
BITMAP
00000E
00001C
000038
000070
0000E0
0000E0
0001C0
000380
000700
000E00
001C00
000000
000000
000000
000000
000000
000000
003800
003800
003000
003000
003000
003000
007000
007000
006000
006000
006000
00E000
00E000
00C000
00C000
00C000
00C000
01C000
01C000
018000
018000
018000
018000
038000
038000
030000
030000
030000
030000
070000
070000
060000
060000
060000
060000
0E0000
0E0000
0C0000
0C0000
0C0000
1C0000
1C0000
180000
180000
180000
180000
380000
380000
300000
300000
300000
300000
700000
700000
600000
600000
600000
600000
E00000
E00000
C00000
C00000
C00000
ENDCHAR
STARTCHAR 00CE
ENCODING 206
SWIDTH 247 0
DWIDTH 22 0
BBX 23 80 6 0
BITMAP
000600
000F00
001F80
003DC0
0070E0
00E0E0
01C070
038038
07003C
1E001C
3C000E
000000
000000
000000
000000
000000
000000
003800
003800
003000
003000
003000
003000
007000
007000
006000
006000
006000
00E000
00E000
00C000
00C000
00C000
00C000
01C000
01C000
018000
018000
018000
018000
038000
038000
030000
030000
030000
030000
070000
070000
060000
060000
060000
060000
0E0000
0E0000
0C0000
0C0000
0C0000
1C0000
1C0000
180000
180000
180000
180000
380000
380000
300000
300000
300000
300000
700000
700000
600000
600000
600000
600000
E00000
E00000
C00000
C00000
C00000
ENDCHAR
STARTCHAR 00CF
ENCODING 207
SWIDTH 247 0
DWIDTH 22 0
BBX 26 78 6 0
BITMAP
1C000380
3E000780
3E0007C0
3C000780
18000300
00000000
00000000
00000000
00000000
00000000
00000000
00000000
00000000
00000000
00000000
00380000
00380000
00300000
00300000
00300000
00300000
00700000
00700000
00600000
00600000
00600000
00E00000
00E00000
00C00000
00C00000
00C00000
00C00000
01C00000
01C00000
01800000
01800000
01800000
01800000
03800000
03800000
03000000
03000000
03000000
03000000
07000000
07000000
06000000
06000000
06000000
06000000
0E000000
0E000000
0C000000
0C000000
0C000000
1C000000
1C000000
18000000
18000000
18000000
18000000
38000000
38000000
30000000
30000000
30000000
30000000
70000000
70000000
60000000
60000000
60000000
60000000
E0000000
E0000000
C0000000
C0000000
C0000000
ENDCHAR
STARTCHAR 00D0
ENCODING 208
SWIDTH 641 0
DWIDTH 57 0
BBX 49 63 5 0
BITMAP
001FFFFFC00000
001FFFFFF80000
00180001FE0000
003800001F0000
00380000078000
0030000001E000
0030000000F000
00300000007000
00300000003800
00700000001C00
00700000001C00
00600000000E00
00600000000600
00600000000700
00600000000700
00E00000000300
00E00000000300
00C00000000380
00C00000000380
00C00000000180
00C00000000180
01C00000000180
01C00000000180
01800000000180
01800000000180
01800000000180
03800000000380
03800000000380
03800000000300
03000000000300
FFFFFF80000300
FFFFFF80000300
07000000000700
07000000000700
06000000000600
06000000000600
06000000000600
06000000000E00
0E000000000E00
0E000000000C00
0C000000000C00
0C000000001C00
0C000000001800
0C000000003800
1C000000003000
1C000000007000
18000000006000
1800000000E000
1800000001C000
1800000001C000
38000000038000
38000000070000
300000000E0000
300000001C0000
30000000380000
70000000700000
70000001E00000
70000007C00000
6000000F800000
6000007E000000
60000FF8000000
FFFFFFC0000000
FFFFFE00000000
ENDCHAR
STARTCHAR 00D1
ENCODING 209
SWIDTH 686 0
DWIDTH 61 0
BBX 55 78 4 0
BITMAP
0000003F000180
0000007FC00380
000000F1E00300
000001C0700700
000003801C0E00
000003000FFC00
0000070007F800
0000070001E000
00000000000000
00000000000000
00000000000000
00000000000000
00000000000000
00000000000000
00000000000000
00180000000006
003C000000000E
003C000000000E
003E000000000C
0036000000000C
0037000000000C
0033000000000C
0073800000001C
0071800000001C
0071C000000018
0060C000000018
0060E000000018
00606000000038
00E07000000038
00E03000000038
00E03800000030
00C01800000030
00C01C00000030
00C00C00000070
01C00E00000070
01C00600000060
01C00700000060
01800300000060
01800380000060
038001800000E0
038001C00000E0
038000C00000C0
030000E00000C0
030000600000C0
030000700000C0
070000300001C0
070000380001C0
07000018000180
0600001C000180
0600000C000180
0600000E000380
0E000006000380
0E000007000380
0E000003000300
0C000003800300
0C000001800300
0C000001C00700
1C000000C00700
1C000000E00700
1C000000600600
18000000700600
18000000300600
18000000380E00
38000000180E00
380000001C0E00
300000000C0C00
300000000E0C00
30000000060C00
30000000071C00
70000000031C00
70000000039800
60000000019800
6000000001D800
6000000000D800
E000000000F800
E0000000007800
E0000000007000
C0000000003000
ENDCHAR
STARTCHAR 00D2
ENCODING 210
SWIDTH 641 0
DWIDTH 57 0
BBX 49 82 5 -1
BITMAP
000000E0000000
00000070000000
00000030000000
00000038000000
00000018000000
0000001C000000
0000000C000000
0000000E000000
00000006000000
00000003000000
00000003800000
00000000000000
00000000000000
00000000000000
00000000000000
00000000000000
00000000000000
0000007FE00000
000007FFFC0000
00001FE07F0000
00007E0007C000
0000F00001E000
0003C00000F000
00078000007800
000F0000003800
001E0000001C00
003C0000000C00
00380000000E00
00700000000600
00E00000000700
00C00000000300
01C00000000300
03800000000300
03800000000380
03000000000180
07000000000180
06000000000180
0E000000000180
0C000000000180
0C000000000180
1C000000000180
18000000000180
18000000000180
18000000000380
38000000000380
38000000000380
30000000000300
30000000000300
30000000000300
30000000000700
70000000000700
70000000000700
60000000000600
60000000000600
60000000000600
60000000000E00
E0000000000E00
E0000000000C00
E0000000000C00
E0000000001C00
E0000000001800
E0000000001800
E0000000003800
E0000000003000
60000000007000
60000000006000
6000000000E000
7000000000C000
7000000001C000
30000000038000
38000000070000
18000000070000
1C0000000E0000
0C0000001C0000
0E000000780000
07000000F00000
03800001E00000
01E00007800000
00F8003F000000
003FEFFC000000
000FFFF0000000
0001FF00000000
ENDCHAR
STARTCHAR 00D3
ENCODING 211
SWIDTH 641 0
DWIDTH 57 0
BBX 49 82 5 -1
BITMAP
00000000038000
00000000070000
00000000070000
000000000E0000
000000001C0000
00000000380000
00000000700000
00000000E00000
00000001C00000
00000001800000
00000003800000
00000000000000
00000000000000
00000000000000
00000000000000
00000000000000
00000000000000
0000007FE00000
000007FFFC0000
00001FE07F0000
00007E0007C000
0000F00001E000
0003C00000F000
00078000007800
000F0000003800
001E0000001C00
003C0000000C00
00380000000E00
00700000000600
00E00000000700
00C00000000300
01C00000000300
03800000000300
03800000000380
03000000000180
07000000000180
06000000000180
0E000000000180
0C000000000180
0C000000000180
1C000000000180
18000000000180
18000000000180
18000000000380
38000000000380
38000000000380
30000000000300
30000000000300
30000000000300
30000000000700
70000000000700
70000000000700
60000000000600
60000000000600
60000000000600
60000000000E00
E0000000000E00
E0000000000C00
E0000000000C00
E0000000001C00
E0000000001800
E0000000001800
E0000000003800
E0000000003000
60000000007000
60000000006000
6000000000E000
7000000000C000
7000000001C000
30000000038000
38000000070000
18000000070000
1C0000000E0000
0C0000001C0000
0E000000780000
07000000F00000
03800001E00000
01E00007800000
00F8003F000000
003FEFFC000000
000FFFF0000000
0001FF00000000
ENDCHAR
STARTCHAR 00D4
ENCODING 212
SWIDTH 641 0
DWIDTH 57 0
BBX 49 82 5 -1
BITMAP
00000000C00000
00000001C00000
00000003E00000
0000000F700000
0000001E380000
0000003C1C0000
000000781C0000
000000F00E0000
000001C0070000
00000380038000
0000070003C000
00000000000000
00000000000000
00000000000000
00000000000000
00000000000000
00000000000000
0000007FE00000
000007FFFC0000
00001FE07F0000
00007E0007C000
0000F00001E000
0003C00000F000
00078000007800
000F0000003800
001E0000001C00
003C0000000C00
00380000000E00
00700000000600
00E00000000700
00C00000000300
01C00000000300
03800000000300
03800000000380
03000000000180
07000000000180
06000000000180
0E000000000180
0C000000000180
0C000000000180
1C000000000180
18000000000180
18000000000180
18000000000380
38000000000380
38000000000380
30000000000300
30000000000300
30000000000300
30000000000700
70000000000700
70000000000700
60000000000600
60000000000600
60000000000600
60000000000E00
E0000000000E00
E0000000000C00
E0000000000C00
E0000000001C00
E0000000001800
E0000000001800
E0000000003800
E0000000003000
60000000007000
60000000006000
6000000000E000
7000000000C000
7000000001C000
30000000038000
38000000070000
18000000070000
1C0000000E0000
0C0000001C0000
0E000000780000
07000000F00000
03800001E00000
01E00007800000
00F8003F000000
003FEFFC000000
000FFFF0000000
0001FF00000000
ENDCHAR
STARTCHAR 00D5
ENCODING 213
SWIDTH 641 0
DWIDTH 57 0
BBX 49 80 5 -1
BITMAP
000000F8000C00
000003FE001C00
000007CF001800
00000E03803800
00001C01E07000
00001C007FE000
000038003FC000
000038000F0000
00000000000000
00000000000000
00000000000000
00000000000000
00000000000000
00000000000000
00000000000000
0000007FE00000
000007FFFC0000
00001FE07F0000
00007E0007C000
0000F00001E000
0003C00000F000
00078000007800
000F0000003800
001E0000001C00
003C0000000C00
00380000000E00
00700000000600
00E00000000700
00C00000000300
01C00000000300
03800000000300
03800000000380
03000000000180
07000000000180
06000000000180
0E000000000180
0C000000000180
0C000000000180
1C000000000180
18000000000180
18000000000180
18000000000380
38000000000380
38000000000380
30000000000300
30000000000300
30000000000300
30000000000700
70000000000700
70000000000700
60000000000600
60000000000600
60000000000600
60000000000E00
E0000000000E00
E0000000000C00
E0000000000C00
E0000000001C00
E0000000001800
E0000000001800
E0000000003800
E0000000003000
60000000007000
60000000006000
6000000000E000
7000000000C000
7000000001C000
30000000038000
38000000070000
18000000070000
1C0000000E0000
0C0000001C0000
0E000000780000
07000000F00000
03800001E00000
01E00007800000
00F8003F000000
003FEFFC000000
000FFFF0000000
0001FF00000000
ENDCHAR
STARTCHAR 00D6
ENCODING 214
SWIDTH 641 0
DWIDTH 57 0
BBX 49 80 5 -1
BITMAP
00000300006000
0000078000F000
00000F8001F000
0000078001F000
0000070000E000
00000000000000
00000000000000
00000000000000
00000000000000
00000000000000
00000000000000
00000000000000
00000000000000
00000000000000
00000000000000
0000007FE00000
000007FFFC0000
00001FE07F0000
00007E0007C000
0000F00001E000
0003C00000F000
00078000007800
000F0000003800
001E0000001C00
003C0000000C00
00380000000E00
00700000000600
00E00000000700
00C00000000300
01C00000000300
03800000000300
03800000000380
03000000000180
07000000000180
06000000000180
0E000000000180
0C000000000180
0C000000000180
1C000000000180
18000000000180
18000000000180
18000000000380
38000000000380
38000000000380
30000000000300
30000000000300
30000000000300
30000000000700
70000000000700
70000000000700
60000000000600
60000000000600
60000000000600
60000000000E00
E0000000000E00
E0000000000C00
E0000000000C00
E0000000001C00
E0000000001800
E0000000001800
E0000000003800
E0000000003000
60000000007000
60000000006000
6000000000E000
7000000000C000
7000000001C000
30000000038000
38000000070000
18000000070000
1C0000000E0000
0C0000001C0000
0E000000780000
07000000F00000
03800001E00000
01E00007800000
00F8003F000000
003FEFFC000000
000FFFF0000000
0001FF00000000
ENDCHAR
STARTCHAR 00D7
ENCODING 215
SWIDTH 495 0
DWIDTH 44 0
BBX 40 36 0 0
BITMAP
0080000002
01C0000007
01E000000E
00E000003C
0070000078
00380000F0
001C0001E0
001C0003C0
000E000700
0007000E00
0003801C00
0001C03800
0001C0F000
0000E1E000
000073C000
00003F8000
00003E0000
00001C0000
00003E0000
0000770000
0001E38000
0003C38000
000781C000
000F00E000
001C007000
0038007800
0070003800
00E0001C00
03C0000E00
0780000700
0F00000700
1E00000380
38000001C0
70000000E0
E0000000F0
4000000040
ENDCHAR
STARTCHAR 00D8
ENCODING 216
SWIDTH 641 0
DWIDTH 57 0
BBX 56 68 3 -3
BITMAP
00000000000007
0000001FF8000E
000001FFFF001C
000007F83FC038
00001F8001E038
00003C00007870
0000F000003CE0
0001E000001DC0
0003C000000F80
00078000000780
000F0000000700
000E0000000F80
001C0000001D80
00380000003DC0
003000000038C0
007000000070C0
00E0000000E0C0
00E0000001C0E0
00C0000001C060
01C00000038060
01800000070060
038000000E0060
030000001C0060
030000001C0060
07000000380060
06000000700060
06000000E00060
06000001C000E0
0E000001C000E0
0E0000038000E0
0C0000070000C0
0C00000E0000C0
0C00001E0000C0
0C00001C0001C0
1C0000380001C0
1C0000700001C0
180000E0000180
180000E0000180
180001C0000180
18000380000380
38000700000380
38000E00000300
38000E00000300
38001C00000700
38003800000600
38007000000600
3800E000000E00
3800E000000C00
1801C000001C00
18038000001800
18070000003800
1C0F0000003000
1C0E0000007000
0C1C000000E000
0E38000001C000
0670000001C000
07700000038000
03E00000070000
03C000001E0000
03C000003C0000
07E00000780000
07780001E00000
0E3E000FC00000
1C0FFBFF000000
3803FFFC000000
70007FC0000000
70000000000000
E0000000000000
ENDCHAR
STARTCHAR 00D9
ENCODING 217
SWIDTH 641 0
DWIDTH 57 0
BBX 50 82 6 -1
BITMAP
000000C0000000
000000E0000000
00000060000000
00000070000000
00000038000000
00000038000000
0000001C000000
0000000C000000
0000000E000000
00000006000000
00000007000000
00000003000000
00000000000000
00000000000000
00000000000000
00000000000000
00000000000000
00000000000000
00C000000000C0
00C000000001C0
00C000000001C0
00C00000000180
01C00000000180
01C00000000180
01800000000180
01800000000380
01800000000380
03800000000300
03800000000300
03000000000300
03000000000300
03000000000700
03000000000700
07000000000600
07000000000600
06000000000600
06000000000600
06000000000E00
06000000000E00
0E000000000C00
0E000000000C00
0C000000000C00
0C000000000C00
0C000000001C00
0C000000001C00
1C000000001800
1C000000001800
18000000001800
18000000003800
18000000003800
18000000003800
38000000003000
38000000003000
30000000003000
30000000007000
30000000007000
70000000006000
70000000006000
60000000006000
60000000006000
6000000000E000
6000000000E000
6000000000C000
E000000000C000
E000000001C000
E0000000018000
60000000018000
60000000038000
60000000070000
70000000070000
700000000E0000
300000001C0000
380000001C0000
18000000380000
1C000000F00000
0E000001E00000
07000003C00000
03C0000F800000
01F0007E000000
00FFDFF8000000
003FFFE0000000
0003FE00000000
ENDCHAR
STARTCHAR 00DA
ENCODING 218
SWIDTH 641 0
DWIDTH 57 0
BBX 50 81 6 -1
BITMAP
00000000038000
00000000070000
000000000E0000
000000001C0000
00000000180000
00000000380000
00000000700000
00000000E00000
00000001C00000
00000003800000
00000007000000
00000000000000
00000000000000
00000000000000
00000000000000
00000000000000
00000000000000
00C000000000C0
00C000000001C0
00C000000001C0
00C00000000180
01C00000000180
01C00000000180
01800000000180
01800000000380
01800000000380
03800000000300
03800000000300
03000000000300
03000000000300
03000000000700
03000000000700
07000000000600
07000000000600
06000000000600
06000000000600
06000000000E00
06000000000E00
0E000000000C00
0E000000000C00
0C000000000C00
0C000000000C00
0C000000001C00
0C000000001C00
1C000000001800
1C000000001800
18000000001800
18000000003800
18000000003800
18000000003800
38000000003000
38000000003000
30000000003000
30000000007000
30000000007000
70000000006000
70000000006000
60000000006000
60000000006000
6000000000E000
6000000000E000
6000000000C000
E000000000C000
E000000001C000
E0000000018000
60000000018000
60000000038000
60000000070000
70000000070000
700000000E0000
300000001C0000
380000001C0000
18000000380000
1C000000F00000
0E000001E00000
07000003C00000
03C0000F800000
01F0007E000000
00FFDFF8000000
003FFFE0000000
0003FE00000000
ENDCHAR
STARTCHAR 00DB
ENCODING 219
SWIDTH 641 0
DWIDTH 57 0
BBX 50 81 6 -1
BITMAP
00000001800000
00000003C00000
00000007E00000
0000000F700000
0000001E380000
00000038380000
000000701C0000
000000E00E0000
000001C0070000
00000780070000
00000F00038000
00000000000000
00000000000000
00000000000000
00000000000000
00000000000000
00000000000000
00C000000000C0
00C000000001C0
00C000000001C0
00C00000000180
01C00000000180
01C00000000180
01800000000180
01800000000380
01800000000380
03800000000300
03800000000300
03000000000300
03000000000300
03000000000700
03000000000700
07000000000600
07000000000600
06000000000600
06000000000600
06000000000E00
06000000000E00
0E000000000C00
0E000000000C00
0C000000000C00
0C000000000C00
0C000000001C00
0C000000001C00
1C000000001800
1C000000001800
18000000001800
18000000003800
18000000003800
18000000003800
38000000003000
38000000003000
30000000003000
30000000007000
30000000007000
70000000006000
70000000006000
60000000006000
60000000006000
6000000000E000
6000000000E000
6000000000C000
E000000000C000
E000000001C000
E0000000018000
60000000018000
60000000038000
60000000070000
70000000070000
700000000E0000
300000001C0000
380000001C0000
18000000380000
1C000000F00000
0E000001E00000
07000003C00000
03C0000F800000
01F0007E000000
00FFDFF8000000
003FFFE0000000
0003FE00000000
ENDCHAR
STARTCHAR 00DC
ENCODING 220
SWIDTH 641 0
DWIDTH 57 0
BBX 50 79 6 -1
BITMAP
0000070000E000
00000F8001E000
00000F8001F000
00000F8001E000
0000060000C000
00000000000000
00000000000000
00000000000000
00000000000000
00000000000000
00000000000000
00000000000000
00000000000000
00000000000000
00000000000000
00C000000000C0
00C000000001C0
00C000000001C0
00C00000000180
01C00000000180
01C00000000180
01800000000180
01800000000380
01800000000380
03800000000300
03800000000300
03000000000300
03000000000300
03000000000700
03000000000700
07000000000600
07000000000600
06000000000600
06000000000600
06000000000E00
06000000000E00
0E000000000C00
0E000000000C00
0C000000000C00
0C000000000C00
0C000000001C00
0C000000001C00
1C000000001800
1C000000001800
18000000001800
18000000003800
18000000003800
18000000003800
38000000003000
38000000003000
30000000003000
30000000007000
30000000007000
70000000006000
70000000006000
60000000006000
60000000006000
6000000000E000
6000000000E000
6000000000C000
E000000000C000
E000000001C000
E0000000018000
60000000018000
60000000038000
60000000070000
70000000070000
700000000E0000
300000001C0000
380000001C0000
18000000380000
1C000000F00000
0E000001E00000
07000003C00000
03C0000F800000
01F0007E000000
00FFDFF8000000
003FFFE0000000
0003FE00000000
ENDCHAR
STARTCHAR 00DD
ENCODING 221
SWIDTH 573 0
DWIDTH 51 0
BBX 48 80 8 0
BITMAP
00000000E000
00000000E000
00000001C000
000000038000
000000070000
0000000E0000
0000001C0000
000000180000
000000380000
000000700000
000000E00000
000000000000
000000000000
000000000000
000000000000
000000000000
000000000000
E00000000007
E0000000000E
70000000001C
70000000001C
380000000038
380000000070
1800000000E0
1C00000000E0
1C00000001C0
0E0000000380
0E0000000700
060000000700
070000000E00
030000001C00
038000003800
038000003000
018000007000
01C00000E000
00C00001C000
00E000018000
00E000038000
006000070000
0070000E0000
0030000C0000
0038001C0000
001800380000
001800700000
001C00600000
000C00E00000
000E01C00000
000603800000
000603000000
000307000000
00030E000000
00039C000000
000198000000
0001B0000000
0000F0000000
0000E0000000
0000C0000000
0000C0000000
0000C0000000
0000C0000000
0001C0000000
0001C0000000
000180000000
000180000000
000180000000
000380000000
000380000000
000380000000
000300000000
000300000000
000300000000
000700000000
000700000000
000600000000
000600000000
000600000000
000600000000
000E00000000
000E00000000
000C00000000
ENDCHAR
STARTCHAR 00DE
ENCODING 222
SWIDTH 573 0
DWIDTH 51 0
BBX 43 63 4 0
BITMAP
001800000000
003800000000
003800000000
003800000000
003000000000
003000000000
003000000000
007000000000
007000000000
006000000000
006000000000
006000000000
006000000000
00FFFFF00000
00FFFFFF8000
00FFFFFFE000
00C00001F800
00C000003C00
00C000001E00
01C000000700
01C000000380
018000000380
0180000001C0
0180000001C0
0180000000C0
0380000000C0
0380000000E0
0300000000E0
0300000000E0
0300000000E0
0700000000C0
0700000000C0
0700000000C0
0600000001C0
060000000180
060000000180
0E0000000380
0E0000000700
0C0000000700
0C0000000E00
0C0000001C00
0C0000003800
1C000000F000
1C000001E000
18000007C000
1800003F0000
1FFFFFFC0000
1FFFFFE00000
3FFFF8000000
380000000000
300000000000
300000000000
300000000000
300000000000
700000000000
700000000000
600000000000
600000000000
600000000000
600000000000
E00000000000
E00000000000
C00000000000
ENDCHAR
STARTCHAR 00DF
ENCODING 223
SWIDTH 551 0
DWIDTH 49 0
BBX 41 68 2 -1
BITMAP
000000E00000
00000FFE0000
00003FFF8000
0000F803C000
0001E001E000
0003C000E000
000700007000
000700003000
000E00003800
000C00003800
001C00003800
001800003800
003800003800
003000003800
003000003000
007000007000
007000007000
00600000E000
00600000E000
00600001C000
00E00001C000
00E000038000
00C000030000
00C000070000
00C000060000
00C0000E0000
01C0000C0000
01C0001C0000
018000180000
018000180000
018000380000
038000380000
038000300000
038000300000
030000380000
030000180000
0300001C0000
0700000C0000
070000060000
070000070000
060000038000
06000001C000
06000000E000
0E0000003000
0E0000001800
0C0000000C00
0C0000000E00
0C0000000600
0C0000000300
1C0000000300
1C0000000300
180000000380
180000000380
180000000380
180000000300
380000000300
380000000700
300000000700
300000000E00
300000001C00
300000001C00
700000003800
70100000F000
603C0001E000
601F000FC000
600FF9FF0000
E003FFFC0000
00003FE00000
ENDCHAR
STARTCHAR 00E0
ENCODING 224
SWIDTH 506 0
DWIDTH 45 0
BBX 39 68 1 -1
BITMAP
0000070000
0000038000
0000038000
000001C000
000000C000
000000E000
0000006000
0000007000
0000003000
0000003800
0000001800
0000000C00
0000000000
0000000000
0000000000
0000000000
0000000000
0000000000
0000000000
000007F000
00007FFF00
0001FFFF80
0007C003E0
001F0000F0
003C000078
0078000038
00F000001C
00E000000C
01C000000C
018000000C
038000000E
030000000E
030000000C
000000000C
000000000C
000000000C
000000000C
000000001C
000000001C
0000000018
0000000018
00007FFFF8
0007FFFFF8
003FF00038
00FE000038
01F0000030
07C0000030
0F00000030
1E00000030
1C00000070
3800000070
7000000060
7000000060
6000000060
E0000000E0
E0000000E0
E0000001C0
E0000003C0
E0000007C0
E000000EC0
6000001DC0
70000079C0
380000F1C0
3C0003E1C0
1F000F81C0
0FF3FE01C0
03FFF801C0
007F800000
ENDCHAR
STARTCHAR 00E1
ENCODING 225
SWIDTH 506 0
DWIDTH 45 0
BBX 39 68 1 -1
BITMAP
000000000E
000000001C
0000000018
0000000038
0000000070
00000000E0
00000001C0
0000000380
0000000700
0000000600
0000000E00
0000001C00
0000000000
0000000000
0000000000
0000000000
0000000000
0000000000
0000000000
000007F000
00007FFF00
0001FFFF80
0007C003E0
001F0000F0
003C000078
0078000038
00F000001C
00E000000C
01C000000C
018000000C
038000000E
030000000E
030000000C
000000000C
000000000C
000000000C
000000000C
000000001C
000000001C
0000000018
0000000018
00007FFFF8
0007FFFFF8
003FF00038
00FE000038
01F0000030
07C0000030
0F00000030
1E00000030
1C00000070
3800000070
7000000060
7000000060
6000000060
E0000000E0
E0000000E0
E0000001C0
E0000003C0
E0000007C0
E000000EC0
6000001DC0
70000079C0
380000F1C0
3C0003E1C0
1F000F81C0
0FF3FE01C0
03FFF801C0
007F800000
ENDCHAR
STARTCHAR 00E2
ENCODING 226
SWIDTH 506 0
DWIDTH 45 0
BBX 39 67 1 -1
BITMAP
0000000600
0000000F00
0000001F80
0000003B80
000000F1C0
000001E0E0
000003C070
0000078078
00000F0038
00001C001C
000038000E
0000000000
0000000000
0000000000
0000000000
0000000000
0000000000
0000000000
000007F000
00007FFF00
0001FFFF80
0007C003E0
001F0000F0
003C000078
0078000038
00F000001C
00E000000C
01C000000C
018000000C
038000000E
030000000E
030000000C
000000000C
000000000C
000000000C
000000000C
000000001C
000000001C
0000000018
0000000018
00007FFFF8
0007FFFFF8
003FF00038
00FE000038
01F0000030
07C0000030
0F00000030
1E00000030
1C00000070
3800000070
7000000060
7000000060
6000000060
E0000000E0
E0000000E0
E0000001C0
E0000003C0
E0000007C0
E000000EC0
6000001DC0
70000079C0
380000F1C0
3C0003E1C0
1F000F81C0
0FF3FE01C0
03FFF801C0
007F800000
ENDCHAR
STARTCHAR 00E3
ENCODING 227
SWIDTH 506 0
DWIDTH 45 0
BBX 43 65 1 -1
BITMAP
000007E00060
00001FF000E0
00003C3C00E0
0000700E01C0
000060070380
0000E003FF00
0000C000FE00
0001C0003000
000000000000
000000000000
000000000000
000000000000
000000000000
000000000000
000000000000
000000000000
000007F00000
00007FFF0000
0001FFFF8000
0007C003E000
001F0000F000
003C00007800
007800003800
00F000001C00
00E000000C00
01C000000C00
018000000C00
038000000E00
030000000E00
030000000C00
000000000C00
000000000C00
000000000C00
000000000C00
000000001C00
000000001C00
000000001800
000000001800
00007FFFF800
0007FFFFF800
003FF0003800
00FE00003800
01F000003000
07C000003000
0F0000003000
1E0000003000
1C0000007000
380000007000
700000006000
700000006000
600000006000
E0000000E000
E0000000E000
E0000001C000
E0000003C000
E0000007C000
E000000EC000
6000001DC000
70000079C000
380000F1C000
3C0003E1C000
1F000F81C000
0FF3FE01C000
03FFF801C000
007F80000000
ENDCHAR
STARTCHAR 00E4
ENCODING 228
SWIDTH 506 0
DWIDTH 45 0
BBX 41 65 1 -1
BITMAP
00001C000300
00003C000780
00003C000F80
00003C000780
000018000300
000000000000
000000000000
000000000000
000000000000
000000000000
000000000000
000000000000
000000000000
000000000000
000000000000
000000000000
000007F00000
00007FFF0000
0001FFFF8000
0007C003E000
001F0000F000
003C00007800
007800003800
00F000001C00
00E000000C00
01C000000C00
018000000C00
038000000E00
030000000E00
030000000C00
000000000C00
000000000C00
000000000C00
000000000C00
000000001C00
000000001C00
000000001800
000000001800
00007FFFF800
0007FFFFF800
003FF0003800
00FE00003800
01F000003000
07C000003000
0F0000003000
1E0000003000
1C0000007000
380000007000
700000006000
700000006000
600000006000
E0000000E000
E0000000E000
E0000001C000
E0000003C000
E0000007C000
E000000EC000
6000001DC000
70000079C000
380000F1C000
3C0003E1C000
1F000F81C000
0FF3FE01C000
03FFF801C000
007F80000000
ENDCHAR
STARTCHAR 00E5
ENCODING 229
SWIDTH 506 0
DWIDTH 45 0
BBX 39 68 1 -1
BITMAP
0000001FC0
0000007FE0
000000F070
000001C030
0000018030
0000038038
0000030038
0000030030
0000030030
0000030070
00000380E0
000001C1C0
000000FF80
0000007F00
0000000000
0000000000
0000000000
0000000000
0000000000
000007F000
00007FFF00
0001FFFF80
0007C003E0
001F0000F0
003C000078
0078000038
00F000001C
00E000000C
01C000000C
018000000C
038000000E
030000000E
030000000C
000000000C
000000000C
000000000C
000000000C
000000001C
000000001C
0000000018
0000000018
00007FFFF8
0007FFFFF8
003FF00038
00FE000038
01F0000030
07C0000030
0F00000030
1E00000030
1C00000070
3800000070
7000000060
7000000060
6000000060
E0000000E0
E0000000E0
E0000001C0
E0000003C0
E0000007C0
E000000EC0
6000001DC0
70000079C0
380000F1C0
3C0003E1C0
1F000F81C0
0FF3FE01C0
03FFF801C0
007F800000
ENDCHAR
STARTCHAR 00E6
ENCODING 230
SWIDTH 821 0
DWIDTH 73 0
BBX 70 49 1 -1
BITMAP
000007F000000FE000
00007FFE0000FFFC00
0003FFFF0003FFFF00
0007C0038007C00780
001F0001C01F0003C0
003C0000E03C0000E0
0078000060780000E0
00E0000070F0000070
00E0000030E0000030
01C0000031C0000038
018000003B80000018
038000003F00000018
030000003F00000018
030000003E00000018
000000003E0000001C
000000003C0000001C
000000003C0000001C
000000003800000018
000000003800000018
000000003000000018
000000007000000018
0003FFFFFFFFFFFFF8
001FFFFFFFFFFFFFF8
007F80006000000000
00F800006000000000
03E000006000000000
07800000E000000000
0F000000E000000000
1E000000E000000000
1C000000E000000000
38000000C000000000
30000000C000000000
70000001E000000000
70000001E000000000
60000001E000000000
60000001E000000000
E0000001E000000000
E0000001E000000000
E0000003F000000000
E00000073000000000
600000063800000000
6000000E1800000200
7000003C1C00000700
380000780E00001E00
1C0001E00700007C00
1F000FC003C001F000
07F1FF0001FFFFE000
01FFF800007FFF0000
003FC000000FF00000
ENDCHAR
STARTCHAR 00E7
ENCODING 231
SWIDTH 483 0
DWIDTH 43 0
BBX 38 67 3 -19
BITMAP
00001FC000
0000FFFC00
0003FFFE00
000F800F80
001E0003C0
00380001E0
00700000E0
00E0000070
01C0000030
0380000038
0300000018
0700000018
0E00000018
0E00000018
1C0000001C
1C0000001C
180000001C
3800000000
3000000000
3000000000
7000000000
7000000000
6000000000
6000000000
6000000000
E000000000
E000000000
E000000000
E000000000
E000000000
C000000000
C000000000
E000000000
E000000000
E0000000E0
60000000C0
60000001C0
60000001C0
7000000380
3000000300
3800000700
1800000E00
1C00001C00
0E00003800
070000F000
03C003E000
01FEFF8000
007FFE0000
000FE00000
0003800000
0003000000
0003000000
0007E00000
0007F00000
0000780000
00001C0000
00000C0000
00000C0000
00000C0000
00000C0000
00001C0000
00001C0000
0000380000
0000F00000
0007E00000
007F800000
007C000000
ENDCHAR
STARTCHAR 00E8
ENCODING 232
SWIDTH 483 0
DWIDTH 43 0
BBX 38 68 3 -1
BITMAP
0000380000
00001C0000
00001C0000
00000E0000
0000060000
0000070000
0000030000
0000038000
0000018000
000001C000
000000C000
0000006000
0000000000
0000000000
0000000000
0000000000
0000000000
0000000000
0000000000
00001FC000
0000FFF800
0003FFFE00
000F800F00
001E000380
00380001C0
00700000E0
00E0000060
01C0000070
0380000030
0300000038
0700000018
0E00000018
0C00000018
1C0000001C
180000001C
380000001C
300000001C
300000001C
7000000018
6000000018
7FFFFFFFF8
7FFFFFFFF8
E000000000
E000000000
C000000000
C000000000
C000000000
C000000000
C000000000
C000000000
C000000000
C000000000
E000000000
E000000000
6000000000
6000000000
7000000000
3000000000
3800000000
1800000100
1C00000380
0E00000F00
0700001E00
0780007800
01E001F000
00FF3FC000
003FFF0000
0007F80000
ENDCHAR
STARTCHAR 00E9
ENCODING 233
SWIDTH 483 0
DWIDTH 43 0
BBX 38 68 3 -1
BITMAP
0000000070
00000000E0
00000000E0
00000001C0
0000000380
0000000700
0000000E00
0000001C00
0000001800
0000003800
0000007000
000000E000
0000000000
0000000000
0000000000
0000000000
0000000000
0000000000
0000000000
00001FC000
0000FFF800
0003FFFE00
000F800F00
001E000380
00380001C0
00700000E0
00E0000060
01C0000070
0380000030
0300000038
0700000018
0E00000018
0C00000018
1C0000001C
180000001C
380000001C
300000001C
300000001C
7000000018
6000000018
7FFFFFFFF8
7FFFFFFFF8
E000000000
E000000000
C000000000
C000000000
C000000000
C000000000
C000000000
C000000000
C000000000
C000000000
E000000000
E000000000
6000000000
6000000000
7000000000
3000000000
3800000000
1800000100
1C00000380
0E00000F00
0700001E00
0780007800
01E001F000
00FF3FC000
003FFF0000
0007F80000
ENDCHAR
STARTCHAR 00EA
ENCODING 234
SWIDTH 483 0
DWIDTH 43 0
BBX 38 67 3 -1
BITMAP
0000003000
0000007800
000000FC00
000001CC00
0000038E00
00000F0700
00001E0380
00003C03C0
00007801C0
0000F000E0
0001C00070
0000000000
0000000000
0000000000
0000000000
0000000000
0000000000
0000000000
00001FC000
0000FFF800
0003FFFE00
000F800F00
001E000380
00380001C0
00700000E0
00E0000060
01C0000070
0380000030
0300000038
0700000018
0E00000018
0C00000018
1C0000001C
180000001C
380000001C
300000001C
300000001C
7000000018
6000000018
7FFFFFFFF8
7FFFFFFFF8
E000000000
E000000000
C000000000
C000000000
C000000000
C000000000
C000000000
C000000000
C000000000
C000000000
E000000000
E000000000
6000000000
6000000000
7000000000
3000000000
3800000000
1800000100
1C00000380
0E00000F00
0700001E00
0780007800
01E001F000
00FF3FC000
003FFF0000
0007F80000
ENDCHAR
STARTCHAR 00EB
ENCODING 235
SWIDTH 483 0
DWIDTH 43 0
BBX 38 65 3 -1
BITMAP
0000E00018
0001E0003C
0001F0007C
0001E0003C
0000C00018
0000000000
0000000000
0000000000
0000000000
0000000000
0000000000
0000000000
0000000000
0000000000
0000000000
0000000000
00001FC000
0000FFF800
0003FFFE00
000F800F00
001E000380
00380001C0
00700000E0
00E0000060
01C0000070
0380000030
0300000038
0700000018
0E00000018
0C00000018
1C0000001C
180000001C
380000001C
300000001C
300000001C
7000000018
6000000018
7FFFFFFFF8
7FFFFFFFF8
E000000000
E000000000
C000000000
C000000000
C000000000
C000000000
C000000000
C000000000
C000000000
C000000000
E000000000
E000000000
6000000000
6000000000
7000000000
3000000000
3800000000
1800000100
1C00000380
0E00000F00
0700001E00
0780007800
01E001F000
00FF3FC000
003FFF0000
0007F80000
ENDCHAR
STARTCHAR 00EC
ENCODING 236
SWIDTH 191 0
DWIDTH 17 0
BBX 12 66 3 0
BITMAP
0C00
0E00
0600
0700
0380
0380
01C0
00C0
00E0
0060
0070
0030
0000
0000
0000
0000
0000
0000
0000
00C0
00C0
00C0
00C0
01C0
01C0
0180
0180
0180
0180
0380
0380
0300
0300
0300
0300
0700
0700
0600
0600
0600
0600
0E00
0E00
0C00
0C00
0C00
1C00
1C00
1800
1800
1800
1800
3800
3800
3000
3000
3000
3000
7000
7000
6000
6000
6000
6000
E000
E000
ENDCHAR
STARTCHAR 00ED
ENCODING 237
SWIDTH 191 0
DWIDTH 17 0
BBX 22 66 3 0
BITMAP
00001C
000038
000070
0000E0
0001C0
000380
000700
000600
000E00
001C00
003800
007000
000000
000000
000000
000000
000000
000000
000000
00C000
00C000
00C000
00C000
01C000
01C000
018000
018000
018000
018000
038000
038000
030000
030000
030000
030000
070000
070000
060000
060000
060000
060000
0E0000
0E0000
0C0000
0C0000
0C0000
1C0000
1C0000
180000
180000
180000
180000
380000
380000
300000
300000
300000
300000
700000
700000
600000
600000
600000
600000
E00000
E00000
ENDCHAR
STARTCHAR 00EE
ENCODING 238
SWIDTH 191 0
DWIDTH 17 0
BBX 21 65 3 0
BITMAP
001800
003C00
007E00
00E700
01C380
038380
0701C0
1E00E0
3C0070
780078
F00038
000000
000000
000000
000000
000000
000000
000000
00C000
00C000
00C000
00C000
01C000
01C000
018000
018000
018000
018000
038000
038000
030000
030000
030000
030000
070000
070000
060000
060000
060000
060000
0E0000
0E0000
0C0000
0C0000
0C0000
1C0000
1C0000
180000
180000
180000
180000
380000
380000
300000
300000
300000
300000
700000
700000
600000
600000
600000
600000
E00000
E00000
ENDCHAR
STARTCHAR 00EF
ENCODING 239
SWIDTH 191 0
DWIDTH 17 0
BBX 24 63 3 0
BITMAP
70000E
F8001E
F8001F
F0001E
60000C
000000
000000
000000
000000
000000
000000
000000
000000
000000
000000
000000
00C000
00C000
00C000
00C000
01C000
01C000
018000
018000
018000
018000
038000
038000
030000
030000
030000
030000
070000
070000
060000
060000
060000
060000
0E0000
0E0000
0C0000
0C0000
0C0000
1C0000
1C0000
180000
180000
180000
180000
380000
380000
300000
300000
300000
300000
700000
700000
600000
600000
600000
600000
E00000
E00000
ENDCHAR
STARTCHAR 00F0
ENCODING 240
SWIDTH 551 0
DWIDTH 49 0
BBX 42 69 6 -1
BITMAP
0000C0000000
0001F0000000
00007C000000
00001F000000
000007800000
000003E00180
000000F007C0
000000781F00
0000003C7E00
0000001FF800
0000000FE000
0000000F8000
0000003F8000
000000F9C000
000003E0C000
00000F80E000
00001E006000
000008007000
000000003000
000000003800
000000001800
000000001800
000000001C00
000000001C00
000000000C00
000000000C00
000000000C00
0000FFF00C00
0007FFFC0E00
001FC07F0E00
003E000F8E00
00780003CE00
00E00000EE00
01C000007E00
038000003E00
070000001E00
0E0000001E00
0E0000000E00
1C0000000C00
180000000C00
380000000C00
380000000C00
300000001C00
700000001C00
600000001800
600000001800
E00000001800
E00000003800
E00000003800
C00000003000
C00000007000
C00000007000
C00000006000
C0000000E000
E0000000C000
E0000001C000
600000018000
600000038000
700000030000
300000070000
3800000E0000
1C00001C0000
1C0000380000
0F0000700000
078001E00000
03E007C00000
01FFFF800000
007FFE000000
0007F0000000
ENDCHAR
STARTCHAR 00F1
ENCODING 241
SWIDTH 528 0
DWIDTH 47 0
BBX 41 64 3 0
BITMAP
00001F800180
00007FC00180
0000F8F00380
0001C0380700
0001801C0E00
0003800FFE00
00030007F800
00070000C000
000000000000
000000000000
000000000000
000000000000
000000000000
000000000000
000000000000
000000000000
000001FC0000
00C00FFF8000
00C03FDFC000
01C0F801E000
01C1E0007000
018780003800
018F00001800
019C00001C00
019800001C00
03B000000C00
03F000000C00
03E000000C00
03C000000C00
038000000C00
078000000C00
070000000C00
070000000C00
060000000C00
060000001C00
060000001C00
0E0000001800
0E0000001800
0C0000001800
0C0000001800
0C0000003800
0C0000003800
1C0000003000
1C0000003000
180000003000
180000003000
180000007000
180000007000
380000006000
380000006000
300000006000
300000006000
30000000E000
30000000E000
70000000C000
70000000C000
60000000C000
60000001C000
60000001C000
60000001C000
E00000018000
E00000018000
C00000018000
C00000038000
ENDCHAR
STARTCHAR 00F2
ENCODING 242
SWIDTH 528 0
DWIDTH 47 0
BBX 41 68 3 -1
BITMAP
000038000000
00001C000000
00001C000000
00000E000000
000006000000
000007000000
000003000000
000003800000
000001800000
000001C00000
000000C00000
000000600000
000000000000
000000000000
000000000000
000000000000
000000000000
000000000000
000000000000
00000FF00000
0000FFFE0000
0003FFFF8000
0007C007C000
001F0001E000
003C00007000
007800003800
00E000001C00
01C000001C00
038000000E00
038000000E00
070000000600
0E0000000700
0E0000000300
1C0000000300
1C0000000300
380000000380
380000000380
300000000380
700000000380
700000000380
600000000380
600000000380
E00000000300
E00000000300
E00000000300
C00000000300
C00000000700
C00000000700
C00000000600
C00000000E00
C00000000E00
C00000000C00
E00000001C00
E00000001800
600000003800
600000007000
700000007000
30000000E000
38000001C000
38000003C000
1C0000078000
0E00000F0000
0F00001E0000
0780007C0000
03E001F00000
00FF7FC00000
003FFF000000
0007F8000000
ENDCHAR
STARTCHAR 00F3
ENCODING 243
SWIDTH 528 0
DWIDTH 47 0
BBX 41 68 3 -1
BITMAP
000000004000
000000007000
00000000E000
00000001C000
000000038000
000000070000
0000000E0000
0000001C0000
000000180000
000000380000
000000700000
000000E00000
000000000000
000000000000
000000000000
000000000000
000000000000
000000000000
000000000000
00000FF00000
0000FFFE0000
0003FFFF8000
0007C007C000
001F0001E000
003C00007000
007800003800
00E000001C00
01C000001C00
038000000E00
038000000E00
070000000600
0E0000000700
0E0000000300
1C0000000300
1C0000000300
380000000380
380000000380
300000000380
700000000380
700000000380
600000000380
600000000380
E00000000300
E00000000300
E00000000300
C00000000300
C00000000700
C00000000700
C00000000600
C00000000E00
C00000000E00
C00000000C00
E00000001C00
E00000001800
600000003800
600000007000
700000007000
30000000E000
38000001C000
38000003C000
1C0000078000
0E00000F0000
0F00001E0000
0780007C0000
03E001F00000
00FF7FC00000
003FFF000000
0007F8000000
ENDCHAR
STARTCHAR 00F4
ENCODING 244
SWIDTH 528 0
DWIDTH 47 0
BBX 41 67 3 -1
BITMAP
000000300000
000000780000
000000FC0000
000001DC0000
0000038E0000
00000F070000
00001E038000
00003C03C000
00007801C000
0000F000E000
0001C0007000
000000000000
000000000000
000000000000
000000000000
000000000000
000000000000
000000000000
00000FF00000
0000FFFE0000
0003FFFF8000
0007C007C000
001F0001E000
003C00007000
007800003800
00E000001C00
01C000001C00
038000000E00
038000000E00
070000000600
0E0000000700
0E0000000300
1C0000000300
1C0000000300
380000000380
380000000380
300000000380
700000000380
700000000380
600000000380
600000000380
E00000000300
E00000000300
E00000000300
C00000000300
C00000000700
C00000000700
C00000000600
C00000000E00
C00000000E00
C00000000C00
E00000001C00
E00000001800
600000003800
600000007000
700000007000
30000000E000
38000001C000
38000003C000
1C0000078000
0E00000F0000
0F00001E0000
0780007C0000
03E001F00000
00FF7FC00000
003FFF000000
0007F8000000
ENDCHAR
STARTCHAR 00F5
ENCODING 245
SWIDTH 528 0
DWIDTH 47 0
BBX 41 65 3 -1
BITMAP
00003F000300
0000FF800300
0001F1E00700
000380700E00
000300381E00
0007001FFC00
0006000FF000
000600018000
000000000000
000000000000
000000000000
000000000000
000000000000
000000000000
000000000000
000000000000
00000FF00000
0000FFFE0000
0003FFFF8000
0007C007C000
001F0001E000
003C00007000
007800003800
00E000001C00
01C000001C00
038000000E00
038000000E00
070000000600
0E0000000700
0E0000000300
1C0000000300
1C0000000300
380000000380
380000000380
300000000380
700000000380
700000000380
600000000380
600000000380
E00000000300
E00000000300
E00000000300
C00000000300
C00000000700
C00000000700
C00000000600
C00000000E00
C00000000E00
C00000000C00
E00000001C00
E00000001800
600000003800
600000007000
700000007000
30000000E000
38000001C000
38000003C000
1C0000078000
0E00000F0000
0F00001E0000
0780007C0000
03E001F00000
00FF7FC00000
003FFF000000
0007F8000000
ENDCHAR
STARTCHAR 00F6
ENCODING 246
SWIDTH 528 0
DWIDTH 47 0
BBX 41 65 3 -1
BITMAP
0000E0001800
0001E0003C00
0001F0007C00
0001E0003C00
0000C0003800
000000000000
000000000000
000000000000
000000000000
000000000000
000000000000
000000000000
000000000000
000000000000
000000000000
000000000000
00000FF00000
0000FFFE0000
0003FFFF8000
0007C007C000
001F0001E000
003C00007000
007800003800
00E000001C00
01C000001C00
038000000E00
038000000E00
070000000600
0E0000000700
0E0000000300
1C0000000300
1C0000000300
380000000380
380000000380
300000000380
700000000380
700000000380
600000000380
600000000380
E00000000300
E00000000300
E00000000300
C00000000300
C00000000700
C00000000700
C00000000600
C00000000E00
C00000000E00
C00000000C00
E00000001C00
E00000001800
600000003800
600000007000
700000007000
30000000E000
38000001C000
38000003C000
1C0000078000
0E00000F0000
0F00001E0000
0780007C0000
03E001F00000
00FF7FC00000
003FFF000000
0007F8000000
ENDCHAR
STARTCHAR 00F7
ENCODING 247
SWIDTH 540 0
DWIDTH 48 0
BBX 42 38 4 11
BITMAP
000001C00000
000003E00000
000003E00000
000003C00000
000000000000
000000000000
000000000000
000000000000
000000000000
000000000000
000000000000
000000000000
000000000000
000000000000
000000000000
000000000000
000000000000
FFFFFFFFFFC0
FFFFFFFFFFC0
000000000000
000000000000
000000000000
000000000000
000000000000
000000000000
000000000000
000000000000
000000000000
000000000000
000000000000
000000000000
000000000000
000000000000
000000000000
000070000000
0000F8000000
0000F8000000
0000F0000000
ENDCHAR
STARTCHAR 00F8
ENCODING 248
SWIDTH 528 0
DWIDTH 47 0
BBX 41 59 3 -6
BITMAP
000000000380
000000000700
000000000600
000000000E00
000000001C00
00000FF01800
00007FFE3800
0003FFFFF000
0007C003F000
001F0000E000
003C0001F000
00780001F800
00F000039C00
01E000071C00
03C000070E00
0380000E0600
0700000C0600
0E00001C0700
0E0000380300
1C0000300300
1C0000700300
380000E00380
380000C00380
300001C00380
700003800380
600003800380
600007000380
60000E000300
E0000E000300
E0001C000300
C00018000300
C00038000700
C00070000700
C00060000600
C000E0000600
C001C0000E00
C00180000C00
C00380001C00
C00700001800
C00700003800
E00E00003800
601C00007000
601C0000E000
70380000E000
30300001C000
387000038000
18E000070000
1CC0000E0000
0FC0003C0000
078000780000
03E003F00000
07FFFFC00000
0E7FFF000000
0E0FF0000000
1C0000000000
380000000000
380000000000
700000000000
600000000000
ENDCHAR
STARTCHAR 00F9
ENCODING 249
SWIDTH 528 0
DWIDTH 47 0
BBX 39 68 5 -1
BITMAP
0000700000
0000380000
0000180000
00001C0000
00000C0000
00000E0000
0000060000
0000070000
0000030000
0000018000
000001C000
000000C000
0000000000
0000000000
0000000000
0000000000
0000000000
0000000000
0000000000
0000000000
030000000E
070000000C
070000000C
060000000C
060000000C
060000001C
060000001C
0E00000018
0E00000018
0C00000018
0C00000038
0C00000038
1C00000038
1C00000030
1C00000030
1800000030
1800000070
1800000070
3800000070
3800000060
3000000060
3000000060
30000000E0
30000000E0
70000000E0
70000000C0
60000000C0
60000000C0
60000001C0
60000001C0
E000000180
E000000180
E000000180
C000000380
C000000380
C000000780
E000000700
E000000F00
6000001F00
6000001B00
7000003F00
700000F700
380001E600
1C0007C600
1E001F0600
07F7FE0E00
03FFF00E00
007F800000
ENDCHAR
STARTCHAR 00FA
ENCODING 250
SWIDTH 528 0
DWIDTH 47 0
BBX 39 68 5 -1
BITMAP
00000000E0
00000001C0
00000001C0
0000000380
0000000700
0000000E00
0000001C00
0000003800
0000003000
0000006000
000000E000
000001C000
0000000000
0000000000
0000000000
0000000000
0000000000
0000000000
0000000000
0000000000
030000000E
070000000C
070000000C
060000000C
060000000C
060000001C
060000001C
0E00000018
0E00000018
0C00000018
0C00000038
0C00000038
1C00000038
1C00000030
1C00000030
1800000030
1800000070
1800000070
3800000070
3800000060
3000000060
3000000060
30000000E0
30000000E0
70000000E0
70000000C0
60000000C0
60000000C0
60000001C0
60000001C0
E000000180
E000000180
E000000180
C000000380
C000000380
C000000780
E000000700
E000000F00
6000001F00
6000001B00
7000003F00
700000F700
380001E600
1C0007C600
1E001F0600
07F7FE0E00
03FFF00E00
007F800000
ENDCHAR
STARTCHAR 00FB
ENCODING 251
SWIDTH 528 0
DWIDTH 47 0
BBX 39 67 5 -1
BITMAP
0000006000
000000F000
000001F800
0000039C00
0000071C00
00001E0E00
00003C0700
0000780380
0000F003C0
0001E001C0
00038000E0
0000000000
0000000000
0000000000
0000000000
0000000000
0000000000
0000000000
0000000000
030000000E
070000000C
070000000C
060000000C
060000000C
060000001C
060000001C
0E00000018
0E00000018
0C00000018
0C00000038
0C00000038
1C00000038
1C00000030
1C00000030
1800000030
1800000070
1800000070
3800000070
3800000060
3000000060
3000000060
30000000E0
30000000E0
70000000E0
70000000C0
60000000C0
60000000C0
60000001C0
60000001C0
E000000180
E000000180
E000000180
C000000380
C000000380
C000000780
E000000700
E000000F00
6000001F00
6000001B00
7000003F00
700000F700
380001E600
1C0007C600
1E001F0600
07F7FE0E00
03FFF00E00
007F800000
ENDCHAR
STARTCHAR 00FC
ENCODING 252
SWIDTH 528 0
DWIDTH 47 0
BBX 39 65 5 -1
BITMAP
0001C00038
0003E00078
0003E00078
0003C00078
0001800030
0000000000
0000000000
0000000000
0000000000
0000000000
0000000000
0000000000
0000000000
0000000000
0000000000
0000000000
0000000000
030000000E
070000000C
070000000C
060000000C
060000000C
060000001C
060000001C
0E00000018
0E00000018
0C00000018
0C00000038
0C00000038
1C00000038
1C00000030
1C00000030
1800000030
1800000070
1800000070
3800000070
3800000060
3000000060
3000000060
30000000E0
30000000E0
70000000E0
70000000C0
60000000C0
60000000C0
60000001C0
60000001C0
E000000180
E000000180
E000000180
C000000380
C000000380
C000000780
E000000700
E000000F00
6000001F00
6000001B00
7000003F00
700000F700
380001E600
1C0007C600
1E001F0600
07F7FE0E00
03FFF00E00
007F800000
ENDCHAR
STARTCHAR 00FD
ENCODING 253
SWIDTH 461 0
DWIDTH 41 0
BBX 47 86 -4 -19
BITMAP
0000000001C0
000000000380
000000000700
000000000E00
000000001C00
000000003800
000000003800
000000007000
00000000E000
00000001C000
000000038000
000000070000
000000000000
000000000000
000000000000
000000000000
000000000000
000000000000
000000000000
000000000000
00700000000E
00300000000E
00300000001C
00380000001C
003800000038
001800000030
001800000070
001800000060
001C000000E0
001C000000C0
000C000001C0
000C00000180
000E00000380
000E00000700
000600000700
000600000E00
000600000E00
000700001C00
000700001800
000300003800
000300003000
000380007000
000380006000
00018000E000
00018001C000
00018001C000
0001C0038000
0001C0038000
0000C0070000
0000C0060000
0000E00E0000
0000E00C0000
0000E01C0000
000060180000
000060380000
000070700000
000070700000
000030E00000
000030E00000
000031C00000
000039C00000
00003B800000
00001B000000
00001F000000
00001E000000
00001E000000
00001C000000
00001C000000
000038000000
000038000000
000070000000
000070000000
0000E0000000
0000C0000000
0001C0000000
000180000000
000380000000
000700000000
000700000000
000E00000000
001C00000000
003800000000
00F000000000
43E000000000
7FC000000000
FE0000000000
ENDCHAR
STARTCHAR 00FE
ENCODING 254
SWIDTH 528 0
DWIDTH 47 0
BBX 42 85 0 -18
BITMAP
000300000000
000300000000
000300000000
000300000000
000700000000
000700000000
000600000000
000600000000
000600000000
000600000000
000E00000000
000E00000000
000C00000000
000C00000000
000C00000000
000C00000000
001C00000000
001C00000000
001800000000
0018007F0000
001807FFE000
00381FFFF000
00387E003C00
0038F0001C00
0031C0000E00
003380000700
003700000300
007E00000380
007C00000180
007800000180
0070000001C0
0070000001C0
0060000000C0
00E0000000C0
00E0000000C0
00C0000000C0
00C0000000C0
00C0000000C0
00C0000000C0
01C0000000C0
01C0000000C0
0180000000C0
0180000001C0
0180000001C0
038000000180
038000000180
038000000180
030000000380
030000000380
030000000300
070000000700
070000000700
060000000600
060000000E00
060000000C00
060000001C00
0E0000001800
0E0000003800
0F0000007000
0F0000007000
0F800000E000
0DC00001C000
1CE000038000
1C78000F0000
183E003E0000
180FF7F80000
1803FFF00000
18007F000000
380000000000
380000000000
300000000000
300000000000
300000000000
700000000000
700000000000
700000000000
600000000000
600000000000
600000000000
E00000000000
E00000000000
C00000000000
C00000000000
C00000000000
C00000000000
ENDCHAR
STARTCHAR 00FF
ENCODING 255
SWIDTH 461 0
DWIDTH 41 0
BBX 47 83 -4 -19
BITMAP
0000070000E0
0000078001F0
00000F8001F0
00000F8001E0
0000060000C0
000000000000
000000000000
000000000000
000000000000
000000000000
000000000000
000000000000
000000000000
000000000000
000000000000
000000000000
000000000000
00700000000E
00300000000E
00300000001C
00380000001C
003800000038
001800000030
001800000070
001800000060
001C000000E0
001C000000C0
000C000001C0
000C00000180
000E00000380
000E00000700
000600000700
000600000E00
000600000E00
000700001C00
000700001800
000300003800
000300003000
000380007000
000380006000
00018000E000
00018001C000
00018001C000
0001C0038000
0001C0038000
0000C0070000
0000C0060000
0000E00E0000
0000E00C0000
0000E01C0000
000060180000
000060380000
000070700000
000070700000
000030E00000
000030E00000
000031C00000
000039C00000
00003B800000
00001B000000
00001F000000
00001E000000
00001E000000
00001C000000
00001C000000
000038000000
000038000000
000070000000
000070000000
0000E0000000
0000C0000000
0001C0000000
000180000000
000380000000
000700000000
000700000000
000E00000000
001C00000000
003800000000
00F000000000
43E000000000
7FC000000000
FE0000000000
ENDCHAR
STARTCHAR 0100
ENCODING 256
SWIDTH 573 0
DWIDTH 51 0
BBX 49 77 -3 0
BITMAP
0000007FFFFF80
0000007FFFFF80
0000007FFFFF80
00000000000000
00000000000000
00000000000000
00000000000000
00000000000000
00000000000000
00000000000000
00000000000000
00000000000000
00000000000000
00000000000000
00000000780000
00000000780000
00000000F80000
00000000D80000
00000001D80000
000000019C0000
000000039C0000
000000030C0000
000000070C0000
000000060C0000
0000000E0E0000
0000001C0E0000
00000018060000
00000038060000
00000030060000
00000070070000
00000060070000
000000E0070000
000000C0030000
000001C0030000
00000180030000
00000380038000
00000300038000
00000700018000
00000E00018000
00000E00018000
00001C0001C000
0000180001C000
0000380000C000
0000300000C000
0000700000C000
0000600000E000
0000E00000E000
0000C000006000
0001C000006000
00018000006000
00038000007000
00030000007000
00070000007000
000E0000003000
000E0000003000
001C0000003800
001FFFFFFFF800
003FFFFFFFF800
00300000001800
00700000001800
00600000001800
00E00000001C00
00C00000001C00
01C00000000C00
01800000000C00
03800000000C00
07000000000E00
07000000000E00
0E000000000600
0E000000000600
1C000000000600
18000000000700
38000000000700
30000000000700
70000000000300
60000000000300
E0000000000380
ENDCHAR
STARTCHAR 0101
ENCODING 257
SWIDTH 506 0
DWIDTH 45 0
BBX 42 64 1 -1
BITMAP
00003FFFFFC0
00007FFFFF80
00007FFFFF80
000000000000
000000000000
000000000000
000000000000
000000000000
000000000000
000000000000
000000000000
000000000000
000000000000
000000000000
000000000000
000007F00000
00007FFF0000
0001FFFF8000
0007C003E000
001F0000F000
003C00007800
007800003800
00F000001C00
00E000000C00
01C000000C00
018000000C00
038000000E00
030000000E00
030000000C00
000000000C00
000000000C00
000000000C00
000000000C00
000000001C00
000000001C00
000000001800
000000001800
00007FFFF800
0007FFFFF800
003FF0003800
00FE00003800
01F000003000
07C000003000
0F0000003000
1E0000003000
1C0000007000
380000007000
700000006000
700000006000
600000006000
E0000000E000
E0000000E000
E0000001C000
E0000003C000
E0000007C000
E000000EC000
6000001DC000
70000079C000
380000F1C000
3C0003E1C000
1F000F81C000
0FF3FE01C000
03FFF801C000
007F80000000
ENDCHAR
STARTCHAR 0102
ENCODING 258
SWIDTH 573 0
DWIDTH 51 0
BBX 49 79 -3 0
BITMAP
00000030000180
00000030000180
00000030000380
00000030000300
00000030000700
00000038000E00
0000001C001E00
0000000E003C00
0000000FC1F800
00000003FFE000
00000000FF8000
00000000000000
00000000000000
00000000000000
00000000000000
00000000000000
00000000780000
00000000780000
00000000F80000
00000000D80000
00000001D80000
000000019C0000
000000039C0000
000000030C0000
000000070C0000
000000060C0000
0000000E0E0000
0000001C0E0000
00000018060000
00000038060000
00000030060000
00000070070000
00000060070000
000000E0070000
000000C0030000
000001C0030000
00000180030000
00000380038000
00000300038000
00000700018000
00000E00018000
00000E00018000
00001C0001C000
0000180001C000
0000380000C000
0000300000C000
0000700000C000
0000600000E000
0000E00000E000
0000C000006000
0001C000006000
00018000006000
00038000007000
00030000007000
00070000007000
000E0000003000
000E0000003000
001C0000003800
001FFFFFFFF800
003FFFFFFFF800
00300000001800
00700000001800
00600000001800
00E00000001C00
00C00000001C00
01C00000000C00
01800000000C00
03800000000C00
07000000000E00
07000000000E00
0E000000000600
0E000000000600
1C000000000600
18000000000700
38000000000700
30000000000700
70000000000300
60000000000300
E0000000000380
ENDCHAR
STARTCHAR 0103
ENCODING 259
SWIDTH 506 0
DWIDTH 45 0
BBX 42 66 1 -1
BITMAP
0000300001C0
000030000180
000030000380
000030000380
000038000700
000018000E00
00001C001E00
00000E003C00
000007C3F800
000003FFE000
000000FF8000
000000000000
000000000000
000000000000
000000000000
000000000000
000000000000
000007F00000
00007FFF0000
0001FFFF8000
0007C003E000
001F0000F000
003C00007800
007800003800
00F000001C00
00E000000C00
01C000000C00
018000000C00
038000000E00
030000000E00
030000000C00
000000000C00
000000000C00
000000000C00
000000000C00
000000001C00
000000001C00
000000001800
000000001800
00007FFFF800
0007FFFFF800
003FF0003800
00FE00003800
01F000003000
07C000003000
0F0000003000
1E0000003000
1C0000007000
380000007000
700000006000
700000006000
600000006000
E0000000E000
E0000000E000
E0000001C000
E0000003C000
E0000007C000
E000000EC000
6000001DC000
70000079C000
380000F1C000
3C0003E1C000
1F000F81C000
0FF3FE01C000
03FFF801C000
007F80000000
ENDCHAR
STARTCHAR 0104
ENCODING 260
SWIDTH 573 0
DWIDTH 51 0
BBX 49 80 -3 -17
BITMAP
00000000780000
00000000780000
00000000F80000
00000000D80000
00000001D80000
000000019C0000
000000039C0000
000000030C0000
000000070C0000
000000060C0000
0000000E0E0000
0000001C0E0000
00000018060000
00000038060000
00000030060000
00000070070000
00000060070000
000000E0070000
000000C0030000
000001C0030000
00000180030000
00000380038000
00000300038000
00000700018000
00000E00018000
00000E00018000
00001C0001C000
0000180001C000
0000380000C000
0000300000C000
0000700000C000
0000600000E000
0000E00000E000
0000C000006000
0001C000006000
00018000006000
00038000007000
00030000007000
00070000007000
000E0000003000
000E0000003000
001C0000003800
001FFFFFFFF800
003FFFFFFFF800
00300000001800
00700000001800
00600000001800
00E00000001C00
00C00000001C00
01C00000000C00
01800000000C00
03800000000C00
07000000000E00
07000000000E00
0E000000000600
0E000000000600
1C000000000600
18000000000700
38000000000700
30000000000700
70000000000300
60000000000300
E0000000000380
00000000000700
00000000000E00
00000000003800
00000000007000
0000000000E000
0000000001C000
00000000038000
00000000030000
00000000070000
00000000060000
00000000060000
00000000060000
00000000060000
00000000060200
00000000078E00
0000000003FE00
0000000001F800
ENDCHAR
STARTCHAR 0105
ENCODING 261
SWIDTH 506 0
DWIDTH 45 0
BBX 39 65 1 -17
BITMAP
000007F000
00007FFF00
0001FFFF80
0007C003E0
001F0000F0
003C000078
0078000038
00F000001C
00E000000C
01C000000C
018000000C
038000000E
030000000E
030000000C
000000000C
000000000C
000000000C
000000000C
000000001C
000000001C
0000000018
0000000018
00007FFFF8
0007FFFFF8
003FF00038
00FE000038
01F0000030
07C0000030
0F00000030
1E00000030
1C00000070
3800000070
7000000060
7000000060
6000000060
E0000000E0
E0000000E0
E0000001C0
E0000003C0
E0000007C0
E000000EC0
6000001DC0
70000079C0
380000F1C0
3C0003E1C0
1F000F81C0
0FF3FE01C0
03FFF801C0
007F800380
0000000700
0000001E00
0000003800
0000007000
000000E000
000000C000
0000018000
0000038000
0000030000
0000030000
0000030000
0000030000
0000038000
000003C780
000001FF00
000000FE00
ENDCHAR
STARTCHAR 0106
ENCODING 262
SWIDTH 618 0
DWIDTH 55 0
BBX 47 82 6 -1
BITMAP
000000000780
000000000E00
000000000E00
000000001C00
000000003800
000000007000
00000000E000
00000001C000
000000018000
000000038000
000000070000
000000000000
000000000000
000000000000
000000000000
000000000000
000000000000
000001FFC000
00000FFFF800
00003FC0FE00
0000FC000F80
0001E00003C0
0003C00001E0
000F00000070
001E00000070
001C00000038
003800000018
00700000001C
00E00000000C
00C00000000E
01C00000000E
038000000006
038000000006
070000000006
060000000006
0E0000000006
0E0000000006
0C0000000000
1C0000000000
1C0000000000
180000000000
380000000000
380000000000
300000000000
300000000000
300000000000
700000000000
700000000000
700000000000
600000000000
600000000000
600000000000
E00000000000
E00000000000
C00000000000
C00000000000
C00000000000
C00000000000
C00000000000
C00000000000
C00000000000
C00000000000
C000000000E0
C000000000C0
C000000000C0
C000000001C0
E00000000180
E00000000380
600000000300
700000000700
700000000E00
300000001C00
380000001C00
1C0000003800
1C0000007000
0E000001E000
07000003C000
03C0000F0000
01F0007E0000
00FFBFF80000
003FFFE00000
0003FC000000
ENDCHAR
STARTCHAR 0107
ENCODING 263
SWIDTH 483 0
DWIDTH 43 0
BBX 38 68 3 -1
BITMAP
0000000080
00000000E0
00000001C0
0000000380
0000000700
0000000E00
0000001C00
0000001800
0000003800
0000007000
000000E000
000001C000
0000000000
0000000000
0000000000
0000000000
0000000000
0000000000
0000000000
00001FC000
0000FFFC00
0003FFFE00
000F800F80
001E0003C0
00380001E0
00700000E0
00E0000070
01C0000030
0380000038
0300000018
0700000018
0E00000018
0E00000018
1C0000001C
1C0000001C
180000001C
3800000000
3000000000
3000000000
7000000000
7000000000
6000000000
6000000000
6000000000
E000000000
E000000000
E000000000
E000000000
E000000000
C000000000
C000000000
E000000000
E000000000
E0000000E0
60000000C0
60000001C0
60000001C0
7000000380
3000000300
3800000700
1800000E00
1C00001C00
0E00003800
070000F000
03C003E000
01FEFF8000
007FFE0000
000FE00000
ENDCHAR
STARTCHAR 0108
ENCODING 264
SWIDTH 618 0
DWIDTH 55 0
BBX 47 82 6 -1
BITMAP
000000018000
00000003C000
00000007C000
0000000EE000
0000003C7000
000000783800
000000F03800
000001E01C00
000003C00E00
000007000700
00000E000780
000000000000
000000000000
000000000000
000000000000
000000000000
000000000000
000001FFC000
00000FFFF800
00003FC0FE00
0000FC000F80
0001E00003C0
0003C00001E0
000F00000070
001E00000070
001C00000038
003800000018
00700000001C
00E00000000C
00C00000000E
01C00000000E
038000000006
038000000006
070000000006
060000000006
0E0000000006
0E0000000006
0C0000000000
1C0000000000
1C0000000000
180000000000
380000000000
380000000000
300000000000
300000000000
300000000000
700000000000
700000000000
700000000000
600000000000
600000000000
600000000000
E00000000000
E00000000000
C00000000000
C00000000000
C00000000000
C00000000000
C00000000000
C00000000000
C00000000000
C00000000000
C000000000E0
C000000000C0
C000000000C0
C000000001C0
E00000000180
E00000000380
600000000300
700000000700
700000000E00
300000001C00
380000001C00
1C0000003800
1C0000007000
0E000001E000
07000003C000
03C0000F0000
01F0007E0000
00FFBFF80000
003FFFE00000
0003FC000000
ENDCHAR
STARTCHAR 0109
ENCODING 265
SWIDTH 483 0
DWIDTH 43 0
BBX 38 67 3 -1
BITMAP
0000006000
000000F000
000001F800
0000039C00
0000071C00
00000E0E00
00001C0700
0000780380
0000F003C0
0001E001C0
0003C000E0
0000000000
0000000000
0000000000
0000000000
0000000000
0000000000
0000000000
00001FC000
0000FFFC00
0003FFFE00
000F800F80
001E0003C0
00380001E0
00700000E0
00E0000070
01C0000030
0380000038
0300000018
0700000018
0E00000018
0E00000018
1C0000001C
1C0000001C
180000001C
3800000000
3000000000
3000000000
7000000000
7000000000
6000000000
6000000000
6000000000
E000000000
E000000000
E000000000
E000000000
E000000000
C000000000
C000000000
E000000000
E000000000
E0000000E0
60000000C0
60000001C0
60000001C0
7000000380
3000000300
3800000700
1800000E00
1C00001C00
0E00003800
070000F000
03C003E000
01FEFF8000
007FFE0000
000FE00000
ENDCHAR
STARTCHAR 010A
ENCODING 266
SWIDTH 618 0
DWIDTH 55 0
BBX 47 79 6 -1
BITMAP
000000038000
000000078000
00000007C000
000000078000
000000070000
000000000000
000000000000
000000000000
000000000000
000000000000
000000000000
000000000000
000000000000
000000000000
000001FFC000
00000FFFF800
00003FC0FE00
0000FC000F80
0001E00003C0
0003C00001E0
000F00000070
001E00000070
001C00000038
003800000018
00700000001C
00E00000000C
00C00000000E
01C00000000E
038000000006
038000000006
070000000006
060000000006
0E0000000006
0E0000000006
0C0000000000
1C0000000000
1C0000000000
180000000000
380000000000
380000000000
300000000000
300000000000
300000000000
700000000000
700000000000
700000000000
600000000000
600000000000
600000000000
E00000000000
E00000000000
C00000000000
C00000000000
C00000000000
C00000000000
C00000000000
C00000000000
C00000000000
C00000000000
C000000000E0
C000000000C0
C000000000C0
C000000001C0
E00000000180
E00000000380
600000000300
700000000700
700000000E00
300000001C00
380000001C00
1C0000003800
1C0000007000
0E000001E000
07000003C000
03C0000F0000
01F0007E0000
00FFBFF80000
003FFFE00000
0003FC000000
ENDCHAR
STARTCHAR 010B
ENCODING 267
SWIDTH 483 0
DWIDTH 43 0
BBX 38 64 3 -1
BITMAP
000000E000
000001F000
000001F000
000001F000
000000E000
0000000000
0000000000
0000000000
0000000000
0000000000
0000000000
0000000000
0000000000
0000000000
0000000000
00001FC000
0000FFFC00
0003FFFE00
000F800F80
001E0003C0
00380001E0
00700000E0
00E0000070
01C0000030
0380000038
0300000018
0700000018
0E00000018
0E00000018
1C0000001C
1C0000001C
180000001C
3800000000
3000000000
3000000000
7000000000
7000000000
6000000000
6000000000
6000000000
E000000000
E000000000
E000000000
E000000000
E000000000
C000000000
C000000000
E000000000
E000000000
E0000000E0
60000000C0
60000001C0
60000001C0
7000000380
3000000300
3800000700
1800000E00
1C00001C00
0E00003800
070000F000
03C003E000
01FEFF8000
007FFE0000
000FE00000
ENDCHAR
STARTCHAR 010C
ENCODING 268
SWIDTH 618 0
DWIDTH 55 0
BBX 47 81 6 -1
BITMAP
0000070001C0
000003800380
000001C00700
000000C00E00
000000E01C00
000000703800
000000307000
00000038E000
0000001DC000
0000000F8000
0000000F0000
000000000000
000000000000
000000000000
000000000000
000000000000
000001FFC000
00000FFFF800
00003FC0FE00
0000FC000F80
0001E00003C0
0003C00001E0
000F00000070
001E00000070
001C00000038
003800000018
00700000001C
00E00000000C
00C00000000E
01C00000000E
038000000006
038000000006
070000000006
060000000006
0E0000000006
0E0000000006
0C0000000000
1C0000000000
1C0000000000
180000000000
380000000000
380000000000
300000000000
300000000000
300000000000
700000000000
700000000000
700000000000
600000000000
600000000000
600000000000
E00000000000
E00000000000
C00000000000
C00000000000
C00000000000
C00000000000
C00000000000
C00000000000
C00000000000
C00000000000
C000000000E0
C000000000C0
C000000000C0
C000000001C0
E00000000180
E00000000380
600000000300
700000000700
700000000E00
300000001C00
380000001C00
1C0000003800
1C0000007000
0E000001E000
07000003C000
03C0000F0000
01F0007E0000
00FFBFF80000
003FFFE00000
0003FC000000
ENDCHAR
STARTCHAR 010D
ENCODING 269
SWIDTH 483 0
DWIDTH 43 0
BBX 38 66 3 0
BITMAP
0000E00070
00006000E0
00007001C0
0000380380
00001C0700
00001C0E00
00000E1C00
0000073800
0000037000
000003E000
000001C000
0000000000
0000000000
0000000000
0000000000
0000000000
0000000000
00001FC000
0000FFFC00
0003FFFE00
000F800F80
001E0003C0
00380001E0
00700000E0
00E0000070
01C0000030
0380000038
0300000018
0700000018
0E00000018
0E00000018
1C0000001C
1C0000001C
180000001C
3800000000
3000000000
3000000000
7000000000
7000000000
6000000000
6000000000
6000000000
E000000000
E000000000
E000000000
E000000000
E000000000
C000000000
C000000000
E000000000
E000000000
E0000000E0
60000000C0
60000001C0
60000001C0
7000000380
3000000300
3800000700
1800000E00
1C00001C00
0E00003800
070000F000
03C003E000
01FEFF8000
007FFE0000
000FE00000
ENDCHAR
STARTCHAR 010E
ENCODING 270
SWIDTH 630 0
DWIDTH 56 0
BBX 49 79 4 0
BITMAP
00000C00070000
00000E000E0000
000007001C0000
00000380380000
00000380700000
000001C0E00000
000000E1C00000
00000063800000
00000077000000
0000003E000000
0000001C000000
00000000000000
00000000000000
00000000000000
00000000000000
00000000000000
001FFFFF800000
003FFFFFF00000
00380001FC0000
003800001F0000
00300000078000
0030000001C000
0030000000E000
00700000007000
00700000003800
00600000001800
00600000001C00
00600000000C00
00600000000E00
00E00000000600
00E00000000700
00C00000000700
00C00000000300
00C00000000300
00C00000000300
01C00000000380
01C00000000380
01800000000380
01800000000380
01800000000380
01800000000380
03800000000380
03800000000380
03000000000300
03000000000300
03000000000300
07000000000700
07000000000700
07000000000700
06000000000600
06000000000600
06000000000600
0E000000000E00
0E000000000E00
0C000000000C00
0C000000000C00
0C000000001C00
0C000000001800
1C000000003800
1C000000003800
18000000007000
18000000007000
1800000000E000
1800000000E000
3800000001C000
38000000038000
30000000038000
30000000070000
300000000E0000
300000001C0000
70000000380000
70000000F00000
60000001E00000
60000007C00000
6000001F000000
6000007C000000
E0001FF8000000
FFFFFFC0000000
FFFFFC00000000
ENDCHAR
STARTCHAR 010F
ENCODING 271
SWIDTH 596 0
DWIDTH 53 0
BBX 53 68 4 -1
BITMAP
00000000006018
00000000006018
0000000000E018
0000000000E018
0000000000C038
0000000000C030
0000000000C030
0000000001C070
0000000001C060
0000000001C0E0
000000000180C0
000000000181C0
00000000018380
00000000038100
00000000038000
00000000030000
00000000030000
00000000030000
00000000030000
00003F80070000
0001FFF0070000
0007FFFC060000
000F001E060000
003C0007860000
00780001C60000
00F00000CE0000
00E000006E0000
01C000007C0000
038000003C0000
070000003C0000
070000001C0000
0E0000001C0000
0E0000001C0000
1C000000180000
1C000000180000
18000000180000
38000000380000
38000000380000
30000000380000
70000000300000
70000000300000
70000000300000
60000000700000
60000000700000
E0000000600000
E0000000600000
E0000000600000
E0000000600000
E0000000E00000
E0000000E00000
C0000000C00000
C0000000C00000
E0000000C00000
E0000000C00000
E0000001C00000
60000001C00000
60000001800000
60000003800000
70000007800000
3000000F800000
3800001F800000
1800003B800000
1C0000F3000000
0E0001E3000000
07800F83000000
03FBFF07000000
01FFF807000000
003FC000000000
ENDCHAR
STARTCHAR 0110
ENCODING 272
SWIDTH 641 0
DWIDTH 57 0
BBX 49 63 5 0
BITMAP
001FFFFFC00000
001FFFFFF80000
00180001FE0000
003800001F0000
00380000078000
0030000001E000
0030000000F000
00300000007000
00300000003800
00700000001C00
00700000001C00
00600000000E00
00600000000600
00600000000700
00600000000700
00E00000000300
00E00000000300
00C00000000380
00C00000000380
00C00000000180
00C00000000180
01C00000000180
01C00000000180
01800000000180
01800000000180
01800000000180
03800000000380
03800000000380
03800000000300
03000000000300
FFFFFF80000300
FFFFFF80000300
07000000000700
07000000000700
06000000000600
06000000000600
06000000000600
06000000000E00
0E000000000E00
0E000000000C00
0C000000000C00
0C000000001C00
0C000000001800
0C000000003800
1C000000003000
1C000000007000
18000000006000
1800000000E000
1800000001C000
1800000001C000
38000000038000
38000000070000
300000000E0000
300000001C0000
30000000380000
70000000700000
70000001E00000
70000007C00000
6000000F800000
6000007E000000
60000FF8000000
FFFFFFC0000000
FFFFFE00000000
ENDCHAR
STARTCHAR 0111
ENCODING 273
SWIDTH 528 0
DWIDTH 47 0
BBX 48 68 4 -1
BITMAP
000000000060
000000000060
0000000000E0
0000000000E0
0000000000C0
0000000000C0
0000000000C0
0000000001C0
0000000001C0
000001FFFFFF
000001FFFFFF
000000000180
000000000180
000000000380
000000000380
000000000300
000000000300
000000000300
000000000300
00003F800700
0001FFF00700
0007FFFC0600
000F001E0600
003C00078600
00780001C600
00F00000CE00
00E000006E00
01C000007C00
038000003C00
070000003C00
070000001C00
0E0000001C00
0E0000001C00
1C0000001800
1C0000001800
180000001800
380000003800
380000003800
300000003800
700000003000
700000003000
700000003000
600000007000
600000007000
E00000006000
E00000006000
E00000006000
E00000006000
E0000000E000
E0000000E000
C0000000C000
C0000000C000
E0000000C000
E0000000C000
E0000001C000
60000001C000
600000018000
600000038000
700000078000
3000000F8000
3800001F8000
1800003B8000
1C0000F30000
0E0001E30000
07800F830000
03FBFF070000
01FFF8070000
003FC0000000
ENDCHAR
STARTCHAR 0112
ENCODING 274
SWIDTH 551 0
DWIDTH 49 0
BBX 48 77 4 0
BITMAP
00001FFFFFE0
00001FFFFFE0
00001FFFFFC0
000000000000
000000000000
000000000000
000000000000
000000000000
000000000000
000000000000
000000000000
000000000000
000000000000
000000000000
001FFFFFFFFF
003FFFFFFFFF
003800000000
003800000000
003000000000
003000000000
003000000000
007000000000
007000000000
006000000000
006000000000
006000000000
006000000000
00E000000000
00E000000000
00C000000000
00C000000000
00C000000000
00C000000000
01C000000000
01C000000000
018000000000
018000000000
018000000000
018000000000
038000000000
038000000000
030000000000
030000000000
03FFFFFFFE00
07FFFFFFFE00
07FFFFFFFC00
070000000000
060000000000
060000000000
060000000000
0E0000000000
0E0000000000
0C0000000000
0C0000000000
0C0000000000
0C0000000000
1C0000000000
1C0000000000
180000000000
180000000000
180000000000
180000000000
380000000000
380000000000
300000000000
300000000000
300000000000
300000000000
700000000000
700000000000
600000000000
600000000000
600000000000
600000000000
E00000000000
FFFFFFFFFC00
FFFFFFFFF800
ENDCHAR
STARTCHAR 0113
ENCODING 275
SWIDTH 483 0
DWIDTH 43 0
BBX 39 64 3 -1
BITMAP
0001FFFFFE
0001FFFFFE
0003FFFFFC
0000000000
0000000000
0000000000
0000000000
0000000000
0000000000
0000000000
0000000000
0000000000
0000000000
0000000000
0000000000
00001FC000
0000FFF800
0003FFFE00
000F800F00
001E000380
00380001C0
00700000E0
00E0000060
01C0000070
0380000030
0300000038
0700000018
0E00000018
0C00000018
1C0000001C
180000001C
380000001C
300000001C
300000001C
7000000018
6000000018
7FFFFFFFF8
7FFFFFFFF8
E000000000
E000000000
C000000000
C000000000
C000000000
C000000000
C000000000
C000000000
C000000000
C000000000
E000000000
E000000000
6000000000
6000000000
7000000000
3000000000
3800000000
1800000100
1C00000380
0E00000F00
0700001E00
0780007800
01E001F000
00FF3FC000
003FFF0000
0007F80000
ENDCHAR
STARTCHAR 0114
ENCODING 276
SWIDTH 551 0
DWIDTH 49 0
BBX 48 79 4 0
BITMAP
0000180000E0
0000180000C0
0000180000C0
00001C0001C0
00001C000180
00000C000380
00000E000700
000007001E00
000003E0FC00
000001FFF000
0000007FC000
000000000000
000000000000
000000000000
000000000000
000000000000
001FFFFFFFFF
003FFFFFFFFF
003800000000
003800000000
003000000000
003000000000
003000000000
007000000000
007000000000
006000000000
006000000000
006000000000
006000000000
00E000000000
00E000000000
00C000000000
00C000000000
00C000000000
00C000000000
01C000000000
01C000000000
018000000000
018000000000
018000000000
018000000000
038000000000
038000000000
030000000000
030000000000
03FFFFFFFE00
07FFFFFFFE00
07FFFFFFFC00
070000000000
060000000000
060000000000
060000000000
0E0000000000
0E0000000000
0C0000000000
0C0000000000
0C0000000000
0C0000000000
1C0000000000
1C0000000000
180000000000
180000000000
180000000000
180000000000
380000000000
380000000000
300000000000
300000000000
300000000000
300000000000
700000000000
700000000000
600000000000
600000000000
600000000000
600000000000
E00000000000
FFFFFFFFFC00
FFFFFFFFF800
ENDCHAR
STARTCHAR 0115
ENCODING 277
SWIDTH 483 0
DWIDTH 43 0
BBX 39 66 3 -1
BITMAP
000180000E
000180000C
000180000C
000180001C
0001C00038
0000C00038
0000E000F0
00007001E0
00003E0FC0
00001FFF00
000007FC00
0000000000
0000000000
0000000000
0000000000
0000000000
0000000000
00001FC000
0000FFF800
0003FFFE00
000F800F00
001E000380
00380001C0
00700000E0
00E0000060
01C0000070
0380000030
0300000038
0700000018
0E00000018
0C00000018
1C0000001C
180000001C
380000001C
300000001C
300000001C
7000000018
6000000018
7FFFFFFFF8
7FFFFFFFF8
E000000000
E000000000
C000000000
C000000000
C000000000
C000000000
C000000000
C000000000
C000000000
C000000000
E000000000
E000000000
6000000000
6000000000
7000000000
3000000000
3800000000
1800000100
1C00000380
0E00000F00
0700001E00
0780007800
01E001F000
00FF3FC000
003FFF0000
0007F80000
ENDCHAR
STARTCHAR 0116
ENCODING 278
SWIDTH 551 0
DWIDTH 49 0
BBX 48 77 4 0
BITMAP
000000070000
0000000F8000
0000000F8000
0000000F8000
000000070000
000000000000
000000000000
000000000000
000000000000
000000000000
000000000000
000000000000
000000000000
000000000000
001FFFFFFFFF
003FFFFFFFFF
003800000000
003800000000
003000000000
003000000000
003000000000
007000000000
007000000000
006000000000
006000000000
006000000000
006000000000
00E000000000
00E000000000
00C000000000
00C000000000
00C000000000
00C000000000
01C000000000
01C000000000
018000000000
018000000000
018000000000
018000000000
038000000000
038000000000
030000000000
030000000000
03FFFFFFFE00
07FFFFFFFE00
07FFFFFFFC00
070000000000
060000000000
060000000000
060000000000
0E0000000000
0E0000000000
0C0000000000
0C0000000000
0C0000000000
0C0000000000
1C0000000000
1C0000000000
180000000000
180000000000
180000000000
180000000000
380000000000
380000000000
300000000000
300000000000
300000000000
300000000000
700000000000
700000000000
600000000000
600000000000
600000000000
600000000000
E00000000000
FFFFFFFFFC00
FFFFFFFFF800
ENDCHAR
STARTCHAR 0117
ENCODING 279
SWIDTH 483 0
DWIDTH 43 0
BBX 38 64 3 -1
BITMAP
0000007000
000000F800
000000F800
000000F000
0000006000
0000000000
0000000000
0000000000
0000000000
0000000000
0000000000
0000000000
0000000000
0000000000
0000000000
00001FC000
0000FFF800
0003FFFE00
000F800F00
001E000380
00380001C0
00700000E0
00E0000060
01C0000070
0380000030
0300000038
0700000018
0E00000018
0C00000018
1C0000001C
180000001C
380000001C
300000001C
300000001C
7000000018
6000000018
7FFFFFFFF8
7FFFFFFFF8
E000000000
E000000000
C000000000
C000000000
C000000000
C000000000
C000000000
C000000000
C000000000
C000000000
E000000000
E000000000
6000000000
6000000000
7000000000
3000000000
3800000000
1800000100
1C00000380
0E00000F00
0700001E00
0780007800
01E001F000
00FF3FC000
003FFF0000
0007F80000
ENDCHAR
STARTCHAR 0118
ENCODING 280
SWIDTH 551 0
DWIDTH 49 0
BBX 48 80 4 -17
BITMAP
001FFFFFFFFF
003FFFFFFFFF
003800000000
003800000000
003000000000
003000000000
003000000000
007000000000
007000000000
006000000000
006000000000
006000000000
006000000000
00E000000000
00E000000000
00C000000000
00C000000000
00C000000000
00C000000000
01C000000000
01C000000000
018000000000
018000000000
018000000000
018000000000
038000000000
038000000000
030000000000
030000000000
03FFFFFFFE00
07FFFFFFFE00
07FFFFFFFC00
070000000000
060000000000
060000000000
060000000000
0E0000000000
0E0000000000
0C0000000000
0C0000000000
0C0000000000
0C0000000000
1C0000000000
1C0000000000
180000000000
180000000000
180000000000
180000000000
380000000000
380000000000
300000000000
300000000000
300000000000
300000000000
700000000000
700000000000
600000000000
600000000000
600000000000
600000000000
E00000000000
FFFFFFFFFC00
FFFFFFFFF800
00000001C000
000000038000
0000000F0000
0000001C0000
000000380000
000000700000
000000600000
000000C00000
000001C00000
000001800000
000001800000
000001800000
000001800000
000001C00000
000001E3C000
000000FF8000
0000007E0000
ENDCHAR
STARTCHAR 0119
ENCODING 281
SWIDTH 483 0
DWIDTH 43 0
BBX 38 63 3 -15
BITMAP
00001FC000
0000FFF800
0003FFFE00
000F800F00
001E000380
00380001C0
00700000E0
00E0000060
01C0000070
0380000030
0300000038
0700000018
0E00000018
0C00000018
1C0000001C
180000001C
380000001C
300000001C
300000001C
7000000018
6000000018
7FFFFFFFF8
7FFFFFFFF8
E000000000
E000000000
C000000000
C000000000
C000000000
C000000000
C000000000
C000000000
C000000000
C000000000
E000000000
E000000000
6000000000
6000000000
7000000000
3000000000
3800000000
1800000100
1C00000380
0E00000F00
0700001E00
0780007800
01E001F000
00FF3FE000
003FFFC000
0007FF0000
00000E0000
00001C0000
0000180000
0000300000
0000700000
0000600000
0000600000
0000E00000
0000E00000
0000E00000
0000706000
00007FE000
00003FC000
0000060000
ENDCHAR
STARTCHAR 011A
ENCODING 282
SWIDTH 551 0
DWIDTH 49 0
BBX 48 79 4 0
BITMAP
000007000380
000003000700
000003800E00
000001C01C00
000000C03800
000000E07000
00000070E000
00000031C000
0000003B8000
0000001F0000
0000000E0000
000000000000
000000000000
000000000000
000000000000
000000000000
001FFFFFFFFF
003FFFFFFFFF
003800000000
003800000000
003000000000
003000000000
003000000000
007000000000
007000000000
006000000000
006000000000
006000000000
006000000000
00E000000000
00E000000000
00C000000000
00C000000000
00C000000000
00C000000000
01C000000000
01C000000000
018000000000
018000000000
018000000000
018000000000
038000000000
038000000000
030000000000
030000000000
03FFFFFFFE00
07FFFFFFFE00
07FFFFFFFC00
070000000000
060000000000
060000000000
060000000000
0E0000000000
0E0000000000
0C0000000000
0C0000000000
0C0000000000
0C0000000000
1C0000000000
1C0000000000
180000000000
180000000000
180000000000
180000000000
380000000000
380000000000
300000000000
300000000000
300000000000
300000000000
700000000000
700000000000
600000000000
600000000000
600000000000
600000000000
E00000000000
FFFFFFFFFC00
FFFFFFFFF800
ENDCHAR
STARTCHAR 011B
ENCODING 283
SWIDTH 483 0
DWIDTH 43 0
BBX 38 67 3 -1
BITMAP
0000600000
0000700038
0000300070
00003800E0
00001C01C0
00000C0380
00000E0700
0000070E00
0000031C00
000003B800
000001F000
000000E000
0000000000
0000000000
0000000000
0000000000
0000000000
0000000000
00001FC000
0000FFF800
0003FFFE00
000F800F00
001E000380
00380001C0
00700000E0
00E0000060
01C0000070
0380000030
0300000038
0700000018
0E00000018
0C00000018
1C0000001C
180000001C
380000001C
300000001C
300000001C
7000000018
6000000018
7FFFFFFFF8
7FFFFFFFF8
E000000000
E000000000
C000000000
C000000000
C000000000
C000000000
C000000000
C000000000
C000000000
C000000000
E000000000
E000000000
6000000000
6000000000
7000000000
3000000000
3800000000
1800000100
1C00000380
0E00000F00
0700001E00
0780007800
01E001F000
00FF3FC000
003FFF0000
0007F80000
ENDCHAR
STARTCHAR 011C
ENCODING 284
SWIDTH 663 0
DWIDTH 59 0
BBX 48 82 7 -1
BITMAP
000000018000
00000003C000
00000007C000
0000000EE000
0000001C7000
000000783800
000000F03C00
000001E01C00
000003C00E00
000007800700
00000E000780
000000000000
000000000000
000000000000
000000000000
000000000000
000000000000
000000FFE000
000007FFFC00
00003FC0FF00
00007C0007C0
0001F00001E0
0003C00000F0
000700000078
000E00000038
001C0000001C
00380000000C
00700000000E
00E000000006
00C000000007
01C000000007
038000000007
030000000003
070000000003
060000000003
0E0000000000
0C0000000000
0C0000000000
1C0000000000
180000000000
180000000000
380000000000
380000000000
300000000000
300000000000
300000000000
300000000000
700000000000
700000000000
600000000000
600000000000
600000000000
E00000FFFFF8
E00000FFFFF8
C00000FFFFF8
C00000000038
C00000000030
C00000000030
C00000000030
C00000000070
C00000000070
C00000000070
C00000000060
C00000000060
C00000000060
E000000000E0
E000000000E0
6000000000E0
7000000000C0
7000000000C0
3000000000C0
3800000001C0
1800000001C0
1C00000001C0
0E0000000780
070000000F00
038000003E00
01E00000FC00
00F8000FF000
007FEFFFC000
001FFFFC0000
0001FF800000
ENDCHAR
STARTCHAR 011D
ENCODING 285
SWIDTH 528 0
DWIDTH 47 0
BBX 42 85 2 -19
BITMAP
0000001C0000
0000003C0000
0000007E0000
000000F70000
000001E38000
00000383C000
00000701C000
00000E00E000
00001C007000
000038007800
000070003800
000000000000
000000000000
000000000000
000000000000
000000000000
000000000000
000000000000
00000FE00000
00007FFC01C0
0001FFFF0180
0003C0078180
000F0001E180
001E0000F380
003C00007380
007800003B80
007000001B00
00E000000F00
01C000000F00
01C000000F00
038000000700
038000000700
070000000600
070000000600
060000000600
0E0000000E00
0E0000000E00
0C0000000C00
1C0000000C00
1C0000000C00
180000000C00
180000001C00
180000001C00
380000001800
380000001800
380000001800
380000001800
300000003800
300000003800
300000003000
300000003000
300000003000
300000007000
380000007000
380000007000
18000000E000
18000000E000
1C000001E000
0C000003E000
0C000007E000
0E00000EE000
0700003CC000
038000F8C000
01E003E0C000
00FEFFC1C000
007FFE01C000
000FF0018000
000000018000
000000038000
000000038000
000000030000
000000070000
000000060000
0000000E0000
0000000C0000
0000001C0000
C00000380000
E00000700000
F00000F00000
780001E00000
3C0003C00000
1F001F000000
07F1FE000000
01FFF8000000
007F80000000
ENDCHAR
STARTCHAR 011E
ENCODING 286
SWIDTH 663 0
DWIDTH 59 0
BBX 48 80 7 -1
BITMAP
00000C000060
00000C0000E0
00000C0000E0
00000C0001C0
00000E000180
000007000780
000007800F00
000003E07E00
000000FFF800
0000007FE000
000000000000
000000000000
000000000000
000000000000
000000000000
000000FFE000
000007FFFC00
00003FC0FF00
00007C0007C0
0001F00001E0
0003C00000F0
000700000078
000E00000038
001C0000001C
00380000000C
00700000000E
00E000000006
00C000000007
01C000000007
038000000007
030000000003
070000000003
060000000003
0E0000000000
0C0000000000
0C0000000000
1C0000000000
180000000000
180000000000
380000000000
380000000000
300000000000
300000000000
300000000000
300000000000
700000000000
700000000000
600000000000
600000000000
600000000000
E00000FFFFF8
E00000FFFFF8
C00000FFFFF8
C00000000038
C00000000030
C00000000030
C00000000030
C00000000070
C00000000070
C00000000070
C00000000060
C00000000060
C00000000060
E000000000E0
E000000000E0
6000000000E0
7000000000C0
7000000000C0
3000000000C0
3800000001C0
1800000001C0
1C00000001C0
0E0000000780
070000000F00
038000003E00
01E00000FC00
00F8000FF000
007FEFFFC000
001FFFFC0000
0001FF800000
ENDCHAR
STARTCHAR 011F
ENCODING 287
SWIDTH 528 0
DWIDTH 47 0
BBX 42 84 2 -19
BITMAP
000060000300
0000E0000700
0000E0000700
000060000600
000060000E00
000070001C00
000030003800
00003C00F000
00001F87E000
00000FFFC000
000001FE0000
000000000000
000000000000
000000000000
000000000000
000000000000
000000000000
00000FE00000
00007FFC01C0
0001FFFF0180
0003C0078180
000F0001E180
001E0000F380
003C00007380
007800003B80
007000001B00
00E000000F00
01C000000F00
01C000000F00
038000000700
038000000700
070000000600
070000000600
060000000600
0E0000000E00
0E0000000E00
0C0000000C00
1C0000000C00
1C0000000C00
180000000C00
180000001C00
180000001C00
380000001800
380000001800
380000001800
380000001800
300000003800
300000003800
300000003000
300000003000
300000003000
300000007000
380000007000
380000007000
18000000E000
18000000E000
1C000001E000
0C000003E000
0C000007E000
0E00000EE000
0700003CC000
038000F8C000
01E003E0C000
00FEFFC1C000
007FFE01C000
000FF0018000
000000018000
000000038000
000000038000
000000030000
000000070000
000000060000
0000000E0000
0000000C0000
0000001C0000
C00000380000
E00000700000
F00000F00000
780001E00000
3C0003C00000
1F001F000000
07F1FE000000
01FFF8000000
007F80000000
ENDCHAR
STARTCHAR 0120
ENCODING 288
SWIDTH 663 0
DWIDTH 59 0
BBX 48 79 7 -1
BITMAP
000000038000
000000078000
00000007C000
000000078000
000000030000
000000000000
000000000000
000000000000
000000000000
000000000000
000000000000
000000000000
000000000000
000000000000
000000FFE000
000007FFFC00
00003FC0FF00
00007C0007C0
0001F00001E0
0003C00000F0
000700000078
000E00000038
001C0000001C
00380000000C
00700000000E
00E000000006
00C000000007
01C000000007
038000000007
030000000003
070000000003
060000000003
0E0000000000
0C0000000000
0C0000000000
1C0000000000
180000000000
180000000000
380000000000
380000000000
300000000000
300000000000
300000000000
300000000000
700000000000
700000000000
600000000000
600000000000
600000000000
E00000FFFFF8
E00000FFFFF8
C00000FFFFF8
C00000000038
C00000000030
C00000000030
C00000000030
C00000000070
C00000000070
C00000000070
C00000000060
C00000000060
C00000000060
E000000000E0
E000000000E0
6000000000E0
7000000000C0
7000000000C0
3000000000C0
3800000001C0
1800000001C0
1C00000001C0
0E0000000780
070000000F00
038000003E00
01E00000FC00
00F8000FF000
007FEFFFC000
001FFFFC0000
0001FF800000
ENDCHAR
STARTCHAR 0121
ENCODING 289
SWIDTH 528 0
DWIDTH 47 0
BBX 42 82 2 -19
BITMAP
000000180000
0000003C0000
0000007C0000
0000003C0000
000000380000
000000000000
000000000000
000000000000
000000000000
000000000000
000000000000
000000000000
000000000000
000000000000
000000000000
00000FE00000
00007FFC01C0
0001FFFF0180
0003C0078180
000F0001E180
001E0000F380
003C00007380
007800003B80
007000001B00
00E000000F00
01C000000F00
01C000000F00
038000000700
038000000700
070000000600
070000000600
060000000600
0E0000000E00
0E0000000E00
0C0000000C00
1C0000000C00
1C0000000C00
180000000C00
180000001C00
180000001C00
380000001800
380000001800
380000001800
380000001800
300000003800
300000003800
300000003000
300000003000
300000003000
300000007000
380000007000
380000007000
18000000E000
18000000E000
1C000001E000
0C000003E000
0C000007E000
0E00000EE000
0700003CC000
038000F8C000
01E003E0C000
00FEFFC1C000
007FFE01C000
000FF0018000
000000018000
000000038000
000000038000
000000030000
000000070000
000000060000
0000000E0000
0000000C0000
0000001C0000
C00000380000
E00000700000
F00000F00000
780001E00000
3C0003C00000
1F001F000000
07F1FE000000
01FFF8000000
007F80000000
ENDCHAR
STARTCHAR 0122
ENCODING 290
SWIDTH 663 0
DWIDTH 59 0
BBX 48 82 7 -18
BITMAP
000000FFE000
000007FFFC00
00003FC0FF00
00007C0007C0
0001F00001E0
0003C00000F0
000700000078
000E00000038
001C0000001C
00380000000C
00700000000E
00E000000006
00C000000007
01C000000007
038000000007
030000000003
070000000003
060000000003
0E0000000000
0C0000000000
0C0000000000
1C0000000000
180000000000
180000000000
380000000000
380000000000
300000000000
300000000000
300000000000
300000000000
700000000000
700000000000
600000000000
600000000000
600000000000
E00000FFFFF8
E00000FFFFF8
C00000FFFFF8
C00000000038
C00000000030
C00000000030
C00000000030
C00000000070
C00000000070
C00000000070
C00000000060
C00000000060
C00000000060
E000000000E0
E000000000E0
6000000000E0
7000000000C0
7000000000C0
3000000000C0
3800000001C0
1800000001C0
1C00000001C0
0E0000000780
070000000F00
038000003E00
01E00000FC00
00F8000FF000
007FEFFFC000
001FFFFC0000
0001FF800000
000000000000
000000000000
000000000000
000070000000
000060000000
000060000000
000060000000
0000E0000000
0000E0000000
0000C0000000
0001C0000000
0001C0000000
000380000000
000380000000
000700000000
000E00000000
000400000000
ENDCHAR
STARTCHAR 0123
ENCODING 291
SWIDTH 528 0
DWIDTH 47 0
BBX 42 88 2 -19
BITMAP
000000030000
000000030000
000000060000
0000000E0000
0000000C0000
0000001C0000
000000180000
000000180000
000000180000
000000380000
000000380000
000000300000
000000300000
000000300000
000000000000
000000000000
000000000000
000000000000
000000000000
000000000000
000000000000
00000FE00000
00007FFC01C0
0001FFFF0180
0003C0078180
000F0001E180
001E0000F380
003C00007380
007800003B80
007000001B00
00E000000F00
01C000000F00
01C000000F00
038000000700
038000000700
070000000600
070000000600
060000000600
0E0000000E00
0E0000000E00
0C0000000C00
1C0000000C00
1C0000000C00
180000000C00
180000001C00
180000001C00
380000001800
380000001800
380000001800
380000001800
300000003800
300000003800
300000003000
300000003000
300000003000
300000007000
380000007000
380000007000
18000000E000
18000000E000
1C000001E000
0C000003E000
0C000007E000
0E00000EE000
0700003CC000
038000F8C000
01E003E0C000
00FEFFC1C000
007FFE01C000
000FF0018000
000000018000
000000038000
000000038000
000000030000
000000070000
000000060000
0000000E0000
0000000C0000
0000001C0000
C00000380000
E00000700000
F00000F00000
780001E00000
3C0003C00000
1F001F000000
07F1FE000000
01FFF8000000
007F80000000
ENDCHAR
STARTCHAR 0124
ENCODING 292
SWIDTH 675 0
DWIDTH 60 0
BBX 54 80 4 0
BITMAP
00000000300000
00000000780000
00000000FC0000
00000001CE0000
000000038E0000
00000007070000
0000000E038000
0000001C01C000
0000007801E000
000000F000E000
000001E0007000
00000000000000
00000000000000
00000000000000
00000000000000
00000000000000
00000000000000
0018000000000C
0038000000000C
0038000000000C
0038000000000C
0030000000001C
0030000000001C
00300000000018
00700000000018
00700000000018
00600000000018
00600000000038
00600000000038
00600000000030
00E00000000030
00E00000000030
00C00000000030
00C00000000070
00C00000000070
00C00000000060
01C00000000060
01C00000000060
01800000000060
018000000000E0
018000000000C0
018000000000C0
038000000000C0
038000000000C0
030000000001C0
030000000001C0
03FFFFFFFFFF80
07FFFFFFFFFF80
07FFFFFFFFFF80
07000000000180
06000000000380
06000000000380
06000000000300
0E000000000300
0E000000000300
0C000000000300
0C000000000700
0C000000000700
0C000000000600
1C000000000600
1C000000000600
18000000000600
18000000000E00
18000000000E00
18000000000C00
38000000000C00
38000000000C00
30000000000C00
30000000001C00
30000000001C00
30000000001800
70000000001800
70000000001800
60000000003800
60000000003800
60000000003000
60000000003000
E0000000003000
E0000000003000
C0000000007000
ENDCHAR
STARTCHAR 0125
ENCODING 293
SWIDTH 528 0
DWIDTH 47 0
BBX 38 80 3 0
BITMAP
0000006000
000000F000
000001F800
000003B800
0000071C00
00001E0E00
00003C0700
0000780700
0000F00380
0001E001C0
0003C000E0
0000000000
0000000000
001C000000
0018000000
0018000000
0018000000
0018000000
0038000000
0038000000
0030000000
0030000000
0030000000
0070000000
0070000000
0060000000
0060000000
0060000000
0060000000
00E0000000
00E0000000
00C0000000
00C001FC00
00C00FFF80
00C03FDFC0
01C0F801E0
01C1E00070
0187800038
018F000018
019C00001C
019800001C
03B000000C
03F000000C
03E000000C
03C000000C
038000000C
038000000C
070000000C
070000000C
060000000C
060000001C
060000001C
0E00000018
0E00000018
0C00000018
0C00000018
0C00000038
0C00000038
1C00000030
1C00000030
1800000030
1800000030
1800000070
1800000070
3800000060
3800000060
3000000060
3000000060
30000000E0
30000000E0
70000000C0
70000000C0
60000000C0
60000001C0
60000001C0
60000001C0
E000000180
E000000180
C000000180
C000000380
ENDCHAR
STARTCHAR 0126
ENCODING 294
SWIDTH 652 0
DWIDTH 58 0
BBX 59 63 2 0
BITMAP
0018000000000E00
0018000000000E00
0018000000000C00
0038000000000C00
0038000000000C00
0030000000000C00
0030000000001C00
0030000000001C00
0030000000001800
0070000000001800
0070000000001800
0060000000003800
0060000000003800
0060000000003800
0060000000003000
00E0000000003000
3FFFFFFFFFFFFFE0
3FFFFFFFFFFFFFC0
00C0000000007000
00C0000000006000
01C0000000006000
01C0000000006000
01C0000000006000
018000000000E000
018000000000E000
018000000000C000
038000000000C000
038000000000C000
030000000000C000
03FFFFFFFFFFC000
03FFFFFFFFFFC000
03FFFFFFFFFF8000
0700000000018000
0700000000018000
0600000000018000
0600000000038000
0600000000038000
0600000000030000
0E00000000030000
0E00000000030000
0C00000000070000
0C00000000070000
0C00000000070000
0C00000000060000
1C00000000060000
1C00000000060000
18000000000E0000
18000000000E0000
18000000000C0000
18000000000C0000
38000000000C0000
38000000000C0000
30000000001C0000
30000000001C0000
3000000000180000
7000000000180000
7000000000180000
6000000000180000
6000000000380000
6000000000380000
6000000000300000
E000000000300000
E000000000300000
ENDCHAR
STARTCHAR 0127
ENCODING 295
SWIDTH 540 0
DWIDTH 48 0
BBX 39 67 4 0
BITMAP
001C000000
001C000000
001C000000
0018000000
0018000000
0018000000
0038000000
0038000000
0030000000
0FFFFFF800
0FFFFFF800
0030000000
0070000000
0070000000
0060000000
0060000000
0060000000
0060000000
00E0000000
00E000FC00
00C00FFF80
00C03FDFC0
00C0F800F0
00C1E00070
01C3800038
01C7000018
018E00001C
019C00000C
01B800000C
03F000000C
03E000000E
03C000000E
03C000000E
038000000E
038000000E
070000000C
070000000C
060000000C
060000000C
060000001C
060000001C
0E00000018
0E00000018
0C00000018
0C00000018
0C00000038
0C00000038
1C00000030
1C00000030
1800000030
1800000030
1800000070
1800000070
3800000060
3800000060
3000000060
30000000E0
30000000E0
70000000E0
70000000C0
70000000C0
60000000C0
60000001C0
60000001C0
E000000180
E000000180
C000000180
ENDCHAR
STARTCHAR 0128
ENCODING 296
SWIDTH 247 0
DWIDTH 22 0
BBX 28 78 6 0
BITMAP
07E00070
1FF80060
3E3C00E0
380E00E0
700783C0
E003FF80
E000FF00
C0003800
00000000
00000000
00000000
00000000
00000000
00000000
00000000
00380000
00380000
00300000
00300000
00300000
00300000
00700000
00700000
00600000
00600000
00600000
00E00000
00E00000
00C00000
00C00000
00C00000
00C00000
01C00000
01C00000
01800000
01800000
01800000
01800000
03800000
03800000
03000000
03000000
03000000
03000000
07000000
07000000
06000000
06000000
06000000
06000000
0E000000
0E000000
0C000000
0C000000
0C000000
1C000000
1C000000
18000000
18000000
18000000
18000000
38000000
38000000
30000000
30000000
30000000
30000000
70000000
70000000
60000000
60000000
60000000
60000000
E0000000
E0000000
C0000000
C0000000
C0000000
ENDCHAR
STARTCHAR 0129
ENCODING 297
SWIDTH 191 0
DWIDTH 17 0
BBX 28 63 1 0
BITMAP
07E00070
1FF80060
3C3C00E0
780E01C0
700783C0
E001FF80
E000FE00
C0001000
00000000
00000000
00000000
00000000
00000000
00000000
00000000
00000000
00300000
00300000
00300000
00300000
00700000
00700000
00600000
00600000
00600000
00600000
00E00000
00E00000
00C00000
00C00000
00C00000
00C00000
01C00000
01C00000
01800000
01800000
01800000
01800000
03800000
03800000
03000000
03000000
03000000
07000000
07000000
06000000
06000000
06000000
06000000
0E000000
0E000000
0C000000
0C000000
0C000000
0C000000
1C000000
1C000000
18000000
18000000
18000000
18000000
38000000
38000000
ENDCHAR
STARTCHAR 012A
ENCODING 298
SWIDTH 247 0
DWIDTH 22 0
BBX 26 77 6 0
BITMAP
3FFFFFC0
3FFFFFC0
3FFFFFC0
00000000
00000000
00000000
00000000
00000000
00000000
00000000
00000000
00000000
00000000
00000000
00380000
00380000
00300000
00300000
00300000
00300000
00700000
00700000
00600000
00600000
00600000
00E00000
00E00000
00C00000
00C00000
00C00000
00C00000
01C00000
01C00000
01800000
01800000
01800000
01800000
03800000
03800000
03000000
03000000
03000000
03000000
07000000
07000000
06000000
06000000
06000000
06000000
0E000000
0E000000
0C000000
0C000000
0C000000
1C000000
1C000000
18000000
18000000
18000000
18000000
38000000
38000000
30000000
30000000
30000000
30000000
70000000
70000000
60000000
60000000
60000000
60000000
E0000000
E0000000
C0000000
C0000000
C0000000
ENDCHAR
STARTCHAR 012B
ENCODING 299
SWIDTH 191 0
DWIDTH 17 0
BBX 24 62 3 0
BITMAP
FFFFFF
FFFFFF
FFFFFF
000000
000000
000000
000000
000000
000000
000000
000000
000000
000000
000000
000000
00C000
00C000
00C000
00C000
01C000
01C000
018000
018000
018000
018000
038000
038000
030000
030000
030000
030000
070000
070000
060000
060000
060000
060000
0E0000
0E0000
0C0000
0C0000
0C0000
1C0000
1C0000
180000
180000
180000
180000
380000
380000
300000
300000
300000
300000
700000
700000
600000
600000
600000
600000
E00000
E00000
ENDCHAR
STARTCHAR 012C
ENCODING 300
SWIDTH 247 0
DWIDTH 22 0
BBX 26 79 6 0
BITMAP
380000C0
380001C0
38000180
38000380
18000300
18000700
1C000E00
0F003C00
07C1F800
03FFF000
00FF8000
00000000
00000000
00000000
00000000
00000000
00380000
00380000
00300000
00300000
00300000
00300000
00700000
00700000
00600000
00600000
00600000
00E00000
00E00000
00C00000
00C00000
00C00000
00C00000
01C00000
01C00000
01800000
01800000
01800000
01800000
03800000
03800000
03000000
03000000
03000000
03000000
07000000
07000000
06000000
06000000
06000000
06000000
0E000000
0E000000
0C000000
0C000000
0C000000
1C000000
1C000000
18000000
18000000
18000000
18000000
38000000
38000000
30000000
30000000
30000000
30000000
70000000
70000000
60000000
60000000
60000000
60000000
E0000000
E0000000
C0000000
C0000000
C0000000
ENDCHAR
STARTCHAR 012D
ENCODING 301
SWIDTH 191 0
DWIDTH 17 0
BBX 24 64 3 0
BITMAP
E00007
E00007
E00006
E0000E
60000C
70001C
700038
3C00F0
1F87E0
0FFF80
03FE00
000000
000000
000000
000000
000000
000000
00C000
00C000
00C000
00C000
01C000
01C000
018000
018000
018000
018000
038000
038000
030000
030000
030000
030000
070000
070000
060000
060000
060000
060000
0E0000
0E0000
0C0000
0C0000
0C0000
1C0000
1C0000
180000
180000
180000
180000
380000
380000
300000
300000
300000
300000
700000
700000
600000
600000
600000
600000
E00000
E00000
ENDCHAR
STARTCHAR 012E
ENCODING 302
SWIDTH 247 0
DWIDTH 22 0
BBX 23 80 -4 -17
BITMAP
00000E
00000E
00000C
00000C
00000C
00000C
00001C
00001C
000018
000018
000018
000038
000038
000030
000030
000030
000030
000070
000070
000060
000060
000060
000060
0000E0
0000E0
0000C0
0000C0
0000C0
0000C0
0001C0
0001C0
000180
000180
000180
000180
000380
000380
000300
000300
000300
000700
000700
000600
000600
000600
000600
000E00
000E00
000C00
000C00
000C00
000C00
001C00
001C00
001800
001800
001800
001800
003800
003800
003000
003000
003000
00E000
01C000
038000
0E0000
1C0000
380000
300000
700000
600000
E00000
C00000
C00000
C00000
E02000
71E000
7FE000
3F8000
ENDCHAR
STARTCHAR 012F
ENCODING 303
SWIDTH 191 0
DWIDTH 17 0
BBX 23 81 -6 -17
BITMAP
00000E
00001E
00001E
00001E
00000C
000000
000000
000000
000000
000000
000000
000000
000000
000000
000000
000000
000000
000070
000060
000060
000060
000060
0000E0
0000E0
0000C0
0000C0
0000C0
0000C0
0001C0
0001C0
000180
000180
000180
000180
000380
000380
000300
000300
000300
000300
000700
000700
000600
000600
000600
000E00
000E00
000C00
000C00
000C00
000C00
001C00
001C00
001800
001800
001800
001800
003800
003800
003000
003000
003000
003000
007000
00E000
03C000
070000
0E0000
1C0000
380000
700000
600000
E00000
C00000
C00000
C00000
C00000
C04000
F1C000
7FC000
3F0000
ENDCHAR
ENDFONT
